/* XPM */
static char *Picsart_24_05_20_16_41_27_6101716213632[] = {
/* columns rows colors chars-per-pixel */
"64 63 239 2 ",
"   c #0D0036",
".  c #0E003C",
"X  c #14003C",
"o  c #1A003B",
"O  c #140035",
"+  c #270C33",
"@  c #2A0C35",
"#  c #24003D",
"$  c #2A013E",
"%  c #2E0E3A",
"&  c #330B36",
"*  c #330D3B",
"=  c #38093A",
"-  c #33103D",
";  c #2F103C",
":  c #43073A",
">  c #56093D",
",  c #46113F",
"<  c #170342",
"1  c #260041",
"2  c #2B0144",
"3  c #2E0148",
"4  c #2D0947",
"5  c #330243",
"6  c #3B0445",
"7  c #340D41",
"8  c #3B0C44",
"9  c #33014B",
"0  c #3A014D",
"q  c #3B0C4C",
"w  c #340B4A",
"e  c #351444",
"r  c #3A1346",
"t  c #3C164A",
"y  c #3D184B",
"u  c #391847",
"i  c #3D0151",
"p  c #3C0852",
"a  c #3F1451",
"s  c #430B45",
"d  c #440A4C",
"f  c #4B0B4D",
"g  c #460745",
"h  c #570B47",
"j  c #42164C",
"k  c #4B144D",
"l  c #44194D",
"z  c #481A4E",
"x  c #451445",
"c  c #53124B",
"v  c #5B1449",
"b  c #440254",
"n  c #490357",
"m  c #490E56",
"M  c #460158",
"N  c #4C015B",
"B  c #460C57",
"V  c #52025D",
"C  c #560D58",
"Z  c #441653",
"A  c #4B1453",
"S  c #431851",
"D  c #4A1953",
"F  c #4C1A5B",
"G  c #4A155A",
"H  c #551758",
"J  c #650C47",
"K  c #66134B",
"L  c #650D52",
"P  c #681853",
"I  c #771755",
"U  c #7A0C53",
"Y  c #4E2554",
"T  c #592758",
"R  c #59315C",
"E  c #4C224E",
"W  c #682559",
"Q  c #73255C",
"!  c #550162",
"~  c #590265",
"^  c #5D0269",
"/  c #590B62",
"(  c #571564",
")  c #4D0B61",
"_  c #63036D",
"`  c #650B6B",
"'  c #661865",
"]  c #6B0373",
"[  c #6B0A74",
"{  c #660070",
"}  c #78087A",
"|  c #6B1572",
" . c #7A1875",
".. c #592D66",
"X. c #692A6C",
"o. c #683967",
"O. c #693775",
"+. c #773576",
"@. c #773371",
"#. c #69426D",
"$. c #71426D",
"%. c #774778",
"&. c #6C407D",
"*. c #8E195F",
"=. c #8E1B66",
"-. c #973B7C",
";. c #8E2872",
":. c #B32872",
">. c #B01C68",
",. c #C5347B",
"<. c #824A77",
"1. c #7D1482",
"2. c #7E0D83",
"3. c #763F80",
"4. c #7C4F87",
"5. c #8D138A",
"6. c #942D8E",
"7. c #AC3A91",
"8. c #BF3EA3",
"9. c #C43CA2",
"0. c #854885",
"q. c #865988",
"w. c #96538E",
"e. c #985598",
"r. c #984B92",
"t. c #A84799",
"y. c #B54699",
"u. c #A6529A",
"i. c #B14D8F",
"p. c #8C608D",
"a. c #986A99",
"s. c #936B9E",
"d. c #A26E9E",
"f. c #B949A5",
"g. c #AB59A5",
"h. c #BA57AA",
"j. c #B959B3",
"k. c #9765A5",
"l. c #9D71AB",
"z. c #A767A6",
"x. c #B469AA",
"c. c #A778A9",
"v. c #B379AE",
"b. c #AA75B5",
"n. c #B978B7",
"m. c #B56BB4",
"M. c #9B57A0",
"N. c #D55496",
"B. c #E25494",
"V. c #C547AB",
"C. c #C657A8",
"Z. c #C759B4",
"A. c #D559B8",
"S. c #D34DB3",
"D. c #C264B4",
"F. c #CB66BA",
"G. c #D367BC",
"H. c #C578BA",
"J. c #D56EB5",
"K. c #E268BC",
"L. c #DE5CC1",
"P. c #E55EC5",
"I. c #D56AC5",
"U. c #DC6BCA",
"Y. c #D866C4",
"T. c #CC79C4",
"R. c #D778C8",
"E. c #D97AD0",
"W. c #E36ACD",
"Q. c #E867C7",
"!. c #E671C4",
"~. c #E56CD2",
"^. c #E968D3",
"/. c #E57CD6",
"(. c #E678D6",
"). c #B486AE",
"_. c #AF86B6",
"`. c #B886B8",
"'. c #BB94BA",
"]. c #C389BB",
"[. c #C192BE",
"{. c #BA8AC8",
"}. c #C887C5",
"|. c #D589CA",
" X c #CC94CA",
".X c #C897C7",
"XX c #D39ACE",
"oX c #D296CE",
"OX c #DA88D2",
"+X c #D395D2",
"@X c #D999D6",
"#X c #CC91D1",
"$X c #E887DA",
"%X c #E598DB",
"&X c #EC88D5",
"*X c #C9A7C9",
"=X c #D1A3CD",
"-X c #D4A4D3",
";X c #DAA9D8",
":X c #DAB2DA",
">X c #E3A8DA",
",X c #EAADDE",
"<X c #EC9CE3",
"1X c #E697E2",
"2X c #F598E6",
"3X c #FE9BF4",
"4X c #D9A4E3",
"5X c #E8A8E5",
"6X c #F3A7EB",
"7X c #EDB2EB",
"8X c #E7B7E5",
"9X c #F2B2ED",
"0X c #F5BBED",
"qX c #FDACF3",
"wX c #FFABF9",
"eX c #FBA4F5",
"rX c #E8B2F2",
"tX c #FCB4F5",
"yX c #F5BCF4",
"uX c #FABBF5",
"iX c #FEB3F9",
"pX c #F6B8F6",
"aX c #EBAEF2",
"sX c #EDC3EB",
"dX c #EAC8EA",
"fX c #F1C6EF",
"gX c #EEC5F2",
"hX c #F4CCF4",
"jX c #FBCDF6",
"kX c #FDCCFA",
"lX c #F8C4F4",
"zX c #F5D4F4",
"xX c #F9D1F6",
"cX c #F7D2F8",
"vX c #FCD2FC",
"bX c #FDDCFE",
"nX c #F4D8F6",
"mX c #FAE1FC",
"MX c #F7E3FC",
/* pixels */
"                            O 4.XX Xn.0.z.+.a..X[.*X*X*X*X*X=X=X*X=X].[.oX`.].d..X.Xv. Xb.$ O                                   ",
"X   .         . .   .   .   O {.gXyX+Xw. X;XfXzXnXnXnXnXzXdX).).:XzXXX0X0X0XoX5X5XlX7X;XrXY X X X   .     . .   . .   .   .     ",
". . X . . . . . . . . . X . O {.yXyXx.@XjXhXxXzXzXnXnXnXzX=X<.Q Q <.).0XyXpXoX9X}.pXpX+XrXq.< X X . X .   . .   .   . . . . < . ",
". . . . . < . . . . . . . X o {.yX0Xw.yXxXxXhX8XzXzXzXzXmX%.<.[.,X:X].0XyXuX+XuXm.>X7XpX+X{.< X < . < . . . < . . < . . . . . . ",
". . . . . . . . . . < . . . o {.pX}.z.kXxXjX`.[.dXzXzXzXzXdXzXzXxXjX X9XyXyX@XuX+X4XoXtXOX#X4 < < X . . < . . < . < . < < . . < ",
". < . . < . . . . . . . < . + {.pX].+XyXjX=X$.W [.zXzXzXzXzXnXdXhXxXXX9XyXlX+XuX9X}.5X5XiX{.F < X X . < . . . . . . . . . . . . ",
". . . . . . . < . . . . . . < _.pX}.9X Xv.W '.sXzXzXnXzXzXzXzXdXzXxXXX9XuXuX+XuXiXT.pX}.9XrXO.1 X X . . . . . . . . . . . . .   ",
"< < < < < . . . < . . < . . . s.uX@X9X].].8XjXzXzXzXzXzXzXzXzXzXzXxX-X7XyXpX}.0XuXH.%X6X@XyX@XZ o < < X < . < . . < . . < . . . ",
". . < . < . < . .   . . . . . ..yX7X5X@X|.kXjXzXnX:XzXzXzXzXzXzXzXzXXX9XyXpX}.2XiX|.OXwXT.pXaXb.4 o < X X . < . . < < . .   .   ",
"< < . . . . . . . . . . . . < 4 4XpX4X6Xx.uXfXhXnXzXzXnXzXzXzXzXzXzXXXyXpXuXT.<XuXOXT.3X1X@XH.4Xb.4 o < X X . X . . . . . .   . ",
"< < < < . . . . . . . . < X . < l.iX+XiXOX@XjXzXnXnXnXzXzXzXzX:XzXhX.XyXpXuXm.$XiX<XF./.wXn.6Xb.5Xb.4 o X X < . . . . . X X X X ",
"< < . < . . < . . . . . . X X o O.pX#XiX6Xx.kXxXzXzXdXdX:X).).dXzXcX.X9XpX6XZ.$XuXeXZ.(.eXOX1XM.0.rXk.w o X X X . . . . X X X X ",
".   . X . X X X X X . X     < o q.T.1X5XiXH.XXjXzXdX'.dXzXzXzXzXzXzXXXpXuXT.Z.$XiX6XZ.~.2X2XT.OXB 3.aXl.1 o o X X < o X X O X X ",
". . . X X X . X X X X . X < < o M.}.1XOXiX%Xv.jXzXzXzXzXzXzXzXzXzXcX@XuXtXg.Z./.iX6Xf.(.E.wXj.1XM.5 O.4Xk.4 o X X o O X X X o o ",
". X X X . X X X < . X X < X X # b.<Xu.&XiXtXH.@XxXzXzXzXzXzXzXzXzXcX-XuXqXr.f./.iX6Xf.~.(.3XE.T.1Xm 2 &.4X4.2 o o X X X O O X X ",
"X X X X X X X X X < X X X < o 2 +X1XC.D.T.tX<Xu.,XxXxXzXzXzXzXzXzXsX@XiX$XD.y.(.iX1XZ.^.~.(.3XI.1X|.6 $ O.rX4.# o o o X X o X X ",
"X X X X < X X X X X X X X o o p qX$XZ.Z.R.<XiXOXu.H.uXjXjXxXzXhX`.W @XtXh.I.Z.(.iX%XY.~.^.~.3XF.E.3X4.2 $ l.4XF o o X X o X X X ",
"X X X X X X < X X X X < X X < 4.iXOXV.U.h.T.qXeXI.y.h.].>X0X[.@.> @.>XqXt.A.Z.2XwXR.U.^.^.^.(.I.U.U.1XX.$ w {.n.4 o o X X X o X ",
"X X X X X < X X < X o X < 1 2 }.wXE.V.^.I.$XH.wX2XG.y.I.i.c : h -.K.5X2Xf.V.Y.2XiXT.U.~.^.~.W.~.L.~.(.T.0 $ O.rX..o o X X X X X ",
"X < X X X o X X X X X X o # F aX3XU.V.^.W.F.2Xn.wX$XU.f.Z.=.I C.K.!.$X$X7.7.U.wXqXx.j.f.h.h.j.U.f.~.U.$Xz.6 2 b.l.1 o X X X o o ",
"X X X X X X X < X X X X < o k.pX2XW.9.^.Q.Z.2X5X+XwX(.U.V.N.!.!.!.!.J.&XA.7.E.iX5X5XvXvX7X%.@.H ( t.U.U.$X3.5 F 4Xq o o o X o o ",
"X o X X X X X o X o o o o 4 @XiX/.~.8.Q.P.Y.OXiXz.%XeX!.V.7.!.!.!.!.C.2XQ.f.$XiX`.kXbXbX%.x j d d m t.U.U.I.( 0 +X..# o o X X o ",
"X o X O X X X X X X o O o Z T.wX(.^.V.P.P.Y.T.iXH.u.6X2Xi.7.K.K.Q.A.V.C.&XG.R.tX.XbXbX*Xr l j j j k C t.U.I.g.0 {.O.o o o X X o ",
"X X X o X X X o X O o o # ..b.iX~.Q.S.S.P.Q.D.iX@XuX}.6XR.=.y.!.K.K.K.J.f.R.D.@XfXbXcXR j S j l j j s H Z.I.I./ M.O.# o o X X o ",
"o o O o o O o X o O o $ $ X.n.iX~.P.L.9.P.Q.D.tX9X>XkX}.2X7.;.K.K.!.&Xi.D.D.D.r.jXvX:Xx l l j j j l j m ' F.I.h.g...o o o o O o ",
"o O o X O o o o o # $ $ 6 @.z.iX/.Q.P.V.K.F.6.0X,X XbXXX%Xu.;.J.|.2Xu.].5X6Xg.x.a.hXq.u y l S j j j j x c t.Y.I.m.Z # o o O o o ",
"o O o O o o o o # $ = g f P x.qX$XP.P.A.7.=.h 5XH.c.vXvX+XH.>X5X0X>X0X|.7XXXvXjX:Xa.l l j S j x j y l j k C j.G.u.5 # o o o o o ",
"o o o o o o o # $ $ 6 h L I -.$X3XY.P.A.6.C f 0.@X Xc.vXXXn.kXvXsX].[.[.;XbXbXmXbX'.l l r j j j l j l j x f  .F.T.B $ o o o o o ",
"o o o o # # # $ $ f h L U *.:.N.3XY.L.A.L s x %.+X;XbXbX`.n.vXbX=Xd.'.fXmXmXmXmXbX%.l l 8 j j j j y j j j j C g.R.+.2 o o o # o ",
"o o o o o # 2 5 s h J *.*.>.7.:.2X!.G.t.: , l .X`.`.mXmXc.=XvXnX*XbXbXmXmXMXMXmXzXY l y = r l j j j j S j j f P T.e.5 1 o o # o ",
"# o o # # $ $ s f L U *.>.,.B.B.C.2X;.H f x r 8XbX*XnXmXzX=XbX*XdXmXmXMXmXmXMXmX_.x j j 7 7 j j j j j j j S j A g.m.5 1 # o o # ",
"# # # # $ $ s f h L =.;.,.N.B.B.i.J c z j j z cXmXmXnXmXbX=XvX-XmXmXmXMXmXmXmXnX#.l l j r & x l S S j j j j j d +.m.5 # # # # # ",
"# # # $ $ 6 f C h U -.C.C.N.N.N.-.h k A x l Y bXmXnXzXzXxX,X0X;XfXfXhXnXbXMXmXdXE z S z r = = j j z l l y j j j f k.0 $ # # # # ",
"# # # $ 5 s f c ;.].,X0X>X2Xi.N.K c z j l l z p.$.R E T W W W W T T Y R #.a.:X-Xl z z j x o.a.q.H +.x l l x l j j +.q 2 $ # 1 # ",
"2 2 2 5 q s H z.fXvXxXxXjX=X}.W s r j r j z z x , v v K K K J K c k z z D x E Y l z $..XdXhXcXkX@Xr. XY l j j j l r 6 2 $ 2 2 2 ",
"# 2 2 5 d k v.kXcXcXxXxXxX,XkXo.r 8 8 j j z k v K K J J > K K K K c c k D z D l ..`.cXxXcXzXxXlX&XH.5Xs.l r j j y y r 6 5 5 2 2 ",
"2 5 9 6 d e.kXlXcXzXcXcXcXsXgXo.x l j j D z c W > J K I K > > J K Q c c k c H T ,XxXcXzXhXjX0X|.K.].w.c.R r l y r 7 e 8 6 5 5 5 ",
"9 9 0 0 F +X8X:XhXkXxX8X-X8X:XY l l r y l k c H W P K I > v K I J J W c k D 0.z.8XxXcXzXxXlX|.i.K.y.0XbXgXR l r 8 7 & 8 d 0 0 0 ",
"0 0 b b e.#X8X0X:XlXlX<.8XXXo.z S l r 8 y l z c W v J Q > c K J I J v c H `.].].8X:XjXxXjX,Xh.-.g.H.=X=X.Xk.%.E r r e = s d b b ",
"b b n n 5XoX;XlX-XkX].0.gXo.A z D l t * * r l z z v > K : , Q > J P c k x s `.lX[.xX8X.XlXx.i.H.].xXjXE $._.vXl.r y y 8 r m n N ",
"N V V C uX;X;XlX0X0XT v.a.x D D D S y * * - r r r , v > & = W > : = , - = R  X,XfXfXo.sXa.x H d.jXbX4.* - ..4.j l y y r s d V ! ",
"! V ~ ` qX8XXXyXuX Xh X.H S D F F D D j * * * * & = v : & & W > & & & & & a. Xv.jXp.$.,Xl & & & z o.- = x y l j j y j x j d C _ ",
"_ _ _ ` @XaX;X5XuXm. .` C F F F F F H F s 5 e % % & W = & & v > & & @ & - p.[.[.,X, a.q.= & & & 8 H d 6 l l j j j j j r r m V ^ ",
"_ { ] { j.|.@X%X6X6.5.5.' ) F F F F / 1.( g 7 * & & = = & & c , & ; @ @ - , ).:X$.& ).T & % * 7 f | ( C A j S j l y j y j A C ~ ",
"{ ] ] ] [ j.E.E.6.2.5.5.2.` ( F G ( 1.6.6.~ 6 7 % % * * @ @ & @ @ @ @ @ @ @ R $.& & o.- & % * = C | [ ` ) G A S j j j j j f / ! ",
"_ ] ] ] { [ | 1.} } 2.} [ | ( ( ( | 2.5.6.2.C q 7 % @ @ @ @ @ @ @ @ @ + + @ @ @ @ & @ & @ % % 8 C _ ] [ ~ G A S S A j S j m N N ",
"_ ^ _ _ { ^ ^ ` [ [ ] ] ] [ ` ^ [ [ 2.2.2.[ [ | w % ; % @ @ @ + + + + + @ + + @ + @ @ @ & ; - 8 / ! ^ ~ / N N m m m m m m n n n ",
"~ ! ~ ! ^ ~ ! ~ ! ~ ^ ^ ^ ^ ~ ~ ^ [ ] [ [ [ [ / q 7 ; + % @ + @ + + @ + + + + @ + @ @ & - u x j m ! ! ! V N N n M b d b M M M M ",
"! N N N V N N N N N N N V V N N N ! ! N ! ! ! N G 9 7 e e 7 ; % + @ + + + + + + @ % - r r j Z Z n M n M M M i M b b i M M i b i ",
"M M M N N M M M M M M M M M n M M M M M M M M M F q * e t t e e e ; @ + + + @ + % e y j S S A Z i b i i i i i i i i i i i i 0 0 ",
"b i M i b 0 b 0 i b i b i i i i b B i b i i i B Z y 7 % r t t t u y u e 7 7 7 u u y j j j S d p i i i i i i i i 9 i i i i i i 9 ",
"0 9 i i 0 0 0 0 0 0 0 9 0 0 9 0 0 9 0 0 9 9 B G Z a t 7 e t t t t y y y u e r t t r S j S j Z q 9 9 9 9 9 9 9 9 9 9 9 i 9 i 9 9 ",
"9 i i 9 i 9 9 9 9 9 0 9 9 9 9 9 9 9 9 9 9 9 F F Z a a e e u t t t t t t t t t t t j t S j j G 9 9 9 9 9 9 9 9 9 9 9 3 9 9 9 9 9 ",
"9 B i 9 9 9 9 9 9 9 9 9 9 9 9 2 9 2 2 2 9 G Z S S S t t 7 7 t t t t t y y y t t t t t j j S Z 9 9 9 9 3 3 9 3 3 3 3 3 ) ) 9 9 9 ",
"9 9 9 9 9 9 9 3 2 9 3 3 3 9 9 2 9 3 3 5 S S S S a E y t e e r t y u t y t t y u t t t j S S F 9 9 9 9 3 9 3 3 9 9 9 9 p p 9 9 9 ",
"3 3 3 3 9 3 3 3 3 5 9 2 9 2 9 9 3 2 3 Z S S S S l y y t u % r r u e t t t t r y j t t t l S m p B 9 p i i p p p p i i 9 9 9 9 9 ",
"9 3 3 3 9 3 3 3 9 9 9 9 3 9 9 9 9 9 a a F a S y a y t t w e w u t u w u u u u w u t u t y a w 2 3 3 2 3 2 2 2 3 9 3 3 3 3 2 2 1 ",
"9 9 3 3 3 3 3 3 3 3 3 2 3 2 3 4 4 p a Z S a a a y a t t u u y u w u u u u u u t t t u t u a 2 2 2 1 2 2 1 1 2 2 3 3 3 < 1 1 3 1 ",
"2 2 1 2 2 2 2 2 1 2 1 1 1 2 3 2 q Z S y u e t t y y t t y t u u u u u u u u t u e u t t t a 2 2 2 3 2 2 2 2 2 2 2 3 3 3 3 1 3 1 ",
"2 1 1 1 1 1 1 1 1 1 1 1 1 2 2 w Z a Y a u e t t u y u t t t u u t u u w u e t w u e e t t q 2 3 3 3 3 3 3 4 9 3 2 w 3 3 2 3 3 3 ",
"3 1 3 1 1 3 3 3 3 3 3 1 2 9 t Z S a E a u e 7 e e r u u e u e u e u u e u u u e e u e t t r 2 2 1 1 1 2 2 2 # 2 2 1 1 1 1 2 1 1 ",
"3 1 1 1 2 3 2 3 1 2 1 3 3 q Z Z S a a y a u 7 7 r e e t e e e u u e e e w e u w t u t t r 4 # 1 1 # # # 2 # # # 1 $ # # 1 < # # ",
"3 1 1 1 1 1 1 1 1 1 1 1 q Z a a a a y a t t r 7 e u r 7 e e e e e e u e w e e e e e ; 7 4 4 # # # 1 1 # # $ # # # # 1 # # # # # "
};
