/* XPM */
static char *Picsart_24_05_20_16_40_52_7961716213543[] = {
/* columns rows colors chars-per-pixel */
"64 64 242 2 ",
"   c #0E0036",
".  c #0E003C",
"X  c #1C0035",
"o  c #14003D",
"O  c #1B003B",
"+  c #140036",
"@  c #250B33",
"#  c #2A0B34",
"$  c #24003C",
"%  c #2A013D",
"&  c #2D0D3B",
"*  c #290236",
"=  c #310C36",
"-  c #34003D",
";  c #320E3C",
":  c #390838",
">  c #2F103C",
",  c #33113E",
"<  c #38113E",
"1  c #55043E",
"2  c #170441",
"3  c #260040",
"4  c #2B0144",
"5  c #2F0843",
"6  c #2E0048",
"7  c #320246",
"8  c #330C44",
"9  c #33014B",
"0  c #3A014D",
"q  c #3B0C4B",
"w  c #3A0845",
"e  c #361446",
"r  c #3A1446",
"t  c #371448",
"y  c #3C154A",
"u  c #3F194C",
"i  c #3D0151",
"p  c #3A0B52",
"a  c #3B1552",
"s  c #43034D",
"d  c #470849",
"f  c #530C4B",
"g  c #431244",
"h  c #42164C",
"j  c #4B124C",
"k  c #41184D",
"l  c #461749",
"z  c #55164E",
"x  c #440255",
"c  c #4A0254",
"v  c #460258",
"b  c #4B015B",
"n  c #470B54",
"m  c #52005E",
"M  c #570A56",
"N  c #421553",
"B  c #441953",
"V  c #4C195C",
"C  c #4A1558",
"Z  c #571757",
"A  c #670D56",
"S  c #62175B",
"D  c #701254",
"F  c #492257",
"G  c #532657",
"H  c #522853",
"J  c #550062",
"K  c #5A0165",
"L  c #5D016A",
"P  c #580D65",
"I  c #4E1A61",
"U  c #4E1661",
"Y  c #531562",
"T  c #551D61",
"R  c #63026D",
"E  c #640968",
"W  c #691A65",
"Q  c #761765",
"!  c #690373",
"~  c #660471",
"^  c #730868",
"/  c #592867",
"(  c #552F63",
")  c #6A2769",
"_  c #67386A",
"`  c #7A2A74",
"'  c #6B3978",
"]  c #773577",
"[  c #702B6F",
"{  c #612E59",
"}  c #77447D",
"|  c #79547D",
" . c #6D4770",
".. c #901B6C",
"X. c #8C2D76",
"o. c #A5287A",
"O. c #B92A7F",
"+. c #C0287F",
"@. c #82447B",
"#. c #7B4888",
"$. c #7B5189",
"%. c #6E4182",
"&. c #9C2D84",
"*. c #8B3684",
"=. c #9E3B93",
"-. c #903185",
";. c #A23786",
":. c #B2308A",
">. c #BB3FA1",
",. c #C72C87",
"<. c #CC2E8B",
"1. c #854787",
"2. c #96478B",
"3. c #895487",
"4. c #875794",
"5. c #985A99",
"6. c #994D94",
"7. c #A84898",
"8. c #B74799",
"9. c #A3579A",
"0. c #AC4C91",
"q. c #98679A",
"w. c #8B6895",
"e. c #A4659D",
"r. c #B94AA5",
"t. c #AA5BA3",
"y. c #B859A8",
"u. c #BF57B0",
"i. c #9967A5",
"p. c #9D70A9",
"a. c #AB66A5",
"s. c #B569AB",
"d. c #AA76A7",
"f. c #B474AD",
"g. c #BD68B2",
"h. c #BB7CB4",
"j. c #B977B6",
"k. c #AA78B5",
"l. c #C3439C",
"z. c #C74AA6",
"x. c #C455AA",
"c. c #C65BAA",
"v. c #D359AD",
"b. c #C85AB2",
"n. c #D95AB8",
"m. c #C74FB1",
"M. c #C665AC",
"N. c #C767B6",
"B. c #D768B8",
"V. c #C676B9",
"C. c #D873BD",
"Z. c #EA6BBE",
"A. c #E368BA",
"S. c #E370BE",
"D. c #B77EC2",
"F. c #DC5DC2",
"G. c #E159C2",
"H. c #DD63C5",
"J. c #D669C4",
"K. c #DC6CCB",
"L. c #D668C4",
"P. c #CA7AC1",
"I. c #DC73CC",
"U. c #D977C5",
"Y. c #D772CF",
"T. c #E56DC0",
"R. c #EC6CC2",
"E. c #E269CC",
"W. c #E571C2",
"Q. c #E67AC8",
"!. c #E869D5",
"~. c #E277D3",
"^. c #F37AD7",
"/. c #B987BA",
"(. c #B289B4",
"). c #C586BC",
"_. c #BF8DC0",
"`. c #C584C4",
"'. c #C58CC4",
"]. c #CB87C6",
"[. c #D38BCC",
"{. c #D685C9",
"}. c #C897C8",
"|. c #D293CD",
" X c #DC8CD4",
".X c #D98DD3",
"XX c #CE95D3",
"oX c #DA93D4",
"OX c #D49CD3",
"+X c #DB9AD6",
"@X c #DD9CD9",
"#X c #D694D5",
"$X c #C38FD1",
"%X c #E787D8",
"&X c #E29CDC",
"*X c #E696DC",
"=X c #F38FDD",
"-X c #DCA5DA",
";X c #D8A6D7",
":X c #D0A9D1",
">X c #E2A4DD",
",X c #E4AADC",
"<X c #E1B4DD",
"1X c #EC9CE5",
"2X c #EF96E4",
"3X c #F59CEA",
"4X c #F797E8",
"5X c #FD9DF2",
"6X c #F38CE5",
"7X c #DAA8E3",
"8X c #EBA4E4",
"9X c #E3ABE3",
"0X c #E8A9E7",
"qX c #F6A9EC",
"wX c #E8B6E7",
"eX c #F2B3EE",
"rX c #F2BAEC",
"tX c #FDACF5",
"yX c #FDA6F5",
"uX c #ECB3F2",
"iX c #EBBCF3",
"pX c #F5B5F3",
"aX c #FBB6F5",
"sX c #F6BBF5",
"dX c #FBBAF6",
"fX c #FEB3F9",
"gX c #F5BDF9",
"hX c #FBBBF9",
"jX c #EAC6EA",
"kX c #F2C9EE",
"lX c #FAC3F4",
"zX c #F5CCF3",
"xX c #FACDF6",
"cX c #FDCDFA",
"vX c #F6C4F8",
"bX c #F5D3F4",
"nX c #F9D2F6",
"mX c #FCD4FC",
"MX c #FDDCFE",
"NX c #F5D5FA",
"BX c #EECEF3",
"VX c #FAE1FC",
/* pixels */
"      .           .   .         O F 7X_ C z C e.XX;Xh.-X,Xe.9.j.a.f.>X-X/.OXh.+X;XOXXX-XXXF + o         .       .               ",
".   . . . . . . .   .   . . . . 2 i.vXa.Z Z j.vXrXf.'.eXrX9.f.aX,X/.rXlXsX|.sXOXvXsX'.sXvXi.3 o o o o o .   o o . o o . . o     ",
". . . . . . . . 2 . . . . 2 . . a 7XgXpX` 2.pXdXdXs.].eX,XeXd.rXxX).).sXdXwX>X@X9XsXeX-XsX7Xa O o o o . 2 . . o o . o . . o o o ",
". . . . . . 2 . . . . 2 . . . . ( iXgX0X].&X`.dXhX).).sXlXxXrXlXxXxXd.sXsXsX'.pX|.dXdXXXsXgX%.2 o . o o . o 2 . o o o o o o o o ",
"2 . . 2 . . . 2 . . . 2 . . . . $.vXgX@X[.#X9.eXsX,XkXxXnXxXnXxXxXcXwX9XsXlXpX9X&X0XdXpX$XgXi.3 o 2 2 . 2 . o o o o o 2 o o o + ",
". . . 2 . . . . . 2 . . . 2     i.gXgX#Xs.3.X.,XxXxXbXbXbXbX<X(.(.wXlX/.sXsXsX`.pXj.sXsX9X0X/.9 O o o 2 2 o o O o o 2 2 o o o o ",
". . 2 . 2 . . 2 . 2 . .   . . o k.gXvX].a.h.,XzXnXbXbXbXbXbX}. .z @.d.e.wXsXpX-X9X@X@X1XhXXX.XU 2 o 2 o . o o o o o o o o o o o ",
". . . . . 2 . . . . 2 . . .   O k.gXhXh.f.cXcXnXnXnXbXbXbXbX(.@.rXmXcXlX9XsXgXgXoXuX|.oX0XfX$XT $ O 2 o o o o o o o o O o o o o ",
". . 2 2 2 . 2 . . . . 2 . . .   p.gXhXj.f.cXnX<X(.:XbXbXbXbXbXbXkXkXnXxX-XgXsXsX[.hX`.qX].pXpX$.$ O o 2 o O o o o O O O o o o o ",
". . . . 2 2 . . . 2 . . . . . . $.gX@XuX'.cXnX}.@.(.BXbXbXbXbXbXbXkXzXmX-XgXsXsXOXhXeX@XeXP.hX0X' 4 O O O o + O o O o O O o o o ",
". 2 . 2 . 2 . . . 2 . 2 2 . . o ' gX.XpXOXcXq.{ (.<XjXbXbXbXbXbXbXbXbXnX-XsXsXsX@XdXpX@XpX#X1XpXuX#.4 X o o o o o O o o o o 2 O ",
". . . 2 2 . . 2 2 . . . . . . O a uX&XpX@XwX@.rXbXbXbXbXbXbXbXbXbXbXnXnX;XsXsXsX+XdXpXoX0XhXP.1XP.eX#.4 O O o O o O O O o O O O ",
"2 . . 2 . . . . . . . o . o . o % /.pX0XrXM.lXnXkXbXbXjXbXbXbXbXbXbXbXnX-XsXsXsX+XgXsX8XP.fX X Xj.`.0X#.3 O O O O o o O O O O o ",
". 2 . 2 2 o o o 2 2 o o o o o o O ' gX&XaX[.,XlXkXbXbXbXbXbXbXbXbXbXnXnX-XsXsXdX].pXfXpXg.3XyXj.1X) `.uX$.6 $ O o O O O O o o O ",
". o . . . o o . o o o o 2 o o O O a uX|.aXqXM.lXkXbXbXbXNXbXzXkX:X<XnXzX-XsXsXdXN.qXpXpXP.I.fX]. X6.n k.uXi.8 $ O O o + O + O O ",
"o o o . o o 2 2 o o o o o O o o O $ 4.eX+XaX).oXbXbXbXbXbX<X}.:XkXnXbXzX-XsXpX8Xg.yXhXhX%XY.3XyXg.1XW s 4.0Xq.7 X O O o O O O + ",
"o 2 o o 2 2 o o o o O o o O 2 O o $ N 9X#XfX1XP.cXnXnXjX:XjXbXbXnXbXzXjX-XsXdXV.g.4XhXpX%XY.~.yXP. Xg.n w [ XX5.6 3 O O O X O O ",
"o 2 o o o O o o 2 o O 3 $ O X O O O C `.8X XfXV.,XxXnXnXbXBXbXbXbXbXnX<X-XpXfX7.b.4XaXfX6XK.~.6X5XP.yX6.- 7 _ 7X4.4 $ 2 O O O O ",
"o O O O $ O o o o O a 7X$.(.a $ $ $ j pXP.&XtX1Xa.lXxXbXbXbXbXbXbXbXnX:X-XdX2X7.r.3XfXpX%XY.!.!.5Xg..XyX1.: - C 7X$.6 $ $ O $ O ",
"o O / I 4.%.O O o O 2 w.wX}.7Xq.w.w V pXP.U.].pX{.g.rXmXnXbXbXbXbXNXmX|.>XhXu.N.7.2XhXhX~.K.!.!.!.4XN.6X1X] - 7 / OXI 3 $ $ $ $ ",
"o X [ t.1.XX8 X O O O & p.7X:X-XwX).@.dX XN.2X[.yXU.t.[.dXmXnXnXbXbX,X_ +XaX8.B.x.3XpXaXJ.E.!.!.!.^.K.K.3XoX) w % #.$Xn $ $ $ $ ",
"5 % 0 a.X.[.1.B $.$ X O @ 5.pXh.+X>XdX).U.t.9.1XV.yXI.u.2.s.0XvXxX).1 X.*XfX7.b.c.yXhXhXg.I.K.K.Y.Y.K.u.Y.5X XT - q #XT 4 $ 3 % ",
"0X] w ` N.X.{.1.vXa O O $ - ] 7.B.c.M.M.qXdX|.s.8X{.yXI.B.r.N.X.D 1 0.)..XfX7.8.b.yXfXpXa.@X8XqX1X1XN.r.J.I.5X*XZ s 1.i.w % 4 $ ",
"2.{.X.Q B.8.N.g.gX} X O _ [ A 2.S.S.z.{.C.V.dX).,X&X*X5XE.E.m.:...8.Z.R.N.yXc.u.N.fXpX;XwXMXNX:X/ V Z ` u.J.Y.4Xg.z Z `.s 7 4 % ",
"A X.N.8.l.A.l.M. X).* % 1.N.g.o.8.v.A.v.S.M.M.dX).,X*X%X6XI.E.z.M.S.R.R.B.%X5XC.N.fXpX}.NXMXjXH g h j d m u.K.K.4X9.W .Xn 9 7 4 ",
"N.y.x.>.v.A.z.c.o.,X[ * : Z y.B.A.A.A.l.Z.Z.B.C.lX[.a.V.5X%XE.E.l.R.R.R.A.b.tX%Xg.*XhXOXMXMX| r h h h h n [ H.K.J.6X`  Xn 0 0 7 ",
") 9.B.A.Z.Z.Z.A.8.C.-Xj * - d ..v.Z.Z.Z.Z.Z.Z.v.C.=X{.{.N.qX~.E.B.v.R.n.z.8.7.qX%Xy.eX-XMX:Xe y h h h h h M r.F.H.K.2Xa.M c s 0 ",
"- Z M.S.Z.Z.Z.n.A.U.eXj.- - 1 A X.B.v.A.M.v.A.B.v.c.C. X[.P.6XK.v.z.R.R.S.x.y.V.4X{.9.rXxXG y l h h h h h j X.H.H.H.%X*.S M c s ",
"$ * S N.W.Z.R.A.Z.A.qX`.: s f D 0.3Xc.b.U.C.S.v.A.S.C.V.mXe.%XI.m.:.v.W.x.B.1XtX[.].pXk./.g h h h k h h h j Q K.F.F.L.4XW E M c ",
"O X % ) C.Z.R.R.R.T.=Xa.z d A D 0.=XI.B.qXqXN.M.S.C.s.V.kXnX[.=XJ.8.;.%X0.g.a.pXpX/.-X'.G g h h k h h h h N M N.H.F.F.6X=.E E m ",
"X O $ - *.C.T.z.v.v.B.2.s.z D ..o.%X%XJ.B.2XcXrX).).f.dX;X;XV.qXB.I.M.e.V.].pXpX}.mXMX:Xy h h h h u h h h j M u.F.F.>.~.N.E E R ",
"O O $ $ w ;.x.B.R.B.M.|.mX2.D ..o.B.5XK.J.M.,XmXVXVX<X(.d.'.) 1.V.P.dXOX;X;X9X'.MXMXMXw.l h q r h h h h u j n 7.F.F.&.n.Y.E E ~ ",
"O $ X $ 4 j.y.U.S.M.).nXVX<X....:.:.yXQ.B.B.) }.MXVXMXzXd./.iX' ` |.wX/.}./.jXMXVXVXVX .r < r h h k h k u j Z 7.F.F.>.=.~.R ~ ! ",
"O O $ $ % T a.y.C.,XVXVXVXVXO.o.O.,.T.4XH.b.f g  .| |  .G G w.}.' 3.q._.wXMXMXMXVXVXNXF < r h h h h h k y j ` 7.F.F.m...L.R R R ",
"$ $ $ % 4 q 0XmXmXMXVXVXVXVXdXo.,.<.,.%X=X*.d g ; = = = : h l l ( l | MXMXMXVXVXVXVX:X, r k h k h h h k y h ] =.F.F.m.^ r.E R J ",
"$ $ 4 % % $.NX(.OXnXVXVXVXVX[.X.+.<.,.:.r.Z g y r r = , r y h k l l u 3.MXVXVXVXVXVXw.< y k N k k k k y y w ] =.m.n.>.R *.m K m ",
"3 4 3 4 a iXjX;X).zXMXVXVX/.H Q O.,.,.O.Q h h h g y _ F h h h h k h h u F { (.VXbXw.r k u h h h k u h y , = ] =.r.n.&.A J m m b ",
"6 3 3 4 F vX}._.h.wXMXjXq.< g A o.+.:...f j k h h h } /.h h h g h u l h r , , _ ( y r k u N h h y u y r # * ] -.r.m.^ m b b b v ",
"6 3 6 6 9 p.vXwXvXd._ & ; y h f Q &.o.A j h k h h k k j j j k l h y y h g r > e y y u h h h h y u h r ; # * ] *.z.&.m c v x x i ",
"6 6 6 6 4 p $X;XT n n r y k N B M W W c C h h h k k h Z z j l k h h h h u y e e h r h h h y y y r y e # @ * 1.X.u.Q s i i i i i ",
"6 9 9 9 0 0 Z Y i v n C C N N B f C j h h N N k k j j z f z 1 g h l u u y y y e y g u u h u h u y e # @ # % 4.W *.*.s n x 0 0 0 ",
"0 i i x x x b v b J L Y V V V B C B u 8 y h k N k B j S S f z j h y y u h h l e y y r r r y y y r & @ @ @ - i.P x ` x 0 0 9 9 0 ",
"i x v c b b m J L L L ~ Y U C B B B B r e k B k B l j z j z z f d h r h g y k y h y h y u y y r & @ @ @ @ % i.v 0 s Z 0 7 9 0 0 ",
"b b b b m J K K L ~ ! ! L Y V B C B B u r k k B k k B h l l z g y r g h k y y k y y y y y y r & @ @ @ @ @ ; C 0 9 9 0 0 9 9 9 6 ",
"m m J J J K L R L ! ! ! ~ P Y C V F V B r k B y u y l u y g f : : g g : g g y y y y h y y y , @ @ @ @ @ @ 8 9 9 9 9 i 9 9 9 0 6 ",
"J J K K L R R R ! ! ! ! ! E Y V C V V C B N h r 8 ; , , ; = g : = : z : < r y u y y y y r , @ @ @ @ @ @ @ t 9 9 6 9 6 9 9 9 p 0 ",
"J K K K L L L R L R L R ~ E P Y I V V V V B C y ; ; > > & = g : = = z : = , < u y y y r , @ @ @ @ @ @ @ @ 5 9 9 0 9 0 9 9 6 6 4 ",
"K J K K L L L L L L L K K P P Y I I V V V V V C q 8 ; ; & & g : # * g : # # , r y y r 8 @ @ @ @ @ @ @ @ $ p 9 9 9 9 9 4 4 3 3 4 ",
"J J J J K J J J m m K b b b b Y Y I I I V V U n 0 a 8 8 & ; ; # # @ = = @ @ @ > e u @ @ @ @ @ @ @ @ @ X 5 4 % 4 4 4 3 4 4 4 $ $ ",
"b m J b m m b b b b b b v v v v Y U I I I V n i 0 9 q 8 ; & & & @ @ = # @ @ @ @ @ @ @ @ @ @ @ @ @ @ @ @ t 4 $ 4 $ 4 4 $ 4 4 5 4 ",
"b b b b v v v v i v i i i i i i i U I V U N 0 6 4 9 9 8 a 8 & # # @ @ @ @ @ @ @ @ @ @ @ @ @ @ @ # > e e q $ 4 4 4 4 4 p 9 9 4 4 ",
"v v x x x x i i i i i v i i 9 9 0 p I I n 6 6 6 7 9 6 9 8 8 > & # # # # @ @ @ @ @ @ @ @ @ @ X > e e e r 8 4 4 5 6 6 9 6 6 7 4 4 ",
"i i 0 x 0 i i 0 0 0 i i i 9 9 9 6 9 9 9 6 7 6 4 4 6 6 4 4 y & > , > > @ @ @ @ @ @ @ @ @ @ @ > t e r y t 5 4 3 $ 4 4 3 $ 3 $ 4 4 ",
"i 0 9 9 0 0 9 9 6 9 9 9 9 9 6 9 6 6 6 6 4 6 6 6 4 6 9 6 9 q e 5 < u u , > > > @ @ @ @ @ @ > e t r e t y 8 4 % $ $ $ 4 3 $ $ 3 3 ",
"0 9 9 9 6 9 9 9 9 6 6 6 6 6 6 6 6 5 6 4 9 9 9 9 9 9 9 9 9 N a 8 , u u e u e e , , , > > e e t e r r y t 7 % 5 4 $ $ $ 3 4 3 $ $ ",
"6 6 6 9 9 6 4 9 6 6 6 6 6 4 6 6 4 6 6 9 9 i 9 9 6 6 6 4 8 N N r > , u e e u e e e e e e t u t u y y e t 5 $ $ 4 4 $ $ $ 3 3 4 4 ",
"9 4 9 6 6 6 6 6 6 6 6 6 6 6 6 9 6 6 6 6 6 6 4 $ 3 % 4 6 y N h u e > e u e u e e e e e u e e e e y y u t 5 $ $ 4 4 5 3 3 4 6 9 p ",
"4 4 6 6 6 6 9 6 6 9 9 6 9 9 6 6 6 4 6 3 4 3 4 4 $ $ 4 p N a u u u , , e e e e u e e e e e u u e e y t t % 4 $ 3 3 6 p 6 6 4 3 3 ",
"4 4 6 9 6 6 9 6 6 9 6 6 3 6 6 3 4 $ 4 3 3 4 4 4 4 7 a N N h u y u e , e e u e e t u e y e e e u t y y t 0 9 4 4 5 6 6 6 3 $ 3 O ",
"6 9 6 6 6 6 6 6 4 4 4 4 3 6 3 3 4 $ 3 3 4 4 4 4 6 q B B N N u u u e e e t e e u e t r y u e e e e t t y 9 i 9 3 $ $ $ 3 4 $ $ O ",
"6 6 6 4 6 4 4 3 3 % 4 $ 4 3 6 6 6 4 6 6 5 6 4 4 7 N N N k k u y y y u t e e u e t t y y e u e e e e t y $ 4 7 3 $ X $ @ 4 4 3 $ ",
"6 6 6 3 3 3 3 3 4 4 $ 4 4 6 6 4 4 4 4 4 3 $ % 4 a B a y u u r y t t t t e e e e e e e e t t t y e t t t $ $ 4 5 $ X X X X 3 5 $ ",
"4 4 3 3 4 6 4 4 4 4 4 6 4 $ 3 3 4 4 4 $ 3 3 4 p N y r r y e u r y r u t e e e u e e y r e e t t e e t e $ $ $ $ $ $ X X X + $ 3 ",
"3 3 4 3 3 3 6 6 6 6 4 4 3 4 3 2 $ $ $ $ $ $ a N y y e 8 r e y e y e e u e e e e e e e e t e t t t t e 8 @ X X $ 4 $ X X X X $ $ "
};
