/* XPM */
static char *Picsart_24_05_20_16_41_08_4611716213593[] = {
/* columns rows colors chars-per-pixel */
"64 63 244 2 ",
"   c #0E003D",
".  c #14003D",
"X  c #1A003B",
"o  c #270B33",
"O  c #290C35",
"+  c #24003C",
"@  c #2A013D",
"#  c #2E0D3B",
"$  c #310A36",
"%  c #320D3C",
"&  c #390739",
"*  c #32123E",
"=  c #2F103C",
"-  c #480438",
";  c #4C083E",
":  c #180543",
">  c #260040",
",  c #2B0143",
"<  c #2E0148",
"1  c #2F0D4A",
"2  c #320245",
"3  c #350D43",
"4  c #33014B",
"5  c #3A004D",
"6  c #360D4B",
"7  c #3B0C4C",
"8  c #390743",
"9  c #361445",
"0  c #3A1445",
"q  c #3B1846",
"w  c #3C164A",
"e  c #3E184B",
"r  c #371548",
"t  c #3C0151",
"y  c #3C0955",
"u  c #3E1453",
"i  c #391958",
"p  c #460A4A",
"a  c #540D4D",
"s  c #590B45",
"d  c #42164C",
"f  c #4A124C",
"g  c #42184D",
"h  c #4A1546",
"j  c #53134C",
"k  c #5B134A",
"l  c #430155",
"z  c #4A0056",
"x  c #4B015A",
"c  c #460A57",
"v  c #52015E",
"b  c #550E56",
"n  c #431553",
"m  c #4B1453",
"M  c #451953",
"N  c #4B195B",
"B  c #491859",
"V  c #55165A",
"C  c #630C4A",
"Z  c #67134D",
"A  c #681955",
"S  c #6C1154",
"D  c #5B2555",
"F  c #51295A",
"G  c #68295A",
"H  c #550061",
"J  c #5B0165",
"K  c #5E0169",
"L  c #580D65",
"P  c #4F1662",
"I  c #521462",
"U  c #581463",
"Y  c #4D0C60",
"T  c #63026D",
"R  c #66066B",
"E  c #6B0273",
"W  c #670371",
"Q  c #720275",
"!  c #740379",
"~  c #790677",
"^  c #71126F",
"/  c #582867",
"(  c #542F65",
")  c #682767",
"_  c #653A6A",
"`  c #792877",
"'  c #693878",
"]  c #793778",
"[  c #762B6A",
"{  c #6A4577",
"}  c #7C4576",
"|  c #784D76",
" . c #86165B",
".. c #8E1772",
"X. c #98347C",
"o. c #8A2D77",
"O. c #A9256D",
"+. c #A83B7C",
"@. c #C52F79",
"#. c #824D7B",
"$. c #7C2981",
"%. c #7B4884",
"&. c #76518E",
"*. c #99398A",
"=. c #93338B",
"-. c #A73A8A",
";. c #A93897",
":. c #B43990",
">. c #D63F8C",
",. c #884887",
"<. c #895488",
"1. c #94578D",
"2. c #9B5B97",
"3. c #934E91",
"4. c #A64696",
"5. c #B4439A",
"6. c #A7599A",
"7. c #B7559C",
"8. c #9A6A9A",
"9. c #8E619C",
"0. c #A3649A",
"q. c #B849A3",
"w. c #B757A7",
"e. c #BE5FB1",
"r. c #9B66A4",
"t. c #A769A5",
"y. c #B669AA",
"u. c #AA74A7",
"i. c #B474AD",
"p. c #A976B4",
"a. c #BA78B5",
"s. c #B76BB2",
"d. c #D5438E",
"f. c #CA4891",
"g. c #E14793",
"h. c #C64AAA",
"j. c #C352AB",
"k. c #CC4AB3",
"l. c #D14CB5",
"z. c #C958B5",
"x. c #D75ABA",
"c. c #D656AD",
"v. c #C968BA",
"b. c #D362BD",
"n. c #DA69B9",
"m. c #C579BC",
"M. c #D26EB6",
"N. c #E368BF",
"B. c #BA7CC0",
"V. c #DD63C4",
"C. c #D36BC4",
"Z. c #DC6DC9",
"A. c #D667C4",
"S. c #C87CC2",
"D. c #DB73CC",
"F. c #DB7BCC",
"G. c #D477C7",
"H. c #D874CB",
"J. c #EC6EC4",
"K. c #E26BCD",
"L. c #E665CA",
"P. c #E374CA",
"I. c #E56BD3",
"U. c #EA67D4",
"Y. c #E677D3",
"T. c #F06EC6",
"R. c #E15EC5",
"E. c #B888B7",
"W. c #AB88AF",
"Q. c #C485BC",
"!. c #D481B9",
"~. c #BA87C3",
"^. c #BE90C1",
"/. c #C583C2",
"(. c #CB83C3",
"). c #C58DC4",
"_. c #CC8CC9",
"`. c #D688CA",
"'. c #CD93CA",
"]. c #CD9BCB",
"[. c #C696C7",
"{. c #D294CD",
"}. c #D39BCC",
"|. c #D98BD3",
" X c #C794D2",
".X c #D494D1",
"XX c #DC9BD5",
"oX c #D49BDA",
"OX c #DC9BDA",
"+X c #D897D5",
"@X c #C68ED0",
"#X c #E489D9",
"$X c #E59ADD",
"%X c #ED86CD",
"&X c #D6A2D3",
"*X c #DCA4DB",
"=X c #DAA7D6",
"-X c #DCB4DB",
";X c #CEA7CE",
":X c #E4A7DC",
">X c #E1BCDF",
",X c #F38BE7",
"<X c #EC98E4",
"1X c #F49BEA",
"2X c #F598E9",
"3X c #F592EA",
"4X c #DBA7E5",
"5X c #DFB9E1",
"6X c #EBA4E4",
"7X c #E5ABE3",
"8X c #E9A8E8",
"9X c #F4A7EC",
"0X c #EDB2EC",
"qX c #EEBCEC",
"wX c #E6B5E5",
"eX c #F3BDEE",
"rX c #F5B4EB",
"tX c #FDA4F3",
"yX c #FCACF4",
"uX c #FEACF9",
"iX c #F5ABF4",
"pX c #EDBAF6",
"aX c #F5B6F2",
"sX c #FBB4F5",
"dX c #F5BBF4",
"fX c #F9BAF6",
"gX c #FEB4FA",
"hX c #F3BCF9",
"jX c #FBBCFA",
"kX c #EAC6E9",
"lX c #F1C6ED",
"zX c #FBC5F6",
"xX c #F5CCF2",
"cX c #FACEF6",
"vX c #FFC4FA",
"bX c #FECCFB",
"nX c #F6C3F2",
"mX c #F5D3F4",
"MX c #F8D1F5",
"NX c #FDD3FC",
"BX c #FDDBFE",
"VX c #F7D1F8",
"CX c #EBC8F0",
"ZX c #FBE1FD",
/* pixels */
"          :                   .  XjXhX_.S./.aXjX#X|.Q.dXqX}.>XNXqX0.dXdXfX7XjXa.fX8X'.zXp., . . : . :                           ",
"      :                       i pXhX8X$X$X(.0XdXOXa.7XbXNXMXcXcXNX].wXfXdX'.hX0X7XjX.X0XwXN . . :       .                       ",
"        :                   . F pXhX6X(.a.i.E.zXnXnXcXMXmXmXcX>XlXzX:XfXhX'.fXaXQ.jX0Xu.hX9.X   : .                             ",
"                :             %.nXdX<X6.6.XXvXcXMXmXmXmXmXmX!.0.E.=X).fXdX8X*XaXa.8XgX+XoX@X, : :   .                           ",
"                              &.nXhX.X6.nXMXMXmXmXmXmXmXmXE.#.D [ #.8.fXdXfX'.jX0Xm.aXjX.X4Xu X                                 ",
"                            . &.pXdXa.a.cXMXMXkXlXmXmXmXmX;Xu.eXNXzX*X8XnXhX.XfXsX_./.fXaX)./ X                                 ",
"      . :                   . ' dXdX+XQ.cXNX>X:XwXMXmXmXmXmXxXmXMXMXqX&XdXdX+XjXfX.X0X+XaX0X' X .   . . .   . . . . .           ",
"    . :       :           . . ( dXdX:X{.xX=X#.D | kXmXmXmXmXmXkXmXMXcX&XdXdX{.aXjXOX|..X8XhXoXN . . .   . . .   .   .   .       ",
"      : :   .               . 3 0XhX4XXXfX_ } >XmXmXmXmXmXmXmXmXmXmXcXXXdXdX.X:XsXsXy.sX|.aXoX Xu : : . . . . . . . . . . . .   ",
"    .                 .   . : X ~.fX+XOXXXu.kXmXmXmXmXmXmXmXmXmXmXMXlX&XdXfX|.|.fXfXs.9XOX8X.XoX@Xu X . . . . . . . . . . . . . ",
". : : .       .               X 9.hX.X9X1.fXMXxXmXmX>XmXmXmXmXmXmXmX&X4XdXfX|.`.sXhX|.F.iXS.8X%.@X@XB : . . . . . . . . . . . X ",
"    . .     . .     .   . . . . / hX_.sXy.XXzXlXmXmXmXmXmXmXmXZXmXMX[.0XdXgXC.F.iXgX3XG.1X<X8X=.V oX~.N X X . : . . . . . . . . ",
".   . . .   .   . . . . . . . . < 4X8X+X6X6.nXMXmXmXmXmXmXxXkXQ.kXmX[.fXdXsXe.D.iXsX1XH.#XyXs.@Xp n @X@Xi : X . X   . X X X . . ",
"    : . . . . . . . . . . : . . X %.pX.XsXi.Q.MXmXmXkX>XkX-X>XlXmXVX].dXsX+X5.Y.9XgX9XC.F.tXS.iX,., B ~.^.B X X X X . . . . X . ",
". .     . . . : . . . . . . . X + u.OX$XsX:X2.MXmXmX>X>XmXmXmXmXmXmX[.fXsX6.j.D.9XgX1XC.Y.,XuX|.OXp + B oXp.3 + . X . .   X X . ",
". . . . . . . X . . . X . . X X + p.a.6XS.gXQ.-XmXmXmXmXmXmXmXmXmXMX'.gXyXw.5.Z.<XgXtXv.I.Y.uXS.uXt., X M 4Xu.o X . X X . X . X ",
". . . . . . . . . . . . . . X X @ E.8Xy.<XiXiXy.rXNXmXMXmXmXmXmXmXNX].gX<Xb.;.A.<XgX1XC.I.I.,XG.#XuX' + @ ' 4X9.> X X . X . : X ",
". . . : . . X . . . X . . X : X < 8X1Xw.C.S.gX<Xy.:XbXcXMXmXmXmXMXxX).gXe.Z.;.z.<XgX1XC.I.U.D.,Xv.iXOXP + @ <.4X/ + X X X X + X ",
". . . X . . . . X . . . . X . + / gX2Xz.A.S.|.gX|.4.v.6XvXbXNXxX=XG 0.gX*.K.k.j.|.uX1XC.U.U.I.,XA.H.uXB., + 2 ~.^.4 + X X X X . ",
". . . . . . X . . . . X . X X , p.gX,Xz.Z.q.G.6XyXF.7.v.y.Q.:X} ; ; 6.gX..V.R.w.3XgX1XG.Y.I.I.I.I.Z.#XuX2.@ + N 8X&.> X X X X X ",
". . X . X . X . X . X . X X + / pXgXY.l.I.z.1X|.9XtXC.z.H.7.- - Z M.7.9X:.x.x.A.<XgX|.y.e.w.e.e.v.A.D.,XiX%., , r.~.3 + X + X X ",
". X . X . . . . . . X X X X , r.aXiXI.k.U.V.F.uX/.9XtXA.z.c...X.n.N.n.n.q.q.h.I.9XgX/.bXvX6Xy.s.=.4.A.D.3X8X' < c 4Xn + X X X X ",
"X X . . X X X X . X . X X + 2 @XgX3XK.h.I.I.C.gXgXs.gX1Xj.j.X.n.J.J.J.n.Y.V.;.P.uX0X].NXBX| p h p a ` v.H.tX<XI & p.&.@ X + X X ",
". X X . X X . X X X X X + @ p _.sX#XK.k.U.I.e.gXgXa.m.sXY.j.h.n.J.T.T.c.z.P.k.P.gX].VXBXE.* g d w d a [ Z.H.3X|.b r.p.@ + X + X ",
"X X X X . X X X X X X o @ 8 / /.uXD.K.l.U.U.z.tXgXa.i..X9X4.:.N.J.T.c.b.c.x.Z.z.iX{.BXBX_ q d d w f d a *.H.Z.tXa.2.~.+ + X + + ",
"X X X X X X X X X X o + & p [ |.gXH.I.l.L.L.A.F.gX+XfXrX<XM.-.c.N.h.N.J.X.*.v.v.,.qXNXE.0 d d d d w d f b z.Z.D.tXS.).@ + + + + ",
"X X X X X X X X X + @ @ p a ] !.uXD.K.R.l.L.K.j.gXaXE.NX'.:X-.5.T.P.`.(.,.G.<X4.v.i.xXF d d d d d d d f b 4.Z.V.#X1X,.+ + + X + ",
"X X X . X X X + + @ & p s C [ M.uX#XL.R.:.L.v.y.iX_.[.dXnX!.7.4.n.%X!.y.$X8X:X:XXXu.#.q d g d d d d d d c A b.V.A.1X3.@ @ + + + ",
"X X X X X + + + @ & p a C S ..7.yX2XV.L.x.;.,.jXXX.X'.u.qX).y.Q.rXvXE.rX_.&X-XBXZXBX8.h d d d g d g n d d a q.V.V.Y.|.5 @ @ , + ",
"X X + + + + + + 2 8 f C S O.O.O.F.tXZ.V.z.b u.NX'.*Xa.wX<.[.a.bXNXzX}.E.E.xXBXZXZXZX_ g d d g d d g d M d b =.x.k.V.<XL 8 2 , @ ",
"o o @ @ % & , # & p a C  .O.@.d.f.gXK.x.S p a.[.E.=X;X].].Q.W.:XbXu.u.-XBXZXZXZXZXkXq h % d d d w w d d d m ^ b.k.k.|.` 8 2 2 , ",
"* M <.9.E.4XwX=X*X'.1.4.O.O.>.g.f.%X%X4.A XX-X&X:XwXbXbXwXNXbXwX[.a.-XBXZXZXZXZXZX;X* * & * 0 0 3 3 e d d m o.A.V.:.F.o.5 2 2 2 ",
"~.wXE.OX:XbXbXcXMXMXrXi.!.+.>.g.d.:.7.#.}.:Xu.&XQ.vX'.'.rXvXcXzXeX0.].E.mXZXZXZXZXW.q * $ $ % % 0 d d d d f -.x.V.;.Z.` t 5 2 2 ",
"a.{.7X:XrXQ.&XxXcXnX>X-XBX!.f.>.d.f.S ] rX1.7X{.0Xi.:X(.!.`.!.:XzX9.qX}.].>XZXZXZX| g * $ * * * d w 0 d d a q.x.x.=.A.^ x t 5 5 ",
"/.+X2.:X#.6.'.vX6Xm.u.cXBXMX%X5.>.[ k ,.G <.:XnXy.!.:X!.0.7.y.7.0.:XzX*XE.{ 8.BXBXF g 8 * $ g g d d g d d b l.R.x...x.` J z l 5 ",
"m.,.$Xt.m.iXeX[.1.M.}.BXBXBXrXX.X.s j V h 0.XX$XG o.[ i.y.i.0.v.zX].W.0.[.CX_ _ W.g d % * d g g d d w d d ` x.l.x...l.~ R v v x ",
"` S.t.V b ) ,.).rXbXBXBXZXmX} [ A a f d f 8.m.3.j s Z A 0.MXBXBXBXZXwXE.^.]._ q e w 3 O % e g w d w w d f =.h.k.h...=.Q T J v v ",
"m ] c 5 p p *XpXu.=XBXZXBX-XM j f f d d d ,.,.s k Z s s ; G u.BXZXBXBX[.g g g e e e 0 # % 0 w e w g d f p 4.h.l.=.~ Q Q W R R T ",
"8 5 5 p l l %.t.).[.BXZXCX{ M M f d d d g d h s C Z C Z Z Z - 1.-XE.| 0 g e d g g g w w 9 9 r r w g g d j 6.:.k...~ ~ Q Q R R J ",
"l 5 l l x x v S.vXoX5XE._ g M M M M 3 0 g g g j C [ G C C Z ; A & % % 0 e e n g e d e e w 3 # # * w d d a w.;.=...~ ! Q E W R T ",
"z z x x J H H $.iX` c 6 w M M B M M w 9 w g M f j k h j Z Z ; G h $ q g g d d d d g d d e e 0 % % r w f V w.;.Q Q ! E E E W K J ",
"v v H J K K T R ^ R L Y M N M B B M g q 3 d g g f h g f G ; - D j ; q e q g d w d g d g d d d w # 9 w f V =.;.W E W W W K K J H ",
"H J J K T E W Q ! Q R I V N N B N M N M 3 0 0 3 0 * 0 & A - - k k & $ * q q g g d d d d d d d w 9 3 e n V ^ =.^ J K J J H x x x ",
"J T T T E E E Q $.! ! T I N B N N N N M d 3 0 % % * % & G - & ; G - $ O * * q g w d w w w d d d w g e p B l R ` x v v x x x x l ",
"K W W W E Q E ! $.! E W U P P N N N N N N p 8 3 % % & * G - $ ; G & $ o o $ * * w w d w w d w d d 0 d M Y l x v x x x x l l l l ",
"K K K W W W W W E E E W R U P P P N I N I / N p 3 % % ; ; $ $ O ; $ $ o O o O $ 0 w 0 d w w d d d d n m t t l t t t t l t t t t ",
"J K J K K K K K J K W K L L U I I V P I Y v v V c 3 % * O O O O $ O o o o o o o O 9 0 d w w w d d d n c t t t t t t t t t t t 5 ",
"H H H H H H H H H v H H H H x Y I P P I l x x x l n 3 = = O O o O O o o O o o o O O q 0 w d w d d n M 4 4 4 4 4 4 4 4 t 4 5 4 4 ",
"x v x x v x x x x x x x x x l l l c l l t t t t t y 6 3 O O O O O O O O o o o o o o O % 0 w w w d n n 4 4 4 4 4 4 4 4 4 4 4 4 4 ",
"x l x l l l l l l t l l l t y l t l l t t t 5 5 4 4 7 3 = O O O O O O O o o o o o o o O 9 w w d u u 5 4 4 4 4 < 2 4 4 4 4 t 5 4 ",
"t t t t t t 5 5 t t t t t t t t t 4 4 t 5 5 4 5 4 2 2 w = = O O o o o o o o o o o o O % 0 r 7 w 7 n 2 4 4 < < < < < < < 4 P c 5 ",
"t t 4 t t t 5 5 t 4 4 4 4 4 4 4 4 4 5 4 4 < < < 4 < 7 n = = q 9 9 9 = = o o o o O * 9 0 w w d w u 7 4 4 < < < < 4 4 5 4 t 4 t t ",
"4 5 4 4 t y 4 4 5 4 4 4 5 4 4 < < < < 4 4 < < < < 6 M e 3 # 0 0 q r q r 9 * 9 9 9 q w 0 r w w u 7 < 5 4 4 y y 4 4 c y t 4 4 < 4 ",
"4 4 4 4 4 4 4 2 4 4 4 4 4 4 4 4 < < < < < < < , < u n e r 3 9 0 r q q q r q 9 r 0 0 w w w r w w 6 < < < < < < < < < < < < < < , ",
"< 4 4 4 2 4 4 < < < < < < < < 4 < < < 4 4 < < 4 n n g g w 9 % r r e q r r q w w q 0 w w w w r w 6 , , , + > , > > > , > , , > > ",
"< < < < < < < < < < < < < 4 < 4 4 4 4 4 4 4 7 u n g d e w w 3 r q q e r w w r w w 0 w 0 w w u w 6 + @ , > > > , , > > , , > , , ",
"4 4 < < 4 < 4 < 2 4 4 4 < 4 < < < < < < , 2 u M M M g d w w 3 9 r q w w r 9 q w 0 w r w r w w w r , , < < < < < < < < < > 1 , + ",
"4 4 < < < < < < < , < , < > < < , > > , , u M n e e d d e w r 9 r w w w r r r w w w 0 q r r q u w , < < < > > , > < < < > > + + ",
"< , , , > > > , > > , > > > > > , , , > u M g d e e d w w w w r w w w r r r r w 0 0 w q r r q w 6 , , , > + + > < + + + , + + + ",
", > > + , > > > > , > , , > > < , , , w n g d g e e w w w w 0 w q w r w r r 0 r 0 r w q r r r r r @ + + > + + + + + > + + + + + ",
", > , > , > , > < , < < < < < 1 , , 6 M M g n r r r w r 0 w r r w q r r r r 9 r r r r 9 r r r r 6 + + + + , , + + + > > + + + + ",
"< , , , , , , < , , , , , + > > + , u n M n d w 3 9 r 0 w r w w w 0 9 r r r r r 9 r 9 9 9 r r 0 3 , @ + + @ , @ > > > < , + > , ",
"> < > > + + > > , > > + + + + + + w n n e w e e w % 3 0 9 r 9 9 r r r 9 9 9 9 9 9 9 r 9 9 r 0 w r , 2 , > > 4 y y 4 < < 4 y < < "
};
