/* XPM */
static char *Picsart_24_05_20_16_40_06_9821716213380[] = {
/* columns rows colors chars-per-pixel */
"64 64 241 2 ",
"   c #0B002E",
".  c #16002E",
"X  c #19002F",
"o  c #0B0132",
"O  c #120032",
"+  c #1C0034",
"@  c #150139",
"#  c #1D003A",
"$  c #220136",
"%  c #270B33",
"&  c #2A0C35",
"*  c #24013B",
"=  c #29013E",
"-  c #2D0E3A",
";  c #270438",
":  c #320B37",
">  c #320D3B",
",  c #3B0C3A",
"<  c #3D0737",
"1  c #32123F",
"2  c #3D113E",
"3  c #2F103C",
"4  c #47073B",
"5  c #5A043C",
"6  c #42123F",
"7  c #260140",
"8  c #2B0143",
"9  c #2E0349",
"0  c #2F0C41",
"q  c #330145",
"w  c #330D42",
"e  c #34024A",
"r  c #3B014C",
"t  c #3C0C4B",
"y  c #380B46",
"u  c #351343",
"i  c #3A1446",
"p  c #3B1549",
"a  c #3E184C",
"s  c #3E0051",
"d  c #3E1651",
"f  c #2D1040",
"g  c #44084B",
"h  c #5C0B43",
"j  c #530847",
"k  c #421545",
"l  c #4B1043",
"z  c #43164C",
"x  c #4B144D",
"c  c #44184D",
"v  c #4A194E",
"b  c #431845",
"n  c #54134B",
"m  c #59164B",
"M  c #440154",
"N  c #490156",
"B  c #450058",
"V  c #4D015B",
"C  c #460C55",
"Z  c #51015D",
"A  c #560D55",
"S  c #441552",
"D  c #431952",
"F  c #4A1B53",
"G  c #491B5A",
"H  c #4B1656",
"J  c #581955",
"K  c #640D45",
"L  c #63124B",
"P  c #68144C",
"I  c #671B56",
"U  c #6D1452",
"Y  c #4B2559",
"T  c #562659",
"R  c #5A224F",
"E  c #682459",
"W  c #79245D",
"Q  c #550161",
"!  c #5A0265",
"~  c #5E0269",
"^  c #541863",
"/  c #62036B",
"(  c #6E016E",
")  c #6B0673",
"_  c #760578",
"`  c #701B69",
"'  c #5C2563",
"]  c #5D3365",
"[  c #682868",
"{  c #68386B",
"}  c #723D6C",
"|  c #693573",
" . c #763977",
".. c #6F2571",
"X. c #784879",
"o. c #6E4776",
"O. c #850776",
"+. c #921272",
"@. c #AA1976",
"#. c #8B327A",
"$. c #85497C",
"%. c #80517D",
"&. c #7D0983",
"*. c #742E87",
"=. c #7C4F82",
"-. c #870585",
";. c #9A1894",
":. c #940E8A",
">. c #A40B94",
",. c #A81598",
"<. c #B31991",
"1. c #8F3488",
"2. c #A43288",
"3. c #A83E93",
"4. c #B53899",
"5. c #AC2791",
"6. c #B326A1",
"7. c #C6329A",
"8. c #CD2898",
"9. c #CB2EA4",
"0. c #8A4885",
"q. c #98478A",
"w. c #865789",
"e. c #954892",
"r. c #915592",
"t. c #AC4996",
"y. c #B7489B",
"u. c #A7579A",
"i. c #B04E96",
"p. c #976798",
"a. c #916B94",
"s. c #A5639C",
"d. c #A9709D",
"f. c #B84BA5",
"g. c #B856A6",
"h. c #B254A9",
"j. c #976AA3",
"k. c #9E72A8",
"l. c #AB6AA8",
"z. c #B567A9",
"x. c #A778A7",
"c. c #B377AD",
"v. c #BB65B4",
"b. c #A97AB2",
"n. c #B978B6",
"m. c #AE6AB3",
"M. c #C451AD",
"N. c #C159AC",
"B. c #C55AB4",
"V. c #D858BA",
"C. c #C74BAD",
"Z. c #C46BBA",
"A. c #C968B8",
"S. c #D567BB",
"D. c #C77ABD",
"F. c #D674B9",
"G. c #D25DAE",
"H. c #BB7EC1",
"J. c #DF5CC1",
"K. c #E25CC3",
"L. c #DB63C3",
"P. c #D36AC4",
"I. c #DC6CCB",
"U. c #D767C5",
"Y. c #CA79C4",
"T. c #DB74CD",
"R. c #D87ACB",
"E. c #D676CD",
"W. c #EC6DC5",
"Q. c #E367C8",
"!. c #E773C5",
"~. c #E56AD2",
"^. c #EB67D5",
"/. c #E476D3",
"(. c #B985B9",
"). c #BB92BC",
"_. c #B087AE",
"`. c #C388BD",
"'. c #D581BF",
"]. c #BC88C5",
"[. c #BE98C9",
"{. c #C889C6",
"}. c #D685CC",
"|. c #C997C7",
" X c #D398CD",
".X c #DA88D3",
"XX c #C898D5",
"oX c #D898D5",
"OX c #CD8FD0",
"+X c #E786D8",
"@X c #E49DDD",
"#X c #E694D9",
"$X c #EC91D4",
"%X c #CAA7C9",
"&X c #D2A5CD",
"*X c #DCADDC",
"=X c #D8A6D7",
"-X c #DBB6DB",
";X c #CFA6DE",
":X c #E2A8DD",
">X c #E3B4DE",
",X c #E98AE2",
"<X c #F388E3",
"1X c #E99AE3",
"2X c #F49DEB",
"3X c #F692E9",
"4X c #FF9AF8",
"5X c #DBAFE2",
"6X c #EAA8E6",
"7X c #F3A3EB",
"8X c #F6AAEC",
"9X c #E3B3E2",
"0X c #EAB8E9",
"qX c #F2B7ED",
"wX c #FEA3F5",
"eX c #FBADF4",
"rX c #FFADFC",
"tX c #F6ACF4",
"yX c #FCB5F6",
"uX c #F5BBF4",
"iX c #F9B9F6",
"pX c #FFB3FB",
"aX c #F8B7F5",
"sX c #E9BDF0",
"dX c #ECC2EB",
"fX c #EAC8EA",
"gX c #F3C6EE",
"hX c #EEC6F1",
"jX c #FDC4F5",
"kX c #F4CCF3",
"lX c #FACDF5",
"zX c #FDCCFB",
"xX c #F7C6F6",
"cX c #F5D3F3",
"vX c #F9D1F5",
"bX c #F7D2F9",
"nX c #FCD3FC",
"mX c #FDDCFE",
"MX c #F7D8FA",
"NX c #FAE1FD",
"BX c #F6E3F9",
/* pixels */
"            o               o           . ; ].oX{.=X6Xn.oX].=X=X|.=X>X&X:X-X-X-X-X-X`.&X_.s.z.$.D.oX@X#.@.+.+.+.+.O._ ( ( Z Z Z ",
"    o   o o o o               o   o   . . Y sX{.uXuX0X:XoXuXuXuX=XxXqX=Xd.>XcXcXcXcXcXMX>Xc.s.r.D.yXyXN.5.@.@.@.+.O.O._ ( / / Z ",
"o o o o o o o o o o o o o o o o o o o o $ w.6X6XiXoXm.aXoXiXiXuXc.} } R E `.vXcXcXcXcXcXvXgXqX`.z.yXyXN.8.8.8.<.@.O.O._ ) / Z Z ",
"o o o o o o o o o o o o o o o o o o o . - b.{.pXoX6XH.iXoXjXiXuXOXzXlX>Xd.} vXcXcXcXcXcXvXvXlX:Xl.yXyXN.8.8.8.<.<.+.-._ ) Z Z N ",
"o o o O o o o o o o o o o o o o o o O + G n.iX6X6X@XqXiXOXaXuXsX&XlXvXcXcXcXcXcXcXcX>Xd.|.lXlX>X`.qXpXh.7.9.9.<.>.-.&.) / Z N M ",
"o o o o o o o o o o o o o o o o o O O + ' 6XaXn.aXY.iXiXOXaXuX6X9XvXcXfXcXcXcXcXcXcXd.X._.lXlX9X6X@XpXt.9.9.9.>.>.-._ / Z V M e ",
"o   o o o o o o o o o o o o o o o O + d OXaX6X7X2Xn.pX6X{.iXiX:X0XvXcXcXcXcXcXcXcXcXfX&X%.X.:X`.6X1XpX1.7.9.<.>.:._ / ! V M r r ",
"  o o o o o o o o o o o o o o o o O t b.qXtXn.rXR.}.pX@X{.yXiX=XgXvXcXcXcXcXcXcXcXcXcXcXlXs.D. X:X8XwX+.6.<.>.>.-._ ~ Z B M e e ",
"o o o o o o o o o o o o o o @ o @ d ].tXOX.X2X7Xv.wXpX.X{.yXiXoXgXcXcXcXcXcXcXcX-XcXcXcXlXlXD.yXOXpX3X:.6.,.>.:._ ( Q B s s e 9 ",
"o o o o o o o o o o o o o o @ @ d ].6Xm.7XY.pXR.v.rXpX.XD.iXiX=XqXcXcXcXcXcXcXcXcXcXcXfXgX|.{.yXOXpXP.6.>.>.;.&._ ! V s s e e 9 ",
"o o o o o o o o o o o o o o @ d [.oX..H..X+XwXE.Z.rXpX.XZ.yXyX:X>XcXcX%XfXcXcXcXcXcXcXcXjXc.6XtX6XwX,.;.>.,.&.&.) V B s r e 9 8 ",
"o o o o o o o o o o o o @ @ G XXXX^ ^ tXm.rX<XT.Z.pXpX}.g.eXyX0X XvXvXfX%X_.fXfXfXcXcXcX@XD.yX@XqXR.;.>.,.;.&.&.! B s e e e 8 8 ",
"o o o o o o   o o o o o @ d XXXXd e Y..XR.wX/.~.P.pXpXR.i.2XiXqX`.MXvXcXcXcXcX%X%XcXcXlXu.7XpX`.aXh.:.>.6.&.&.~ V M r e e e 8 8 ",
"o o o o   o o o o o @ @ d ;X].t 7 r.2XZ.2X,X~.~.Z.pXpXR.3.D.yXuX(.cXcXcXcXcXcXcXcXcXlX@XD.yX6X@Xn.E.;.,.;.&.~ V B r e e 8 8 8 8 ",
"o o o o   o     o o O a XX].t * ' 1X/.h.4X/.~.~.P.rXrXT.2.g.yXuX(.vXvXcXcXcXcXcXcXcXgXd.6XyX#X}.OX.X;.,.-.) ! V M e e 8 9 8 8 8 ",
"o o o o   o o o   O * b.;XS * t .X+XE././.~.~.~.Z.pXrXT.M.N.8XuXc.gXvXcXcXcXcXcXcXgXs.'.yX8XD.i..X,X-.-.) ~ V M r q q 8 8 8 * 7 ",
"o   o o o o o   o O | 5X] # 9 m.,XI.P.4X~.^.^.^.N.rXrXT.M.S.7XiX$.R &XcXvXlXlXiX}.q.Z.yXyXR.B.g.R.4X_ ) ! V M r e q 8 8 8 8 * 7 ",
"o o o o o o o   O # ].b.* 8 r.,XI.I.B./.I.~.~.I.v.rXpXT.f.U.#XyXu.P 5 %.:X|.D.z.t.A.7XpXY.v.L.C.+XrX1.~ V M r q e q 8 8 8 8 * 7 ",
"o O @ @ @ O o O O Y ;Xp ;  .,XI.I.B.f.v.A.A.Z.v.z.2XpX!.C.B.Y.eXg.F.+.4 5 i.S.f.S.+XpX.X#XS.L.f.T.rXm.M M r e q 8 8 8 8 8 7 7 8 ",
"7 7 # # @ @ O O O j.j.; H .XI.I.P.` M j I oXnXnXzX{.pX.XM.4.A.+XF.W.!.y.t.A.M.T./.rX}.1Xg.U.~.4.I.wX1XC r r e q 8 = 8 = * * 9 9 ",
"B s 9 7 @ @ @ o + [.] r P.I.I.g.A x x x H T xXmXnX`.iX3XM.V.+XF.W.W.W.!.y.4.U./.wX.XoX8XB.Q.K.4.I.2XtXH q q 8 8 8 8 * * 8 = 8 * ",
"*.*.G 9 # @ O @ * XXC 1.P.I.g.A A v z v c a a.mXmX=XiX7Xg.W.+XN.W.W.W.W.4.y.!.wX.Xc.yX#XI.K.K.4.I.3XyX*.q q q 8 q 8 * ; 8 8 * $ ",
"*.' G 9 # # @ @ * ].^ P.P.P.` C v v v z c c Y cXmXsX@XA.I./.N.S.y.W.W.G.2.S.2X6Xq.oXyXP.Q.K.V.C.L.<XrX].q q 8 8 = * = 8 8 = * + ",
"^ B e 7 # # @ O * H.h.P.P.` x S z z z z c c a &XmXnXq.A.A.f.N./.W.W.W.y.+.}.7X{.zX6XyXg.Q.K.C.V.I.<X2XOXt 8 8 q 8 8 9 9 * * # + ",
"9 9 9 @ + @ O O $ ..P.U.q.A x z z z D z z c k X.nX{.u.u.#X#Xu.F.!.!.!.#.y.8X`.zX XtXyXi.L.K.C.K.I.<X2XOXg 8 8 8 = 8 9 9 * * * # ",
"@ @ @ @ O O @ + ; l.P.g.A x z z S z S v z z z v x.x. XqX X6XoXD.8X'.A.3.g. X0XzXc.qX@X1.S.J.9.K.L.<X7XoXt 8 = 8 7 8 8 7 # # # ; ",
"@ @ @ o O   @ + t Y.Z.` C z z z c S v c z k z v %XmXmXmXgX(.|.qX'.lXjXjXn.l.nX9Xx.6Xz.L g.4.K.K.J.3X1XY.q 8 7 7 8 9 * * # # * * ",
"@ o @ @ o O   + J Y.e.A x z z z c z z v z w z z j.mXNXBXNXkX`._.|.mXvXnXp.=XdXx.{.0X[ n U M.K.V.I.wX{.[ 8 * 7 8 9 7 * * 7 * 7 * ",
"o o O O   O o + e.D.[ x z z z z z v z v u w k z o.MXNXBXNXNXNX-Xx.-XbXnXp.qXmXmXc.`.T x j f.J.K./.wX .e * 7 9 e 8 * + * 7 0 7 # ",
"@ o o . O O o * {.e.g z z z z z S z v z w , k z c fXNXBXBXNXNXNXmX[.cXbX_.|.mXfXa.0Xo.g g  .S.S.7Xn.r 8 8 7 9 e 8 * $ + 7 * * # ",
"o o @ o o o O * oXJ S z z z z z c z z w > i v z a _.NXBXBXBXNXNXNXfXdXgX=XMXBX%XfXmXX.k g n 3.Y.tX[ = = 8 9 8 * 7 * # * * * + O ",
"o @ o O . O . - ].g z c z z z z v z z , > i z v b X.NXNXNXNXNXNXmXmX-X=XcXmXNXBXNXNX=.t k z n ..| q = = 8 e 8 * * # * = * + O + ",
"o O o O O O O + c z z z z z z { $.} p.a.{ b z v z { mXfX-X%X).).). Xc.|.gXdXhXMXmXmXw.c a z z x S q q = e t q ; * * 7 7 7 * # # ",
"O O O O O O + f u a z z D z =.qXz.8XzXmXnXgXw.Y v v ] k v b z k l R m n L l 6 b { x.X.c i c z v S t q | 5XsXb.G 8 * ; # * * 7 * ",
"O O . o O . - u i a z b z z |.c.F.$XnXnXvXMXbX*X} v z v Y v v J n m L h L I R m l l x v v z z z z z [ ;X*XdXhX;Xw.w 7 * + $ * 7 ",
"O O @ O O & u > > > i b z [.&Xq.F.F.#XzXnXcXvXMXqXX.J F n v A J I I K K 5 K 5 L I m x v v z i w y Y *X|.zXcXlXbXbXb.w * ; + * * ",
"O O O . * 3 > > w i z F b.zXnX:XF.i.g.8XnXnXvXvXxXx. .J x n m W P 5 P P 5 U P K 5 E n z z z p p k ] hXkXcXcXcXcXbXbX(.w * + $ * ",
"O O O O - > u a z z x.*Xx._.b.jXq.i.t.'.lXnXvXkX>X*Xn.{.T n L U h W K P 5 W K P L P x v z z p p a T 0XvXkXlXcXcXbXhXzXX.= * = 8 ",
"O O O + u u i a z z j.sXp.1 X.nXqXD.z.$.:X0X).xX&XuX(.w.T v n E E h L L 5 E m m E m x S z a i z z z p.zX|.|.cXkXxX5XzXXXt = 8 * ",
"O O O & i i z z a c c c c u u ).fX_.$.4 { qXX.9XgX X`.} > 2 l l l 4 E 5 4 m m 5 j x z k i w u c c D F (.qX$.hXxX0X9XjXsX| e = * ",
"X O + & a a a z a z c c a u w 1 < : : : < x.|.o.cX&XqXw.: : , , , 4 R 4 4 6 m 4 6 k k u > > p D D D v F sX$.{.zX5X9XzX:Xj.q 8 + ",
"+ X X f p p z a z c S c D a i i 2 : > : > { >X, |.>XnXb.: 3 & : : , m 4 , , m 4 , - - > > w a D F F F z j.o.E jX=X0XqX|.b.= ; * ",
"X . X u p p p z D c D D D a f ; 3 1 : : : Y =X, X.-X>XX.: & : : : 6 b 4 : : R < : - > > w a S G G G G D v v F gX XuXoX|.p.$ * * ",
". + X u p a a z a c a c w ; + $ 1 1 1 3 : : o.2 b w.X.2 : & & : : 6 6 : : 3 2 , > > > w u D D G G G D G D , ; *X XgX X|.| $ + + ",
"X X X $ u u p a a a p = $ $ $ $ u > 1 - & : 1 : 3 : & & & & & & & & : & & : & 3 > > w w * 8 d G G G G G w $ ; r.n.uXoXr.Y + + + ",
"X X $ X + + $ ; ; ; + $ * * * * = w w w 1 & & & & & & & & & & % & % & & & & & 3 3 w p = * * t H G G G 0 + + ; t | OX].H = + X . ",
"+ + + + + X + + + + + + * * * = 8 S a a 1 > : & & % & % % % % % % % & % % & & & > p 8 7 $ $ * d G G d * $ $ * 8 y S t * $ + X . ",
"+ + + $ + $ + + $ + + $ * 8 8 q e S S v a u 1 3 & % % & % % % % % % & % % & & 3 u 7 * * * * * = t e ; + # * 8 8 8 * * * * + + . ",
"$ + + * + + * + + $ ; * 8 = q q r C d D D a a u - & % % % % % & % - 3 f u u - 0 = * * * * 7 * * * * * $ * 7 y 7 @ + + # = # + X ",
"+ * + + # + * * * * * * 8 8 e r s s g D D D z a i 1 3 & & - 3 f u p u p u 0 w p 8 * 7 * * * * ; * * * * 7 7 9 7 + . O + * * * + ",
"# * = * * # * 8 * * * = 8 e M M N A S S c c c z p p p p u u p p p p u p p 3 w a d ; * ; # * * # # * * # 7 7 7 = + . . + # 7 - 7 ",
"* * * * # * * * * * 8 8 q r M Q Z N C G S c c c p p p p u p p p p p a p u f a a D p * * * # * + * * 8 8 # * # 7 # . . X + # 7 7 ",
"= = = * = * 7 * = = 8 q r M N Z Q M C C S S z S p u p p p u p p p p p u w p a S D d t * * # + # * * 9 9 # + # 7 $ O . . . + * 7 ",
"8 8 q 9 8 8 8 8 8 8 q r r M V V Z V H H S z z a p p p p p p p p p p p 3 t a a z z D D 8 * * $ * * 8 e 8 # O + * - . . . . + * * ",
"r r r e e q e q q q e r M V V Q Q V H S a a z a a p p i p p p p p p u w p p p d z D D d ; + # * 7 7 9 7 + + . # # + . . . + # # ",
"M B Z B M r r e e r r M V V Q Q ! V H S z a p a p p p p u p p p p p 0 u p p p a v z D D D $ * * 7 8 8 8 * + + + * # + . + # * # ",
"V V Z V M M M M M r M V Z Z Q Q Z V C S k a p t p p a u u a a u p p u p p p p p a z z D D 0 * * * 7 7 8 0 7 # * 7 7 # + + + * # ",
"V V Z V V V V Z B N V Z Q Z Q Q Z N H x p u p p a u a a a a u a i p p p p p p p a a a S D d q * * * * * 7 8 7 = 9 9 * # # * = * ",
"Z Z Z Q Z Z Z Z Z Z Q ! ~ ~ ! Z V V C S p p p p u a a u u a a u i p p p p u p p p a a u p S D = = * # + 7 7 * # 7 9 7 7 8 8 9 7 ",
"Z V Z ! Z Z Z Z Q ! ! ! ~ / ! Q V N C g p p p p a u a u a u u a p p u p p p p p p p > u p d S d = * # + # * + $ * 7 7 = * 7 9 7 ",
"V V Z Q ! Z ! ! ! ~ / / ~ ~ ! Z N g M y u a a a p a u a a u a a p a u a p p i i u w w p a z D S d * * + * + # + + * = $ + + 8 8 ",
"B V V V Z Z ! ! ! / ! / ~ ! Q V N r r w f u f u p u a u a u u u u u a u i u i i u 3 u a a a a z S d * * $ + * + + + * $ + O * * ",
"g M M N V N V Z Z A Z ! ! Z V B g r e u 3 & % 1 u u f u u u u u u 1 1 1 u u u 1 & u p p p p a S p S S 8 $ $ * $ + + ; + + + + * ",
"r r r r r M N N V V Z Z Z V M M r r = 1 - % % % 3 & 3 & 3 3 f & 3 & 3 3 & 3 3 & 3 3 w w 1 u u u y p t p $ $ * $ + + $ + X X + + "
};
