/* XPM */
static char *Picsart_24_05_20_16_39_49_7491716213324[] = {
/* columns rows colors chars-per-pixel */
"64 63 241 2 ",
"   c #0B002D",
".  c #0A0026",
"X  c #15002E",
"o  c #19002F",
"O  c #0C0030",
"+  c #130032",
"@  c #1C0034",
"#  c #1E003A",
"$  c #170038",
"%  c #220036",
"&  c #270C33",
"*  c #2A0D35",
"=  c #24003B",
"-  c #29013D",
";  c #2E0D3B",
":  c #260738",
">  c #320A36",
",  c #320D3B",
"<  c #3B0B3A",
"1  c #36043A",
"2  c #32113F",
"3  c #3C113F",
"4  c #460639",
"5  c #59063E",
"6  c #45103E",
"7  c #260141",
"8  c #2B0142",
"9  c #2E0348",
"0  c #2D0C40",
"q  c #330145",
"w  c #390145",
"e  c #330C42",
"r  c #3B0D43",
"t  c #34024A",
"y  c #3B014B",
"u  c #3C0B4C",
"i  c #370B4B",
"p  c #2E1140",
"a  c #361345",
"s  c #3A1445",
"d  c #3C154A",
"f  c #3F184C",
"g  c #381448",
"h  c #3C0651",
"j  c #3E1453",
"k  c #41034D",
"l  c #4B0C48",
"z  c #5B0B44",
"x  c #560C47",
"c  c #43164C",
"v  c #4B144D",
"b  c #43184D",
"n  c #4A1B4C",
"m  c #471345",
"M  c #53134C",
"N  c #58144A",
"B  c #440153",
"V  c #4C015B",
"C  c #490B57",
"Z  c #540E51",
"A  c #5A0B57",
"S  c #441552",
"D  c #441952",
"F  c #4A1A53",
"G  c #4A1B5A",
"H  c #4A1554",
"J  c #551757",
"K  c #670B45",
"L  c #61134C",
"P  c #69114B",
"I  c #641B53",
"U  c #691859",
"Y  c #741B56",
"T  c #620C5A",
"R  c #55204E",
"E  c #4C2555",
"W  c #552553",
"Q  c #582859",
"!  c #45204C",
"~  c #68275A",
"^  c #76215B",
"/  c #67345F",
"(  c #581B66",
")  c #521969",
"_  c #6A1B66",
"`  c #582764",
"'  c #5D3562",
"]  c #642868",
"[  c #653568",
"{  c #682B74",
"}  c #673472",
"|  c #753779",
" . c #7A2C6F",
".. c #74427B",
"X. c #7A4473",
"o. c #6D4273",
"O. c #99277B",
"+. c #892A71",
"@. c #801968",
"#. c #89467E",
"$. c #793783",
"%. c #702C81",
"&. c #784784",
"*. c #7F5384",
"=. c #8B3885",
"-. c #9D3B87",
";. c #AD3391",
":. c #894788",
">. c #9B488E",
",. c #865689",
"<. c #945A8C",
"1. c #8D4C92",
"2. c #994894",
"3. c #8B5A96",
"4. c #9A5695",
"5. c #A94899",
"6. c #B3459A",
"7. c #A65899",
"8. c #B8579E",
"9. c #AC448D",
"0. c #976698",
"q. c #926998",
"w. c #A3679D",
"e. c #9B5CA2",
"r. c #B94AA6",
"t. c #B857A8",
"y. c #AE51A1",
"u. c #9C69A4",
"i. c #9C71AA",
"p. c #A767A6",
"a. c #B569AB",
"s. c #A877A8",
"d. c #B379AD",
"f. c #B86EB4",
"g. c #B878B5",
"h. c #A978B3",
"j. c #C656AD",
"k. c #CB5AB5",
"l. c #D659BC",
"z. c #CC4FAE",
"x. c #C665AB",
"c. c #CC62BA",
"v. c #C96CBD",
"b. c #C667B4",
"n. c #D765BC",
"m. c #C575B8",
"M. c #D674BD",
"N. c #E46ABF",
"B. c #DE5DC1",
"V. c #E25DC4",
"C. c #E55BC4",
"Z. c #D564C3",
"A. c #D36BC4",
"S. c #DB6BC6",
"D. c #DB6CCA",
"F. c #DA68C6",
"G. c #CA77C3",
"H. c #D473C5",
"J. c #DB74CD",
"K. c #D579C8",
"L. c #D36CC6",
"P. c #ED6FC6",
"I. c #E367CA",
"U. c #E571C5",
"Y. c #E868D4",
"T. c #E678D5",
"R. c #AC82AB",
"E. c #BD8BBC",
"W. c #B885B7",
"Q. c #B998B8",
"!. c #AF84B1",
"~. c #C286BE",
"^. c #C492BE",
"/. c #BA88C2",
"(. c #C98CC4",
"). c #C987C6",
"_. c #D58BCC",
"`. c #C493C2",
"'. c #C898C9",
"]. c #D49DCE",
"[. c #D494CC",
"{. c #D88CD4",
"}. c #CB9AD1",
"|. c #D59BD1",
" X c #D898D5",
".X c #E08BCB",
"XX c #E885DA",
"oX c #E498DB",
"OX c #F285DD",
"+X c #D3A5CE",
"@X c #DCA3DB",
"#X c #D8A8D6",
"$X c #DDB5DC",
"%X c #DBB9DE",
"&X c #CBA6CC",
"*X c #E4A9DE",
"=X c #E2B6DF",
"-X c #EB99E4",
";X c #F699EA",
":X c #FF9BF2",
">X c #EE8AE2",
",X c #D8AAE1",
"<X c #DDB1E8",
"1X c #EBA3EA",
"2X c #E7A9E4",
"3X c #F3A3EB",
"4X c #F6A9ED",
"5X c #EAB4E5",
"6X c #E7B8E7",
"7X c #F2B5ED",
"8X c #F2BCEC",
"9X c #FCACF5",
"0X c #FFACFA",
"qX c #FBA7F4",
"wX c #F4B3F3",
"eX c #FBB4F5",
"rX c #F5BBF4",
"tX c #FABAF6",
"yX c #FEB4FA",
"uX c #FBB9F9",
"iX c #F7BAFA",
"pX c #E9B5F2",
"aX c #EDC4ED",
"sX c #EDCBED",
"dX c #EBCAE7",
"fX c #F2C7EE",
"gX c #F1D3EF",
"hX c #FCC3F6",
"jX c #F4CBF3",
"kX c #FBCEF6",
"lX c #FEC5FB",
"zX c #FDCCFB",
"xX c #F4C4F4",
"cX c #F4D3F3",
"vX c #F9D1F5",
"bX c #FCD3FC",
"nX c #FDDCFE",
"mX c #F6D7F8",
"MX c #ECCDF1",
"NX c #FAE1FD",
"BX c #F7E4FA",
/* pixels */
". . .     .   . . . . . . .   . . .   . o ..(.4.E./.d.E.s.(.E.E.q.'.W.E.^.^.Q.Q.Q.Q.R.R.X.<.m.w.a.^.).J k y q q - % % % % % % = ",
"                . .                   X : '.@X5XrXxXp.wX[.rX8XrX`.jX=XE.R.gXcXBXcXcXgXvX].d.:.d.[.rXiX:.B k y q 1 - - = % = - 1 ",
"      O                       O +     X F 2X XrX X|.2X7X@XiXrX*X0.X.~ R <.aXcXcXcXcXcXcXkXfX@Xw.~.uXyX1.B h y t q 8 - - - - 8 - ",
"O O O + O O O O O   O O O   O O     + @ ..).wXwX2X_.iX@X7XtXrXE.jXzX8X^.#.+XcXmXcXcXjXcXcXjXkXw.~.wXeX2.B y y t q - - - 7 8 8 - ",
"    O O   O O           O O O O O + X - p.2XwXG.wX).uXm.rXrXrX(.bXbXvXvXgXcXcXcXvXcX+Xs.=XbXbXw. XiXyX:.h y q q 9 8 - 8 8 9 7 - ",
"O       O O     O   +     O O O O + @ s (.tX XpXoX{.tXp.rXrXiX#XbXmXsXgXgXgXcXcXsXdX#.,.#XkXkXd.2XuXiX$.y t q q 8 7 - 7 8 9 - = ",
"  O   O     O               O O   + 8 3.iXiX_.9Xp.9XyX1.rXrXrX2XkXcXcXcXcXcXcXgXgXcX=X^./ <.tX|.*XuXeX_ q q q 8 - - 7 7 8 8 # @ ",
"    O       O O O   O O       + X # $.pXiXG.qX1Xa.yX9X4.tXrXiX6XvXcXcXmXgXgXcXgXgXcXcXcX*X<.~.*X XyX-XJ w q q 8 - 8 7 7 8 8 @ @ ",
"O O         O   O O O O   O X X 0 3.wXG.9X{.0XK.{.yX9X2.wXwXrX5XvXcXcXcXgXgXgXgX=XcXcXvXbX8Xg.uX(.iXa.y q 9 8 8 8 - = 8 8 - @ @ ",
"O O           O O O O     + + : 3.pX).{.G.3X;XL.-XyXqXa.wXrX8X5XvXcXcXcXvXgXcXgXgXcXcXgXhX~.*X9X XiX$.w q q - 7 7 = = 8 - # @ @ ",
"O O O O       O         X + - u.pX,.:.1Xa.0XT.L.-XuX;XA.oXtXtX].bXcX+X%XgXvXcXgXcXcXgXcX5Xf.eX XwXpXJ t q q 7 - = = - 8 - @ @ + ",
"O O O O               O X 0 i.5X| q {.K.3X;XT.D.3XyX>XJ.m.eXtX^.vXcXvX=X^.#XgXdXgXcXcXvXm..XtX_.eXp.k q q - 8 - - - 8 8 : = # = ",
"      O     O +     O O ; i.pX} 9 1.-XG.0XT.T.D.3XyXXXZ.K.eXtXg.vXcXcXcXcXcXfXQ.dXcXkXfXa.eXuXoX2Xp.h y 9 9 8 - - 7 8 = @ @ # - ",
"    O O     O O O X + 0 h. X` - ` pXK.L.qXT.Y.Z.4XyXT.r.5.eXeXs.bXcXcXcXgXcXcXcXcXcXvXw.oXeX X2Xg.f.h 9 8 9 8 - 7 8 8 - @ @ - 7 ",
"        O O O +   X - i.,XQ = i G.>Xt.:XT.Y.Y.Z.qXyXT.;.-.qXeX~.kXvXcXcXcXgXgXcXcXkX*Xx.7XeXm.a.-Xf.y t 8 8 8 7 8 9 8 7 = = 7 8 ",
"O     O O O O O   @ &.pX} = - p.;XD.Z.:XY.Y.Y.Z.3XuXT.;.M.H.tX[.5XbXcXcXcXcXcXvXkX*X#.4XeXoXK.5.-X).y t t q 8 - 9 9 7 = = = 8 8 ",
"O O O O O O O O + E <X*.- = $.-XD.D.OXT.Y.Y.Y.B.-XyXXXr.S.5.eX Xm <.fXjXvXkXlXtXb.>.{.yX1XG.t.k.-X1Xy t q 8 - 8 t 9 = # % % # @ ",
"O O O O O O O O + i.}.9 % { ;XJ.Y.r.T.D.I.I.I.A.-XyXOXl.F.j.uX).#.5 ~ W.=X~.m.7.8.K.0XeXK.t.Y.Z.-X0X) y 8 8 - 7 t 8 - @ % % @ o ",
"O O O O O O O O 0 ,X` % J {.J.D.L.;.A.A.v.A.v.m.).yX:XS.k.-.eXb.N.8.5 5 K b.n.6.H.;XeXa.A.A.I.B.XXyX$.q 9 8 - 8 9 = # = 8 0 % @ ",
"O O O O O O O O o./.= q G.J.D.D.=.A A { 4.lXlXlXg.uXqXS.;.j.9XM.U.P.x.-.@.j.k.D.;XyXf.9Xj.I.Y.k.XXyXf.w q 9 q 9 7 # @ # - 8 = @ ",
"O O O O O $ O $ h.:.q e.J.D.A._ Z v c v v |.nXbX|.2X9XJ.6.P.qXx.P.P.U.N.z.r.S.>X9X).1X;Xl.I.C.z.J.0X1XC 9 8 9 9 8 7 # # = @ @ @ ",
"O O O $ : # $ # /.] _ L.D.c._ l c c v v c ' mXnXbX(.yXc.n.T.6.n.P.P.P.n.;.n.XX0Xf._.eXy.C.Y.C.z.L.0XeX} - 8 9 7 = = # 7 = # @ o ",
"O O $ 7 9 9 0 7 /.( Z.F.A. .v S S D D v b s &XnXnX|.;Xn.U.D.N.z.z.P.P.z.O.K.9X).7.4X0Xy.Y.C.z.l.F.qX9Xe.- 8 t 8 # # = 8 : @ @ X ",
"O O 7 9 C G i - f.2.Z.F.=.Z v v v H n b b s ,.nXnX].8.K.t.6.XXN.N.P.N.O.6.;X_.wXg.yX3Xk.C.C.;.C.D.:X Xp.- q t 8 = @ = 8 = # @ @ ",
"$ $ h ) %.%.C q { v.Z.t.Z v c c c D c b b s W bX8Xp.7.b.9X>.>..XP.P.9.O.M.4X+XbX XuX;Xk.C.C.;.C.F.qX-Xp.8 8 7 - - = 7 = # @ # # ",
"$ 7 j ) %.) h 9 =.H.b.T v c c S c c b v c m c !.X.g.hXW.4X XtX[..X.X+.8.3Xa.bXfX(.uX_.t.I.z.l.C.F.0XoXp.q 7 - = # 7 8 # @ @ @ # ",
"$ $ j ) C j 9 q G.A.=.l c c c f c c c f b s b [ bXnXnXbX`.*Xg.~.fX8X7X[.2X5XnXW.<.eX .U j.;.C.l.F.0XG.e.- 8 = = # - 7 = o X X X ",
"$ $ 9 9 7 7 = C G.y.Z c c D c c b D S c 2 c b Q cXNXNXNXnX#Xs.+X^.vXvX].@XjX^.`.(.~.H Z +.l.C.C.T.0Xf.( 8 8 = @ = = : # % @ X X ",
"O $ $ $ $ $ @ ` G. .l v c b c c v b b c < s m n %XnXmXBXNXNXbXs.h.zXkX$X0.bXnXkX#X<.v l U c.V.Z.XX4X{ q 8 - # = = - % @ @ @ o X ",
"O O $ O $ $ @ 3.a.Z c c c c c c b D b e , s b b !.NXNXNXBXNXNXnXdXkXkX&X!.aXNX6X,.<Xc l l >.l.S.0X1.y 8 7 = @ = 8 - @ @ % # @ o ",
"O O O $ O $ # i.{ l c c c c c f c b s , , c c b ' NXNXNXBXBXNXNXnXq.kX$XnXmXmXQ.cXaXs s l A y.XX{.y t 9 = @ # - 7 = @ X @ @ % : ",
"O O O O O O # h.D c c c c c S v v b 3 , s c v b s MXNXNXNXNXNXNXnX%XfX$XnXNXBXmXNXsXs c v H Z :.] q q 9 = @ % : - # @ o + @ = 8 ",
"O O O O + X o s c b b c b b W [ [ } o.Q n s v F f '.nXsXdX%X$X#X=X7X].W.jXjXcXNXNXcXs c v b v v u q q 8 0 0 8 8 @ = = # @ @ = 0 ",
"+ O + O + + ; a b s c b b ~ tXw.[.zXbXbXaXR.F F b Q Q W b m b n M ~ N ~ R R W W o.s.m b s b b c S 8 q &.pX,Xu.c % @ @ = @ # 7 t ",
"O O + + X : a a s f b c c 0.oXx..XlXbXbXmXbX6Xq.n v v F n n H M N z z K L I N M M v v n b d b c S G :.#X$XxXxX'.o.0 - = @ = - 7 ",
"O + O X # a , ; 3 s b b q.].#.m.M..XhXzXmXvXmXkX0.F H v H v N L U Y z z 5 5 z I N M v D b v d e s D pX+XkXcXcXvXzXq.q - = - 9 7 ",
"+ + + @ 2 2 , , s f c ,.mXbXlXa.x.9..XzXbXmXbXbXW.<.J H n M Y Y z 5 Y P P Y 5 K z I v v v c s d d [ '.kXvXcXcXvXmXbXh.r 8 t 9 7 ",
"+ + + & 2 2 s f d ,.}.!.!.R.6Xa.8.9.m.eXkXvXmX^.hXg.W.| v M +.K L L ^ 5 5 P K I Y N v D f c s d f Q E.bXsXvXcXcXvXaXzX` q t 9 = ",
"+ O @ p a f f f f 3.jX!.b Q bXzXm.a.7.~.kX!.jXxX5X|.W.,.c v N Y I 6 I 5 5 ^ m N ~ x v v f d a D j b s.hX`.#XvXfXjX#XxX}.u t - = ",
"+ X : a s f d b f c d j s 2 q.jX*X<.x N =Xs.s.bXW.5XW.m 3 6 M N 6 5 M 4 5 ^ 6 M v v b d a , s D b F n }.*X0.jXfXaX#X6XrX{ q = : ",
"  X : g d f s b c b b b s e 2 ! > > > > [ fXR 8XkX].0.m > > < < 4 4 6 4 4 ~ 6 6 m s s 2 , , f F D F b ..zX~ +XjX5X#XrX@X3.- % @ ",
"+ X ; d f f b b f b f f f s , s , > , > 6 %XW X.bX^.d.W > , > > 4 ~ 6 6 4 R 5 < > ; > > , e c D F F F v E.W ,.lX`.2X5XE.3.& o o ",
"+ X ; d d d b b b b D S f s : e 2 > , > , ^.' m =X+Xs.! > * * > 4  .< < 4 R R > , * 2 2 a c G D G G H H d r [ zXE.8X|.g.,.% o o ",
"X + p d f f d b f b j a = % % ; , , > , > s ' > W q.#.> > ; , > 4 ~ < > > > < 2 , 2 ; , a S G G G G G G D - < 8X`.7X X~.[ % o o ",
"X X @ a a s d b b d ; @ o % % : a , ; 2 , > > > , 2 * & & & * ; & > > * * > > > , 2 e a % e G G G G G F - % : 3.h.iX(.:.S - @ @ ",
"+ + @ @ o : ; : : % @ @ o o @ % a , , , * , * * & & * * & & & & & & * * * * 2 * 2 e g = = = j G G G G 0 @ % % v ..'.p.S 9 0 : @ ",
"X X X + o o o o @ o @ o @ @ @ @ d d d s ; > * * & & & * * & & & & & & & & * * * e i 8 7 - = - S G G i % @ @ % % - e e % = - 8 7 ",
"X @ @ + X X X @ o X X @ o @ @ # e f f b s 2 , * & & * & * * & & & & & & * * * 2 0 - 7 8 - = - 7 i 0 = % % % o @ % = = @ @ # 7 7 ",
"@ X o @ @ X @ o @ o @ o X o @ @ 8 f D D b b s , * & & & & & & & & * 2 a a a ; d 7 = = - 7 = = % = = # = = @ @ @ @ @ = % @ @ = = ",
"@ @ @ o @ @ o o o o @ + X @ @ % : i D D D b f s a 2 * & ; * * a a d a d a ; 0 f = = = = = = @ = # = # = # = = @ % @ @ # @ @ = @ ",
"@ @ @ @ @ @ @ @ o o + o X @ @ % - S D D b b d d s s s s s a d d d d d d 2 ; d f e % = % = # @ @ @ = = = = = = = = # @ @ @ @ # @ ",
"% % @ @ @ @ @ @ @ + @ + + @ @ = - S D S b c f f f d d s g r d d d d d s ; a d b D e = = = = = @ # @ % = = = = = : = = # % = @ @ ",
"% % @ @ # @ @ @ @ @ @ @ @ @ @ @ - S S b b b b d d d d d d d g d d d g p a g c D v D e = = = = = % % @ % = = % = 7 8 = = - 7 = @ ",
"= % # @ @ @ @ @ # % # @ @ X @ % 8 G S S c c f f d d d d d s d d d d a p d g S D D c j 7 = = 7 7 = = = # = @ % @ # # = = = 7 7 - ",
"= % = = = @ # = % : # # % @ @ @ - G S c d f f d f d d s g d g d d d ; a d f c D b D D j - = - 7 = = = - = = @ = # # = = @ # = = ",
"- = = = = = = @ # = % = @ @ @ % - i f c f d d d d g d d d d d d g d 0 d s d d b D D D S i = = - = = - 8 - - 7 = % = = # @ # = = ",
"8 - 7 = = = = = = = # % % @ % - - t f f d d d d f a g f g a a g d a g d a d d f b b D D D 8 - = = - 7 7 8 7 8 8 - - - = # # = # ",
"q 8 8 - 7 = - - = = = # = = = - q e d d d d d s a f g d f ! g g d a d d d d d d d f b D D j - 7 = - 7 - - = - 7 8 - 7 - - = = = ",
"t q t q q q q 8 - - - = - - - 8 w r c s d d d d f a a d a g g g g d d d d g d d f f s e f j f : - = 7 = = - 7 - = = 7 7 8 8 8 7 ",
"y y h B y y t q q 8 7 8 8 - q q k k c d s d d s a f g a f a ! g g g g d a d d a s s e a f D F d = = - - = = = - = = = - - 7 7 7 ",
"V B V V B y y t y t q q 8 t y k Z Z c u ! g g g f g g g a a g g g g g a a g a a a a a f f b c b g = - - - = = = = 7 - - = = = # ",
"V V V V V B B B B y y y y k k Z A Z H r a a a g g a g a a g a g a g a a g a a a ; a a d b c b D S j 8 8 8 - 7 - = - = 7 7 - = = ",
"V V V V V V V B B B B B B B V A T T M s & * 2 a a p a a a 2 a a a a a a a a a a 0 a d d f f c S j S S q 9 8 7 - 7 7 7 7 - 7 - = "
};
