/* XPM */
static char *Picsart_24_05_20_16_40_37_1311716213458[] = {
/* columns rows colors chars-per-pixel */
"64 63 246 2 ",
"   c #0F0037",
".  c #0E003B",
"X  c #130037",
"o  c #1C0035",
"O  c #14003A",
"+  c #1B003A",
"@  c #210136",
"#  c #240A32",
"$  c #2B0B35",
"%  c #23003C",
"&  c #2A013D",
"*  c #2C0D3B",
"=  c #290436",
"-  c #33023D",
";  c #3B043D",
":  c #330D3C",
">  c #360937",
",  c #33113E",
"<  c #2A0F38",
"1  c #430B3C",
"2  c #51013C",
"3  c #270041",
"4  c #2B0144",
"5  c #2C0B43",
"6  c #2E0148",
"7  c #320145",
"8  c #3A0343",
"9  c #330D43",
"0  c #32014A",
"q  c #3A014D",
"w  c #3A0D4C",
"e  c #390D47",
"r  c #361446",
"t  c #3B1446",
"y  c #371548",
"u  c #3D164A",
"i  c #3D184A",
"p  c #3D1946",
"a  c #3E0051",
"s  c #3E0D54",
"d  c #3D1452",
"f  c #3C1C55",
"g  c #430B49",
"h  c #4D0D4C",
"j  c #450647",
"k  c #520C4C",
"l  c #550B46",
"z  c #441346",
"x  c #42154B",
"c  c #4C134C",
"v  c #42184D",
"b  c #4E1A4A",
"n  c #58184E",
"m  c #430155",
"M  c #460259",
"N  c #4C015B",
"B  c #4A0756",
"V  c #540D53",
"C  c #51015E",
"Z  c #590B59",
"A  c #431652",
"S  c #441952",
"D  c #4B1559",
"F  c #4B195A",
"G  c #4A1953",
"H  c #5C145B",
"J  c #561658",
"K  c #650C55",
"L  c #7B0E57",
"P  c #66195B",
"I  c #6A1150",
"U  c #512352",
"Y  c #72215C",
"T  c #540161",
"R  c #590265",
"E  c #5A0667",
"W  c #531462",
"Q  c #581565",
"!  c #4F1561",
"~  c #67066B",
"^  c #6A1863",
"/  c #6E0273",
"(  c #73116E",
")  c #592666",
"_  c #5C3565",
"`  c #56326B",
"'  c #682869",
"]  c #722E6D",
"[  c #673767",
"{  c #663674",
"}  c #783778",
"|  c #772975",
" . c #79467B",
".. c #684373",
"X. c #981A67",
"o. c #971D76",
"O. c #851C6F",
"+. c #97287A",
"@. c #84387C",
"#. c #8E2975",
"$. c #A72778",
"%. c #B32678",
"&. c #800D58",
"*. c #894A7D",
"=. c #784882",
"-. c #744D85",
";. c #9A3685",
":. c #923285",
">. c #A82889",
",. c #A7338A",
"<. c #B2378A",
"1. c #B63C96",
"2. c #B03791",
"3. c #961F83",
"4. c #894785",
"5. c #99488C",
"6. c #9D4B95",
"7. c #995B95",
"8. c #8B598E",
"9. c #A44594",
"0. c #AD4B9A",
"q. c #AA4597",
"w. c #B6489A",
"e. c #A75598",
"r. c #B34D97",
"t. c #986A9B",
"y. c #8F6C99",
"u. c #B949A4",
"i. c #AB58A2",
"p. c #B858A8",
"a. c #B552A8",
"s. c #9B64A1",
"d. c #9B71A9",
"f. c #A86AA6",
"g. c #B767AB",
"h. c #A978A8",
"j. c #B376AD",
"k. c #BC68B2",
"l. c #AB7DB4",
"z. c #BA77B5",
"x. c #A1689D",
"c. c #C34B9D",
"v. c #CD559F",
"b. c #C54BA6",
"n. c #C755A8",
"m. c #C75AB5",
"M. c #D95CB9",
"N. c #D454AF",
"B. c #E058BE",
"V. c #C168AD",
"C. c #C969B8",
"Z. c #DC6CBC",
"A. c #D568B9",
"S. c #C777BC",
"D. c #D672BC",
"F. c #C272AE",
"G. c #E56ABD",
"H. c #E071BE",
"J. c #DC5EC1",
"K. c #E25BC3",
"L. c #E45EC9",
"P. c #D56BC4",
"I. c #DC6CCA",
"U. c #DA64C5",
"Y. c #CB79C3",
"T. c #D778C8",
"R. c #DA79D1",
"E. c #C96DC2",
"W. c #E56DC0",
"Q. c #EA6CC2",
"!. c #E26DCE",
"~. c #E465CB",
"^. c #E373C2",
"/. c #E672C9",
"(. c #E66AD3",
"). c #E969D2",
"_. c #E777D6",
"`. c #F17DDE",
"'. c #BA87B8",
"]. c #B088B1",
"[. c #C085BD",
"{. c #C194BF",
"}. c #BC88C3",
"|. c #BB97C5",
" X c #CD8DCA",
".X c #C888C5",
"XX c #D586CB",
"oX c #CA96C9",
"OX c #D193CD",
"+X c #DD88D3",
"@X c #DA94D4",
"#X c #DA9BD6",
"$X c #DD9DDB",
"%X c #D598D3",
"&X c #CC92D1",
"*X c #E28BD6",
"=X c #E888DA",
"-X c #E498DA",
";X c #E782CB",
":X c #D7A6D8",
">X c #DBB4DB",
",X c #CBA4D1",
"<X c #E2A4DE",
"1X c #E1A9DB",
"2X c #EC8DE4",
"3X c #F88DE7",
"4X c #EA9CE2",
"5X c #F39CE4",
"6X c #F798E9",
"7X c #FE9BF2",
"8X c #FF97F0",
"9X c #DCAFE4",
"0X c #EAA3E3",
"qX c #E4ABE3",
"wX c #EAABE5",
"eX c #ECACEA",
"rX c #F6A7EC",
"tX c #EDB3EC",
"yX c #E8B6E6",
"uX c #F2B3EE",
"iX c #FCB2ED",
"pX c #FDACF4",
"aX c #FEA6F8",
"sX c #ECB8F2",
"dX c #F5B5F2",
"fX c #FCB5F5",
"gX c #F5BCF4",
"hX c #F9BBF6",
"jX c #FFB3FA",
"kX c #FCBDF9",
"lX c #F6BDF9",
"zX c #EAC5E8",
"xX c #F2C9ED",
"cX c #FBC3F6",
"vX c #F4CCF2",
"bX c #F9CDF6",
"nX c #FCC4FA",
"mX c #FCCCFA",
"MX c #F6C6F7",
"NX c #F5D3F4",
"BX c #F9D1F6",
"VX c #FCD2FC",
"CX c #FDDCFE",
"ZX c #F5DAFA",
"AX c #EEC2F5",
"SX c #F9E1FD",
/* pixels */
". . . . . . . . . . . . . . . . .   . X + { #XQ H ) n J 4.7.4.7.f.z.g.iX@XhXmXnXwX:XnXnXgXqXnXl.3 + O O O O O O + O O O O O O + ",
". . . . . . . . . . . . . . . .   . . X 6 9XlX| H J } qXgXhXoXnXkXXXj.S.<X@XcXgX XqXtXcXgX XcXsX` % + O + O O O O O O O O O O O ",
". . . . . . . . . . . . . . . . . . . O { MXlXj.n 4.uXnXgX$X.XkX@Xf.g.gX XoXgXcX<X<XtXgXcXqXyXcX}.4 + O O O O O O + O O . . O O ",
". . . . . . . . . . . . . . . . . . X O d.lXqX0X:.@XtXhXgXoX XsX<X<Xz.mXnXz.yXlXgX XqX1XgXgX#XlXtXF + + O O O O O O O O + 4 O O ",
". . . . . . . . . . . . . . . . . . X 5 :XhX XuXz.g.$XhXuXoX:XMXbXbX>XbXBXyXx.hXgXtX<X%XgXgXOXdXlX..@ O O O O + O O O O O 3 . O ",
". . . . . . . . . . . . . . . . . X X f sXfX.X0X5.5.7.uXcXbXbXNXbXBXBXbXBXmXoXuXgXgXS.%X#XgXdX&XkXd.% + + O O O O O + + + O O + ",
". . . . . . . . . . . . . . . . .   X { sXgXY.F. .#XyXBXBXNXNXNXNXxX{.{.cXmXgXwXgXgXeX#Xz.cXgX%XfX&X4 + + O + O O O O + O + + + ",
". . . . . . . . . . . . . . . . .   X -.AXlX.X4.yXmXBXBXNXNXNXNXBXxXh.n  .t.oX1XgXgXhX%X%XdXdXtX[.eXA + + O O + O + + + O O + O ",
". . . O . O . . . . . . . . . . . X X { AXgXdXj.BXNXNXxXNXNXNXNXBXzX[ '.bXBXcX1XgXiXhXoXeX@X$XfXwX$X{ & % % + + + + . + + + + + ",
". . . O . . . . . . . . . . . . . X o ) sX%XdX%XBXNXzX].{.NXNXNXNXNXxXNXNXNXbX,XuXxXhXOXfXf.eX%XfX.X8.7 + + + + O 3 3 + + + + + ",
". . . . . . . . . . . . . . . . . X O y sX$XlX%XbXxX].*.*.zXNXNXNXNXNXNXNXxXNXoXgXgXhX#XlX&XeX%XuXfXe.w % + + + + + 3 + + + 3 + ",
". . . O .   O . . . . . . . O . X X X 5 &X$XuX XwX*.[ ].xXNXNXNXNXNXNXNXNXNXNXoXgXgXgX$XlXdX$XrXz.dXuX=.7 4 % + 3 + 3 + 3 + 3 + ",
". . O O . . . . . . X .   . X X X   X + 8.eXrXeXj.#XbXBXNXNXNXNXNXNXNXNXNXNXbX%XsXAXhX#XgXdX.XjX4X+XfXeX| w 7 & % @ % % % % % @ ",
". . O O O . . . X . X X X X X X X X X + ` sXeXfXS.rXBXxXNXNXzXNXNXNXNXNXNXNXBX1XgXgXfXOXgXhXz.rXjXk.4X@X0X] 8 - & & & % 3 + % % ",
". O . O O   O   X   X . X X X X O X X O 0 }. XjX*Xp.cXxXNXNXNXNXNXNXNXNXNXNXNXyXgXgXfX.XgXhXE.+XjXXXXXE.5X$X] j 8 - & & 3 & 3 % ",
"O O . O O   X X X X X . X X X X O X X + 3 ) .XpXrXC.1XbXNXNXNXNXNXNXzX>XzXNXxX>XgXgXfX.XdXhXT.Y.rXjXE.*X5.-X@X] h j 8 7 4 3 3 % ",
"O O O . O O O O . O . O O O O O O O O + @ G $X@XaXT..XmXBXBXNXvXxX].'.xXNXBX>XyXgXdX+XXXlXdX*XE.+XaXR.=X9.@.6XrXP k j q 7 7 7 4 ",
"+ O O O O O . + + O + + O O O O O o o o & ) k.XXjX@Xj.nXBXBXzX>XvXBXNXBXNXmX'.uXgXfX9.R.jXdX6XE.R.7X2XP.=X+.+.=X+XP V j 8 8 7 7 ",
"3 . O O O O O 5 8.-.-.5 % 3 + O X o + @ 9 F $Xk.T.pXk.0XmXNXNXNXNXNXNXZXNXmXj.hXgXrXa.T.fXfXrXm.(._.7Xk.6Xm.$.#.C.Y.P k m j j q ",
"y -.f O O . . 5 |.9X:X:X8.-.y % o + @ - j J lX5.@X5X-Xg.nXbXBXNXNXNXNXNXNXBXj.fXdXY.q.R.fXfX6Xm.(.(.8XE._.3X2.o.X.S.Y.P Z Z j m ",
"s.}.].3 + X X O 5 d.sX].gX.XyX[ - = > ; c e.fXg.p.Y.rXXXe.iXmXBXNXNXZXNXNXBXj.fXpX0.#.R.kXfX5Xm.(.(.(.3XP.3X!.2.$.$.P.C.^ K Z N ",
"Y.g.lXU + X X O + =  .sXz.@Xz.hX.X' 4.] ] [.pXk.P.C.T.rXD.p.g.0XmXmXBXBXBX'.*.iX*Xi.2.=XfXfX*XM.(.(.(._.m._.7XJ.2.>.+._.9.~ ~ R ",
"a.9.-Xz.& o + X o o = ] 5.r.n.p.p.D.C.5Xz.@XfXS.I.m.*XT.rXT.p.;.g.XXwX1X*.I 5.jX;Xi.9.2XfXfXC.!.(.(.(.(.J.L.`.7Xb.>.>.3.2X| ~ ~ ",
"c.c.0.rX8.& + X + 5 H l | Z.G.v.w.b.v.A.rXS.0XT.I.!.p.6XY.2X!.~.u.A.P 2 Y A.p.rX;X9.u.rXfXdXp.C.U.U.I.U.J.a.I.3X8X>.>.o.C.C./ / ",
"G.G.v.T.rX .@ o o ` z.D.w.>.n.M.G.G.Q.G.r.iXiX5.n.~.P.A.rX*X=X!.~.w.+.r.H.W.A.3X2Xp.C.pXfXwX%XAXnX0X4.^ :.0.!.!.8X_.3.3.:.2X/ / ",
"G.G.N.G.T.S.& o o & D :.V.Z.A.N.c.v.Q.Q.A.n.rX5XV.C.I.k.aXi.2X!.~.M.1.W.Q.Q.^.D.jXT.k.jXhXj.mXvX].b A h B K p.I.R.8XI.O.( =X/ / ",
"Q.G.G.G.T.XXx o o o o & j 4.C.G.H.G.Q.Q.G.G.Z.H.C.-XC.C.S.XXp.3X(.).b.Q.G.G.G.c.5X6Xi.5XwX:XVX].t x x z x h ^ I.I.!.7Xa.Q R.( ~ ",
"G.Q.G.G.^.e.'., + + O o @ - K 5.q.;.$.1.w.<.n.G.F.kXfXi.6.7Xa.P.(.!.M.b.Q.G.<.c.0.jXR.C. XVXoXr z x u x x x G p.L.~.I.aX@.R.E E ",
"Q.Q.v.v.n.g.#XoX5 o + + @ & ; l n F.{.r.D.H.^.T.e.#XxXgXe.2XC.n.`.I.b.1.G.Q.Q.n.q.p.7Xk.[.VX) t t x t x u x h :.U.~.U.`.R.XXT T ",
"n.H.N.G.Z.F.bXZXy.= o o @ & > l I Y F.iX-X[.V.F.j.cXoX'.@.-X/.C._.!.n.2.N.W.Z.w.V.rXXX Xj.7.> : x x x x z x g | M.L.L.U.6X6.N M ",
"XX*.Z.C.g.bXCXCXZX..o + @ - j l I &.#.F.cXVXCXVX{.'.h.f.[ 5.-X9.p.=XC.Z.0.D.q.9.4XfX%XoXz. .t z x z t x x u t ^ m.L.L.K._.Y.M M ",
"' f.e.iXCXCXCXSXSX,X% + % - h I L X.$.;X{.BXCXCXCXVX.X'.VXx.P j.k.=XV.=Xg.*.XX-XfX'.cXVXh.x g x x t x x u u t h a.J.K.J.U.2XM q ",
"G mXmXnXCXSXSXSXCXy.* & & j l l L X.%.v.iX .h.h.-._ t v [ t.t.c i.+Xg.rXwXz.oX[.,XMX:X[ p x x z u t x x x t r j w.J.K.K.b.`.! 7 ",
"_ CX.X[.vXSXSXZX|.v 9 4 - j k I &.X.%.$.4.x , : , > : z x x z g h } e.iXj.'.:XmXzX8.v z z p x x u x x u t p : ; q.J.K.K.1.U.' 7 ",
"h.NX:Xd.>XCXZX]., p x c 8 j k K &.X.%.$.l z u p , , p u x x u x A c z ) >XSXVXoXU p p x u u u u p x t u p r = > 9.J.J.J.;.i.| 6 ",
"d.yX].:XoX9X_ : r v x x x 8 h K L X.+.L k x x v z , u x x u x v x x x , v y...p p u u u u u u u u t u p 9 > # ; 0.M.K.M.,.:.] 7 ",
"* h.MXAX=.w r t x v v x x c h K K ( Y V c S v v v v p p x i v v v v v x , , p p t i i i p u i i u u t r $ # # > q.J.M.J.;.^ ' 4 ",
"% i l...6 9 u A v v x v S x A V Z P c c v x v v v v p p x x v x v i i i p , y y u u u i u t i i u p r $ # $ # - a.b.N.J.:.B c 4 ",
"3 3 4 4 4 % 0 A S S S S u S A x g g c G v S S v x u v S x x v u u v v u p r r t u i u i u i i i t r # # # # # > a.a.b.N.^ c q 3 ",
"3 3 4 4 4 4 4 s A A G G S S S f i t v v S S v v v x x x c z x z x u x u u t r t i u i u i u p r * $ # # # # # - k.a.w.w.B 7 7 6 ",
"3 3 6 6 6 0 0 q A A A F A A F S d t u S S S v S v v x G P l h z x v u u v u t u u v u u i i r < # # # # # # $ g E.u.q.K 8 4 3 3 ",
"6 6 6 0 0 q a a m D D A A F S S A u u f v A A A v S x c Y I n z x u u v u v u u u u u u y r # # # # # # # # = G E.,.q.l 7 & 3 & ",
"6 6 0 q q a a m B B D D G F S S F A S A A G A A S x S z P n l c z u u u u u u u u u u u , # # # # # # # # # = } z.~ p.Z 8 4 4 3 ",
"q a a a M m M N N T N W F F F F F G A F D D Z D S v v x z b b n z t g x u u x x u v u * < # # # # # # # # # = s.d.M | Q 7 4 3 3 ",
"a M M M N N N T R R R E W W F F F F F ! W W N B x i v v v z 1 c > > 1 1 p p p u t r $ # # # o # o # # # # # * s.) 8 j ) 8 0 4 & ",
"M M C T T C T T R E R E E Q W ! ! ! ! W N N N B w 9 t 9 * : ; b : > 1 1 > , r : $ # # # # # # # # # # # # # * w 7 7 7 8 7 3 % & ",
"M C T E R R R T R R E E E E Q Q Q W N M M m m s d 9 9 * * : ; U > > 1 1 $ # $ $ # # # # # # # # # # # # # # : & 3 4 7 4 & @ @ + ",
"C C T R T R T T T T T T T T T B N B M m m a a 0 0 w 9 r * : > b $ $ > n > # # # # # # # # # # # # # # # # = 9 & % % 3 3 % % @ o ",
"C T C T C C T C C C C C N N N m M M a a q 0 0 7 6 6 r 9 * * > p $ $ > U < # # # # # # # # # # # # # # # # % 5 3 % % % % 3 4 % @ ",
"T C C C C N C N N N N M N m m m M a a 0 0 6 7 6 4 & 4 y r : : : $ $ $ $ # < # # # # # # # # # # # # # # # * @ % & % % @ 3 3 4 4 ",
"N C N N N N N N N m m m a a q q M a 6 6 6 6 3 3 4 4 4 3 5 9 , < $ $ < $ # # # < # # # # # # # # # # # # # * o % 6 5 3 % % 3 3 4 ",
"C N N N N M m M m m m q q q q 0 0 0 6 6 6 4 6 4 4 3 6 3 3 w * $ $ $ # < < # # # # # # # # # # # # # < # 9 = @ % % 0 6 4 4 5 4 3 ",
"N N m m m m a a q q q q 0 0 0 7 6 6 6 6 4 4 6 4 4 6 6 0 0 6 5 * < < < < < < # # # # # # # # # < < , y i y 6 3 % 3 6 6 q 0 3 % o ",
"M M m m q q q q q 0 0 7 0 0 6 6 3 6 4 6 3 4 4 6 6 0 0 0 6 4 w 9 , p p p < < # # # # # # # # < 5 p , y y d q 0 6 4 3 6 6 6 3 o o ",
"a m a a q 0 q 0 0 7 6 6 7 6 4 3 + 6 6 6 6 6 6 6 6 6 3 4 & w u 9 , r , p r r r < < # # # < < r r p r p y w w s 6 3 + o % 6 5 % o ",
"q 0 0 0 0 0 0 0 0 7 7 6 4 7 4 6 6 6 6 6 6 6 6 4 3 3 & 3 w A u u r r p p p p r r r r r , , r r r r r p y 0 6 0 6 % o o o % % 3 % ",
"0 0 7 7 6 6 6 6 0 6 6 4 4 6 6 6 6 0 6 6 4 4 3 3 & % 3 9 S d S d r : y i y p y y r p r y r y p r y y p y 5 % % 5 3 + o o o o % 5 ",
"0 6 6 6 6 6 6 0 0 6 7 3 4 6 6 6 6 6 6 4 3 3 3 3 3 & 6 f S v u u u r * r y y y y r r y y y y y y y p y r * o @ % 5 + o o o o + + ",
"0 6 6 4 6 6 6 6 6 7 6 6 6 6 4 3 3 3 3 3 3 3 3 3 6 0 d S v v v u u i * r r r y r r r y y y y p y y r r y = o o o % 3 % o o o o o ",
"6 7 6 6 6 6 6 6 6 6 6 6 6 3 3 3 3 3 3 3 3 4 4 4 0 d A S v d u v i i r r r y r y p y y y y y r r r y y y = o o o % 3 3 o o o o o ",
"6 6 3 6 6 6 6 6 6 6 3 3 3 3 3 3 3 3 3 3 3 3 3 3 d d A v v v i y p y p r r i r r y y r y r y r y y r p r @ o o o + % 4 % o o o o ",
"4 4 6 7 6 6 3 6 3 3 % 3 3 3 3 6 6 6 6 4 3 3 3 d f u u v f i u i y y y y r r r r r r y r y r y r r y y y o o o o o + 4 3 o o o o ",
"4 4 6 4 4 3 4 3 3 3 3 4 3 4 4 4 4 4 4 3 4 & d A v 9 9 i y i y y p y y y r r r r r r r y r y r y y r y r = o o o o = = % o o o o "
};
