/* XPM */
static char *Picsart_24_05_20_16_39_17_3631716213229[] = {
/* columns rows colors chars-per-pixel */
"64 63 240 2 ",
"   c #0D012E",
".  c #12002F",
"X  c #19002F",
"o  c #0D0030",
"O  c #130031",
"+  c #1B0033",
"@  c #1D023A",
"#  c #170039",
"$  c #220135",
"%  c #2C0434",
"&  c #240A32",
"*  c #2A0B35",
"=  c #24013C",
"-  c #2B023C",
";  c #230A3B",
":  c #2C0D3C",
">  c #320D3B",
",  c #360639",
"<  c #2E103D",
"1  c #32123E",
"2  c #38113D",
"3  c #29092F",
"4  c #45083C",
"5  c #55043F",
"6  c #1F0141",
"7  c #250141",
"8  c #2B0142",
"9  c #2C0C42",
"0  c #2A0D47",
"q  c #330044",
"w  c #330D42",
"e  c #35024B",
"r  c #3C014C",
"t  c #390948",
"y  c #2D1141",
"u  c #361444",
"i  c #3A1446",
"p  c #36144B",
"a  c #3C164A",
"s  c #3D184B",
"d  c #3A1947",
"f  c #3A0A55",
"g  c #3C1652",
"h  c #3C1853",
"j  c #3F2155",
"k  c #42024D",
"l  c #4C0C4B",
"z  c #480948",
"x  c #540B45",
"c  c #411346",
"v  c #42164C",
"b  c #4A134B",
"n  c #41194D",
"m  c #4B1848",
"M  c #581A4D",
"N  c #440252",
"B  c #490254",
"V  c #4B0756",
"C  c #54045B",
"Z  c #5A035B",
"A  c #590857",
"S  c #421652",
"D  c #431954",
"F  c #451B59",
"G  c #4A1B5C",
"H  c #4B1755",
"J  c #581956",
"K  c #631B58",
"L  c #751754",
"P  c #6A0D51",
"I  c #4C275B",
"U  c #59265B",
"Y  c #47244E",
"T  c #62255A",
"R  c #541968",
"E  c #560D63",
"W  c #641C66",
"Q  c #751564",
"!  c #73116D",
"~  c #5A2665",
"^  c #5C3668",
"/  c #6A2869",
"(  c #673669",
")  c #763575",
"_  c #6B2D74",
"`  c #754976",
"'  c #921C59",
"]  c #94235D",
"[  c #872A77",
"{  c #962F76",
"}  c #AF366E",
"|  c #821B6E",
" . c #824978",
".. c #B7426F",
"X. c #CC4E7D",
"o. c #7E3A82",
"O. c #7B4886",
"+. c #7A5484",
"@. c #9B3788",
"#. c #883183",
"$. c #AC398D",
"%. c #86488A",
"&. c #96498B",
"*. c #8A5996",
"=. c #985698",
"-. c #8E528E",
";. c #AA4796",
":. c #B6479B",
">. c #A7599B",
",. c #BC559C",
"<. c #A44288",
"1. c #8A6597",
"2. c #976798",
"3. c #8F6E94",
"4. c #B4689E",
"5. c #BA4CA4",
"6. c #AB59A4",
"7. c #BB5CAB",
"8. c #B757A5",
"9. c #BE5CB3",
"0. c #9D67A8",
"q. c #9B77A7",
"w. c #A868A7",
"e. c #B566A8",
"r. c #A978A8",
"t. c #B676AE",
"y. c #BA6BB3",
"u. c #BA76B6",
"i. c #AA79B6",
"p. c #C3489D",
"a. c #E97199",
"s. c #C84BA7",
"d. c #C354AB",
"f. c #C958A9",
"g. c #D358AC",
"h. c #C55DB2",
"j. c #C958B4",
"k. c #D859B7",
"l. c #C866AD",
"z. c #C967B8",
"x. c #D967B8",
"c. c #C47BBC",
"v. c #C575B9",
"b. c #DA74BD",
"n. c #D470A3",
"m. c #E36BBD",
"M. c #EA6BBE",
"N. c #E363BA",
"B. c #E27BA6",
"V. c #D561AC",
"C. c #DE5AC1",
"Z. c #E35EC6",
"A. c #D464C2",
"S. c #DB6BCA",
"D. c #D868C4",
"F. c #C97BC3",
"G. c #DC74CC",
"H. c #D779C7",
"J. c #DD7BD2",
"K. c #E46EC2",
"L. c #EB6DC2",
"P. c #E368CB",
"I. c #E471C3",
"U. c #EA70C5",
"Y. c #E66BD3",
"T. c #E577D5",
"R. c #B987B9",
"E. c #B089B2",
"W. c #F58D95",
"Q. c #F8889B",
"!. c #C187BE",
"~. c #F382A4",
"^. c #EA81AA",
"/. c #BA8FC6",
"(. c #C685C2",
"). c #CA88C6",
"_. c #D38BCC",
"`. c #D886C9",
"'. c #C997C8",
"]. c #D293CD",
"[. c #D19DCD",
"{. c #DB87D3",
"}. c #CA9CD7",
"|. c #DB94D3",
" X c #DA9AD4",
".X c #DB96D9",
"XX c #D798D4",
"oX c #E78ADA",
"OX c #E29CDC",
"+X c #E893DB",
"@X c #EC97D0",
"#X c #CBA0CA",
"$X c #D7A6D7",
"%X c #D8B3D8",
"&X c #CCA1D9",
"*X c #E3A5DD",
"=X c #E8B2DE",
"-X c #EC92E2",
";X c #E79AE3",
":X c #F598E7",
">X c #FF9DF5",
",X c #EE86E1",
"<X c #DBB1E3",
"1X c #E6A4E3",
"2X c #E5ABE3",
"3X c #EDACEA",
"4X c #EAA7E6",
"5X c #F4AAEC",
"6X c #F7A6EB",
"7X c #E7B2E6",
"8X c #E9B7E9",
"9X c #F1B3EE",
"0X c #F6B8ED",
"qX c #F5ACF2",
"wX c #FCA9F6",
"eX c #F4B5F2",
"rX c #FCB5F5",
"tX c #F5BCF4",
"yX c #FABAF6",
"uX c #FEB5F9",
"iX c #FCBCFA",
"pX c #F6BFF8",
"aX c #ECB2F2",
"sX c #DC9AE1",
"dX c #EAC5E9",
"fX c #F2C9EE",
"gX c #ECCCF2",
"hX c #F4C3F2",
"jX c #F5CCF1",
"kX c #FACDF5",
"lX c #FCCCFA",
"zX c #FBC6F9",
"xX c #F4D3F3",
"cX c #F9D1F6",
"vX c #FDD3FD",
"bX c #FDDCFE",
"nX c #F6DDFC",
"mX c #EFD2F1",
"MX c #F9E1FC",
"NX c #F7E0FA",
/* pixels */
"    . . . X % l L } a.Q.Q.W.W.W.W.W.Q.B.4.0XtX$X9XtX9X].aX XhXyX1X>.e.>.=.*XyXOX4X3X0X'.J J J ( eX~ e 8 7 = = @ + = = $ = + + + ",
"    .   . X $ , M ] X.a.Q.W.W.W.W.W.~.B.^.0XuX$XyXpX!.eX).yXpXtXu.XXzX!.t. X3XXX4X).pXyXe.J J (.uXi.e 8 8 7 = = $ $ = = @ + $ + ",
"      . . . + % x L ] X.~.Q.W.W.W.Q.~.n.0XyX].tXpX4X1X*X2XzXtX7XE.lXlXR.$XhX8X XOXOXpXyX3X&.) eXiX$Xf 8 8 8 = 7 = = $ = = $ + + ",
"    . . . . O $ , x L ] X.Q.Q.W.W.W.^.n.0X*X1XrXeX).eX_.tXtXtXt.hXlXlXlXcXlXlX=XXX*XtX8Xu.c.(. XpX9XG q 8 8 8 = = = = = = $ @ $ ",
"    . .   . . X % , 5 L } X.a.Q.~.Q.~.n.5X XyXyXXX3X X3XtXtX2X2XkXfX!.fXlXvXxXkXkXhXhX].&.e.`.c.eXtX_ q 8 8 8 8 = = = $ @ $ @ $ ",
"            . . X 3 4 5 L ' } a.a.B.^.@X|.eXeX1X_.iX].iXtXtX).r. .(  .!.fXxXxXxXxXxXkX].` [ u.v.pXpX%.8 8 - = 8 7 = = @ @ @ $ @ ",
"          . . . . X % 4 5 P ' } X.a.l.^.rX9X_..X1X3X2XpXtXtX'.=X$Xr.T ( fXxXxXmXxXxXcXfX[.t.>.!.eXtX0.q 8 = 7 = 7 7 7 = $ @ $ = ",
".             . . X X 3 3 4 P ' ] } ,.rXrX).rX(.eXXXaXtXhXtX[.lXjXjXhXE.xXxXxXxXxXjXjXcXlXkX>.OXrXpX*.8 - 7 = 8 7 7 7 @ = = @ = ",
"            . . . . . X $ , 4 x L <.5XrX!.4X9X*XuX(.tXhX0X8X$XkXjXfXjXxXxXxXxXxXxX#XE.xXcXlX-.3XeXtXO.- 8 7 7 = 7 = 8 = = @ $ = ",
"            O O   . . . X $ % 4 &.6XyX1X|.uX_.eXrX!.tXtXhX8X$XcXxXxXxXxXxXxXxXxX#X`  .=XkXzXt.0X4XeX~ 8 8 8 8 8 7 = 7 8 = = $ @ ",
"              . .   . . + + , =.rXF.qXy.rX4X_.yXrX(.tXtXtX7X%XcXxXmXxXxXmXxXxXxXmXdXX.Y $X=XXXrX2X4XS 8 8 8 8 = = 7 8 = = = = @ ",
"        o   o   . . . X + ; w.eXu.].|.;XrXc.rXyXrX!.tXtXtX7X$XcXxXmXxXxXmXmXxXxXmXmXNX%XR._.rX*XaX].r e 8 8 8 7 8 = = = 7 = 7 $ ",
"              o   . O + p i.aXw.~ ;XF.uX:XF.rXyXrXu.yX0XtX7X$XcXxXxXxXxXxXxXdXxXmXmXjXcX*X`.uX].eX%.r e q 8 8 8 8 = = = = 7 - = ",
"                . . + F /.3X*.V u.F.{.uXJ.H.rXtX6Xy.eXtXtX7X$XcXxXfXxXxXxXxXxXxXxXdXjXjXv.6XqXOX1XH N r e q 8 8 8 = 7 = = 8 7 = ",
"        o o o o O + F }.}.~ - ) wXA.uXoXH.{.uXyX:Xy.4XyXtX8X$XcXfX!.%XdXxXxXxXxXxXxXxX!.`.uX*XeXw.B N r e e 8 8 8 = = = = = = = ",
"        o o o O O ^ <Xw.t - H sXF.-XwXJ.D.oXyXuX:X8.+XyXtX8X$XcXxXxXfXdX%X%XxXxXmXxX0X4.5X0X).qXW N N r r e e 8 8 8 8 = 7 = 7 $ ",
"              . ^ }.1.8 $ c F.sX7.>XT.T.A.-XiXuX:X5.y.uXiXaX$XvXxXxXxXxXmX%XdXxXcXlX_.`.uX.X3Xw.V N B B N r e e 8 8 - = 7 = = = ",
"            . j &XO.7 @ f u.wXF.-X,XY.Y.A.-XtXuX-X;.<.6XrX8X#XvXxXxXxXxXxXxXjXcXcXhXv.6XqX.X;Xy.C C C B N N r q e q q 8 8 - = - ",
"        o o : &X+.@ O e 0.wX{.A.>XY.Y.Y.A.-XuXyXoX@.7.`.rX7X'.cXxXxXxXxXxXxXcXlXzXe._.uXF..X_.y.C C C C R =.R o.r e q 8 8 8 8 - ",
"        o # *.E.- O e 0.qXJ.h.T.Y.Y.Y.Y.D.oXuXuXoX@.h.z.uX2X!.cXxXxXxXxXcXcXlX0Xc.c.wX_.OX6.rXu.C W 6.-.sX).aX*.N r r e q ~ H q ",
"o o o o O Y }.9 # e 0.qXT.S.C.T.D.S.P.P.S.{.uXiXoX5.d.H.rX@XM !.cXcXcXlXzX3Xv.6.H.qX|.+X7.v.rX(.%.4X).9X].eX6.C B k r r z )._ ) ",
"o o o o O 1.q.+ 7 0.uXoXG.9.h.h.{.H.7.6.6.F.uXuX-X:.j.D.uX!.>.5  .=XOXt.>.;.z.I.wXH.OXe.8.l.OX].iXF.rX!.zX#.E C C B V k %..X) 8.",
"    o o + /.^ - =.qXJ.S.A.! W ) _ (.vXvXlX[.pXuX:X;.z.D.wXe.b.f.P 5 @.l.d.A.G.:X_.;X(.e.0X*Xv.`.z.l.7.l.o.C C Z C o.sXW ].{ e.{ ",
"    o o $ /.H _ :XJ.S.A.#.l l v v m '.bXbX&XtXuX>X;.x.:X:Xx.U.U.l.| :.j.P.T.>X{..X3Xu.zX X`.@X<.x.m.x.| ! ! Z Z C F.4Xe.e.$.z.P ",
"o o     + /.) 6XG.S.S.@.l b v b v v ^ cXbX%X9XuXoXz.+XwX5.U.U.U.M.p.k.P.T.:X{..X3Xt.yX`.,.x.:.g.m.C.#.{ z.S.#.Z A 6X`.oX$.x.{ | ",
"o o   o + 0.{.G.S.P.A.Z l v v v v v m 3.nXfX].5X7.G.wXl.:.x.L.U.N.s.P.P.oXoXv.w.).iXb.l.m.M.f.p.g.g.g.x.5.! Z A 6.{.<.p.:.x.:.f.",
"  o   o $ =.,XC.Z.D.@.l c v v v v D n n dXvXu.e.H.wXy.5.g.s.N.L.s.P.P.T.-Xe.`.{.:Xb.f.m.U.N.N.M.L.K.d.[ Z C Z #.>X;.f.x.N.M.g.p.",
"o o o o e sXS.Z.Z.x.A l v v S v n m n v r.8Xt._.;Xv.oX8.5.K.U.N.s.k.S.wXu.XX(.b.f.b.m.m.x.x.N.m.x.@.A B B N R wXH.b.p.M.M.M.M.g.",
"o o o # %.oXC.C.Z.k.l v v v v n v S v v H 2.t.2.1XrX{.H.l.x.m.$.@.A.oXv.!.lXe.G.M.g.f.V.l.8.:.;.-X6.r r k r %.iXI.L.p.M.M.M.M.g.",
"o o o = .XH.s.Z.Z.5.l v v v v v v v v v c r.lXhX[.eXqXy.6.;.H.@.:.x.>X].vX=Xe.l.b.b.n.l.@XiXD.H.-X=.q q e r o.uXI.L.g.M.M.M.K.} ",
"  o o 0 3Xj.$.C.C.5.V v S v v v v v c v b +.MXbX8X'.eX.X*Xt.w.6Xj.G.-X).[.7XzXe.e.t.*XlXuXz.D.T.;X#.q q , ~ >.:Xm.M.N.M.L.K.$.Z ",
"o o o h ;X#.$.Z.S.$.V v v v v v v v i i v U bXMXMXnXR.2X'.gX[.iXe.7.M =.R.R.r.0XvXbXbX9Xe.D.S.>X_.H - - t 8X!.4.$.:.p.g.m.5.E Z ",
"    . F {.Q s.C.C.d./ v v a s v v v v i 2 d <XMXNXMXMX8X'.r.2.zX%.K u.8XE.R.kXbXbXbX'.) x.A.S.wXo.w = % 3.vXlXv.b.m.m.x.e.K k B ",
"    . a u.Z s.C.k.d./ v v s n v a v v v i d E.MXMXNXMXMXbXdXR.2.J t.E.` v ~ +.3.3.` m J j.A.:X).f = $ ~ gXMXbXlXv.x.b.;.y.l k z ",
"  o . + +.k d.k.k.7./ w i i v v v s v n v i ` MXMXNXMXMXbXbXR.c n v v v d > > > > 2 c b 6.{.;XG = $ : /.MXMXnXbXbX X4.t._ z r q ",
"    . O w , :.g.j.5.J % i a i s v s v v v c Y %XMXMXMXmX%X2.Y i v s v v v i > 1 w i i z #.u.~ = $ + ; %XnXNXNXnXbXcX0XvX) q t q ",
"o       . % [ d.s.5.J - : i d v s v S v s v a I E.dXE.Y 2 i c v v v v v v d ( d v a v c b R - + + + , ` gXMXnXcXvX].R.vX'.i , q ",
"          X z @.9.6.G * * 1 i d s a v v v v v v s d u w w i v v s v v v v U $Xv v v v v m v 9 + + = p i ^ dXnXnXlXE.$X}.lX+., - ",
"    o o   X , ) 8.6.H * & * u i s v v s a v c v i i > > i a v v v v v v l M ( s v n S v S n p $ $ w s s y d E.gXlX&XR.E.gX^ - > ",
"    o     X % =./ =.~ % & & < i s a S v n s v v v u u i a v S v v v c v x M b v v n v n s n a w w a g v s d : d ^ E.hXlX1.: : - ",
"o o   o   O n ) q %.` $ & & & < i a s n n v s v a w i i v a a v v c l M x x M b v v v v v v s g D s s D S v a w $ 9 q.E.9 $ : ; ",
"o o o o o @ I - 7 ^ +.$ & & & & 1 i v a a s s s v a v a s a a v v c M x L M l b m v v S v v w s S S S S D D h ; + + + * + $ $ $ ",
"o   o o   @ ; O O ; I < & & & & & u i i s a a a a a v a s a c v v c K 5 x U m v v n v n v p w v s D D D D h 0 $ O + + X + + + + ",
"O     o .   . O o   < & & & & & & * u d a a v a a v a a a v c c i i M 5 b m v v v v n S s i v D D F D F F p @ # + O O + . + + + ",
"@ O o o o     o o o O ; & & & & & & * u a a v s s a v a d m 4 M , , M 4 4 d v v n s n n n s D F F F H D h = O O + X . + . . + + ",
"@ O o o o o o o o   O ; & & & & & & & & u a i a v a a s d 2 4 4 3 3 M , 2 2 1 1 u w i n v S G D F F F D 9 # O O . . + . X X + . ",
"y O o o o o o o       & . & & & & & & & * u s s v i c i * 3 4 2 , > M 4 3 < > < > 1 i D S D G G G G F g # O O . . . . + . X . O ",
"O O O o   o o o       & & & & & X & & & & * i d d d 1 * 3 2 m 3 3 , m 2 > < < < 9 s s S S F G G G F h 7 O o   o . . O O X . + . ",
"O O .           o O O ; & & & & & & & & & & & u u < & & & > > 3 * * 2 > < < y < y - g D F G G G G F p # O o o o O . O . . . . . ",
". . . O . o     o O . @ y < < < & & & & & & & & & & & & 3 & & 3 * * * : : y y : + O 9 F F G G G G h # # O o o o .   . . O . . . ",
".   . . .     . O . . . y d u 1 * & & & & & & & & & & & & & & & & * * < y 9 @ # o O # 0 F F F F h = O O O o o O O   O o   . . . ",
"O . O . .   O   . . O . y d i d d < & & & & & & & & & & & & & & & & : < ; O o O o o o # p h F h ; O O o o o o     . O O . . . . ",
". . . . O   O O . . . X y u a s s u 1 & & & & & & & * & & & : 1 1 < < < # O O o . O O O O @ 0 @ . . .   . O   O O O o o . . . . ",
". . O . O   O O   . . . y u p a i a u u : & & & & & & & < u u d d 1 < @ O o o O .   o o o o # o o o . . .   O O O @ # # + O .   ",
". O . . O O O o . O O X u u i a a s d i d u < < d 1 u d d d a a u w a y O O O .   . o o o o o o     o o . O O # 8 f f e 8 $ O . ",
". . . O   O O O . . . . y i p a a a i u d u d u d d d d d s u u : p a h 7 O o   O o O O     o o   o o o   O O = f R _ R f ; + . ",
". . . O . . O . . . . X y d a p a a i u p a u a u d p d p a u 9 u a g g p O O o o o # o o o o o o o o o o O # 6 f R _ R 0 @ O O ",
". . . . . . . . O O . X u d i a u s s u u u p a p s p d a a : u a s g S g 9 # O o o o o     o o o o   o o o o @ e f f e 7 6 O o ",
". . . . . . . O   . . . u p a a a a i a s p d d d p a u u u : a a a S S h h = o o o o o o   o o o O O O o O o # 6 6 6 6 + O O . ",
"X . . . . O O . . . . . y u a i i p a i u u p u u d i a i 9 i i a a a g g h h @ o o o o o o o o o o o O o o O o # # # # o   .   ",
". + . . . . X O . O O X y s i a a i a p u i i p a i a u i i a p a a s s S D h 0 o o o o o o o o o o o o O o o # O O o o o       ",
"+ . . + . . . . . . O O y p s u d p u u p p u u u a a a a i p i a p a S s S S g 0 o o o o   o o o o o o o o o o o o o o   o     ",
"X X + . . X + O O . . . 9 p u i d p u s i i u i p u u u p i i i p a a a s f a a p 6 o o o   o o   o o o o o o o o o o o o o o o "
};
