/* XPM */
static char *Picsart_24_05_20_16_40_20_5871716213423[] = {
/* columns rows colors chars-per-pixel */
"64 63 240 2 ",
"   c #16002E",
".  c #1D062E",
"X  c #0D0036",
"o  c #0E0139",
"O  c #140035",
"+  c #1B0034",
"@  c #130139",
"#  c #1E0039",
"$  c #220B2F",
"%  c #28082F",
"&  c #230135",
"*  c #2A0534",
"=  c #230B32",
"-  c #2A0B35",
";  c #24013C",
":  c #2A023D",
">  c #2D0D3B",
",  c #320434",
"<  c #34033C",
"1  c #3B033D",
"2  c #330D3C",
"3  c #380837",
"4  c #2E103D",
"5  c #32113E",
"6  c #39113E",
"7  c #46073C",
"8  c #41143F",
"9  c #270140",
"0  c #2B0144",
"q  c #2F0844",
"w  c #320145",
"e  c #3B0343",
"r  c #330C43",
"t  c #3D0B44",
"y  c #34014A",
"u  c #3B004D",
"i  c #350D49",
"p  c #3A0C4D",
"a  c #361445",
"s  c #3A1446",
"d  c #3C164A",
"f  c #3D194B",
"g  c #381547",
"h  c #3F0051",
"j  c #3F1551",
"k  c #3A1D55",
"l  c #42044B",
"z  c #440B4B",
"x  c #490847",
"c  c #570A48",
"v  c #421246",
"b  c #42164C",
"n  c #4C134D",
"m  c #42184D",
"M  c #491847",
"N  c #53134C",
"B  c #56174C",
"V  c #440155",
"C  c #490255",
"Z  c #4C015B",
"A  c #490B58",
"S  c #51015D",
"D  c #510B5C",
"F  c #550A55",
"G  c #451653",
"H  c #4B1353",
"J  c #441951",
"K  c #4B145A",
"L  c #491958",
"P  c #531352",
"I  c #571758",
"U  c #630C4C",
"Y  c #650C5A",
"T  c #661A57",
"R  c #721055",
"E  c #592459",
"W  c #512C5E",
"Q  c #67225C",
"!  c #540161",
"~  c #5A0266",
"^  c #5C0269",
"/  c #590A64",
"(  c #62026D",
")  c #67096B",
"_  c #691466",
"`  c #660172",
"'  c #6C0273",
"]  c #6F0A73",
"[  c #760576",
"{  c #76146B",
"}  c #5A2662",
"|  c #682767",
" . c #752769",
".. c #683769",
"X. c #782778",
"o. c #7A3876",
"O. c #6E3772",
"+. c #7D497B",
"@. c #714D7C",
"#. c #87145B",
"$. c #951869",
"%. c #85077B",
"&. c #8B167C",
"*. c #8C1370",
"=. c #AA1A74",
"-. c #89246A",
";. c #992C7D",
":. c #902D75",
">. c #AC2E7F",
",. c #82487C",
"<. c #6E4780",
"1. c #8D0581",
"2. c #A81888",
"3. c #8A3986",
"4. c #983986",
"5. c #BB2789",
"6. c #A43888",
"7. c #AB3A94",
"8. c #B03290",
"9. c #B93FA4",
"0. c #C03393",
"q. c #884986",
"w. c #995696",
"e. c #92508D",
"r. c #A94998",
"t. c #B4479C",
"y. c #A55798",
"u. c #B34893",
"i. c #92649B",
"p. c #A1679B",
"a. c #BB48A4",
"s. c #A958A3",
"d. c #B859A6",
"f. c #AD52A9",
"g. c #986BA4",
"h. c #A965A6",
"j. c #B568AA",
"k. c #BC68B3",
"l. c #BB73B2",
"z. c #BD7DB9",
"x. c #B878B6",
"c. c #AD76AC",
"v. c #C94D9E",
"b. c #C34CAC",
"n. c #C658AC",
"m. c #D258AA",
"M. c #C858B4",
"N. c #DB5BBE",
"B. c #D65DB8",
"V. c #CE4DB2",
"C. c #C366AD",
"Z. c #C768B7",
"A. c #D463BD",
"S. c #D967B7",
"D. c #C374BC",
"F. c #C579BA",
"G. c #D872BC",
"H. c #E46BBD",
"J. c #E468BB",
"K. c #DF5DC4",
"L. c #E15CC4",
"P. c #DB64C5",
"I. c #DC6CCB",
"U. c #D868C5",
"Y. c #CB7AC2",
"T. c #DA78C8",
"R. c #D874CE",
"E. c #E66BC8",
"W. c #E373C5",
"Q. c #E46BD2",
"!. c #E968D3",
"~. c #E57BD6",
"^. c #BA86BA",
"/. c #AE87B5",
"(. c #C884BE",
"). c #BE8FC5",
"_. c #CA89C5",
"`. c #D38CCB",
"'. c #D886C9",
"]. c #CB96CB",
"[. c #D293CE",
"{. c #D29BCD",
"}. c #D98AD3",
"|. c #DC94D4",
" X c #D59BD3",
".X c #DB9CD5",
"XX c #DD9EDA",
"oX c #D495D2",
"OX c #CC96D3",
"+X c #E788D9",
"@X c #E39CDC",
"#X c #E796DA",
"$X c #E98AD4",
"%X c #DAA3D5",
"&X c #D9A6D8",
"*X c #DBB4D8",
"=X c #D0ACCE",
"-X c #E4A7DE",
";X c #E0B0DA",
":X c #E797E4",
">X c #F798E9",
",X c #FF9CF3",
"<X c #E98FE6",
"1X c #DAAAE2",
"2X c #D9B5E3",
"3X c #E4A5E2",
"4X c #EAA4E5",
"5X c #EAAEE6",
"6X c #ECADE9",
"7X c #E3AAE5",
"8X c #F3ABEC",
"9X c #F8A7EB",
"0X c #E9B5E8",
"qX c #F2B7EE",
"wX c #FCA5F4",
"eX c #FDACF3",
"rX c #FFABFB",
"tX c #F9ABF4",
"yX c #F5B5F2",
"uX c #FBB5F5",
"iX c #F5BBF4",
"pX c #FABAF6",
"aX c #FEB5F9",
"sX c #FABCF9",
"dX c #F5BFF9",
"fX c #EAB7F1",
"gX c #E8C7E9",
"hX c #F0C9EE",
"jX c #F4C3F4",
"kX c #F4CCF3",
"lX c #FACEF6",
"zX c #FEC4FA",
"xX c #FECCFB",
"cX c #F9C3F7",
"vX c #F4D3F3",
"bX c #F9D1F6",
"nX c #FCD2FB",
"mX c #FCDCFE",
"MX c #F7DFF9",
"NX c #F9E0FC",
/* pixels */
"X X X X X X X X X X X X X X X X X X X X X X X X   ..q.H H n n M H N H N | _.%X(.%X%X%X].^.%X&X=X&Xc.r + O O + O     + + + + + + ",
"X X X X o X X X X X X X X X X X X X X X   X X   5 *Xg.I I I I O.h.q.@.:.e.w.`.qX.XjXhXcX{.5XjXjXjXcXg.: # + + + + # + + + + # + ",
"X X X X X X X o X X X X X X X X X X X X X X X   e.dXXXI I Q ].yX0XdX5XzX5Xl.`.`._.jXcX%XjX_.jXdXOXdX0Xd * # @ # # + # # # # # + ",
"X X X X X X X X X X X X X X X X X X X X X X X   ).pXpXo.| oXsXsX_.yX3XyX[.y.l.`.F.5XcX5X.XoX&XsX3X5XzXw.: ; ; & # # # # & # # & ",
"X X X X X X o X X X X X X X X X X X X X X X o W fXcX|.F.Y..XiXiXz.yX4X%X5Xx.;XzX{.].pXiX_.5X_.pXsX&XdX5Xj & & # # # # # ; # # # ",
"o o o o X X o X X X X X X X X X o X X X X o O i.dXdX`.h.|.F.iXdXz.-X0XzXcXqXzXbXzXi.iXjXdXoX.X6XsXoXiXcXO.: & & ; # & & # ; ; # ",
"o o X X o o o X X X X X X X X X X X X X X @ + ).dXyXD.s.j.e.7XcX0XkXlXbXlXlXbXbXxX].0XiXsX_.8Xl.pX3X3XdXi.w : : : ; ; ; # # ; ; ",
"o X X X o o X X X X X X X X X X X X o X X O ; 1XdXfX:.F._.0XxXbXbXvXvXvXvXhX*X;XlXqX%XsXyX5X`._.6XiX_.sXx.l e 1 < w : 9 9 9 9 ; ",
"X X o X o o o X X X X X X X X X X X X X X O q fXjXpX .pXlXbXvXvXvXvXvXvXvX/.p.,.c.=X.XuXiXiX`.6X@XiX-X6X[.T c x x t u w : : 0 : ",
"o o X X o o o o X X X X X X X X X X X X X O i fXiXcX,.cXbXbXvXvXvXvXvXvXgXE o.(.(.=X(.pXiXdXoXyXz.yXyXF.8X .U U c x l e e w e w ",
"X X X @ o X @ X X X X X X X X X X X X X X O r 7X-XiXF.kXlXqX=X;XvXvXvXvXgX=XvXMXlXlX%XcXiXiXXXyX(.[.yX6X#Xe.R R U U c x l l l l ",
"X X X o X X X o X X X X X X X X X X X X X O : 1X-XiX-X0X%X..B ,.0XvXvXvXvXvXvXgXgXbX{.jXiXiX&X6X3X|.|.uX'.C.$.#.#.R Y F F F F C ",
"o o X o o o X X X X X X X X X X X X X X @ O ; OX-XyXuX[.e.,.gXkXvXvXvXvXvXvXvXvXhXbX{.iXiXiX-X4XpX[.3X8XyXC.>.=.$.#.#.R Y Y S F ",
"o o X X o o X X X X X X X X X X X X X @ X + ; c.:XyXaXl.5XlXbXvXvXgXvXvXvXvXvXvXvXlX XiXiXiXXXyXpX`.yXz.uX$X$.>.=.=.*.*.*.) ) ( ",
"@ o @ @ @ o X X X X X X X X X X X X X O @ + : E 4X@XaX`.(.xXhXhXvX*XhXvXvXvXvXvXbXhX%XiXiXiX XiXpX_.pXXX4XuXW.0.5.5.=.*.%.*.' ) ",
"@ o @ @ @ @ X X @ X X X o X X X @ @ @ @ O & < n |.oXuX4Xl.zXbXvXvXvXvXvXvXvXvXvXbX*X5XiXqXiX[.pXuXF.uXpX[.eX9XV.5.5.2.=.%.%.[ ' ",
"@ @ o @ @ @ @ X @ @ @ @ @ @ @ @ @ @ @ O # * 1 N h.|.uXyXj.sXlXvXvXvXbXvXvXvXkXvXvX].qXiXdXyXF.uXaXx.4XaXx.tXs.rXb.9.2.2.1.1.[ ' ",
"@ o @ @ @ @ @ O @ @ @ @ @ X @ @ @ @ O + & 1 c U r.#XyXuX(.|.bXvXvXvX*X*X=X*XgXbXlX].dXdXpX_..XpXaXF.}.aX|.XX}.}.>X8.2.2.1.1.[ ' ",
"@ o @ @ X X # & # @ @ @ @ @ @ O @ O + & 3 7 U  .F.F._.aX#Xl.bXvXvX=X*XMXvXvXvXvXlX%XqXiXuXD.@XsXrXY.R.rXtXY.8X@X+X<X&.&.1.[ ' ` ",
"@ @ o @ @ k i.g.<.d a ; + O O O + + + * 7 7 R -.Y.j.'.4XeXj.lXlXvXvXvXvXhXvXvXvXlX&XiXuX>Xk.>XuXaXY.~.+XrXD.tX`.k.}.+X&.[ ' ` ~ ",
"@ @ O @ @ : /.fXi.fX/.].W q & & & # & 3 7 U #.:.'.Y.r.k.eX#X`.zXbXvXvXvXvXvXvXbXiX5XdXuXf.Z.9XuXaXF.Q.Q.,XY.<X:Xk._ <XR.] ( ^ ! ",
"@ @ @ @ O @ & @.fX_.%X4Xx.7Xs.E w.O.3 3 c R -.>.#XT.G.n.Z.wXD.l.lXbXbXbXvXvXvXvX].qXpX#X6.Z.tXpXaXY.Q.!.~.~.R.rXf./ ) <Xf.! Z V ",
"@ @ @ @ @ @ O # f ^.s.C.u.:.u.d.`.9Xe.7 U #.:.G.#X$XB.9.Z.~.,XZ.y.$XcXbXbXvXbXhXp.uXaXZ.u.Z.uXpXaXZ.Q.!.Q.Q.I.,X}./ / X.<XX.Z h ",
"O O O @ @ @ + # * 7 >.S.W.H.J.J.u.C.uXC.Q #.,.C.9X~.M.E.b.A.>X+XZ.C.r.|.qXcX%XQ o.aX8X4.A.A.uXpXaXZ.Q.!.Q.Q.M.Q.rXf.S Z 3.3XD e ",
"& O @ @ O O + } w.4. .;.J.m.J.J.J.m.d.9X9Xy.F.F.uXT.b.!.V.K.r.,X~.m.A.G.Q U 7 >.y.eX'.n.a.$XuXpXwXk.I.I.I.I.9.I.<XtX_ C z x.Y.u ",
"/.k + + X O O L q.k.D.v.J.J.v.v.J.E.S.v.#X9X(.`.#XZ.b.!.L.b.U.A.,XI.b.n.4.-.d.G.n.eXW.Z.4.>XuXpXXXy.3.{ { r.V.P.R.rX:XD e } fX| ",
"/.2Xf + O O O + * e | y.G.W.H.W.J.J.S.S.m.G.$XsX.Xj.n.!.!.a.Q.7.+X>XQ.b.H.H.H.H.G.$X>XZ.r.wXpX7X,.z K n K F 3.n.I.~.aXe.t t OXs.",
"gXNX/.q + + O O + & * 1 F y.C.6.$.u.S.S.J.H.F.4XnXzXr.Q.Q.V.I.t. .tX~.P.8.H.W.H.W.u.rXT.y.9X[.z z z v v b v c X.I.Q.<XtXO.0 e.x.",
"MXmXNX/.+ O + + +   + & * , < e..Xy.C.G.W.'.e.(.7X].Y.U.C.:.A.n.'.F.wXW.B.S.H.H.u.u.G.#XD. .8 3 t v d v v v v x M.I.U.,X}.V } OX",
"MXMXNXgXa + + + + + + + + + & < ..%XeX_.(.(.(.XXcX%Xw.q.I Y A.A.}.|.wX+Xt.8.H.m.H.Z.j.l.| 1 3 6 b d v d s b d x r.P.P.~.tXw.z _.",
"MXMXmX].r O + + + + # & # # & < 7 N j.nXnXmXnX*X(.c.xXe.x F U.a.l.zX4X:Xn.;.S.H.C.@Xh.o.e v v d d d b d d d s < 3.U.K.P.+X#XF _.",
"NXNXmX@.a ; + + +   + + + # ; : 7 n B E hXmXmXnX@.6 s ].*Xc Z.r.y.zX@X9XC.C.d.$X#X| n v v v b d v f b d b d d < X.f.I.P.U.wX3._.",
"MXNX^.d d d d ; + # + + + # * w < x P P ....W 2 , s d b b v F O.E x.XX8Xl.sX|.w.E M b b v d b d d d M d v d 6 , Q d.E.L.K.+XtXq.",
"gX/.a s f m j d > & + # # & ; : < x P P n v 6 - 5 s m b J b b b b J q.-Xc.oX} J d v f d f f b d d d v b d m a - t k.A.L.L.Q.eX| ",
"5 5 s d m b m m d i * & # & & 0 w z H b M b m 2 2 d f b b m b b b b v v E s b f m d m m d b d d d d d f d d 5 , < f.N.L.K.K.>Xo.",
"= f g f m m m b m d d s ; & * i b J J J G b J b d m f b b M m b b b b b r 6 d d s m s d b s d d d d d d a 5 = - < w.M.L.N.7.T.e.",
"@ & a d J f m J b m J J g i d b G J J J m m b m b d v d b b b J m b b m a > a d M s f f d d d d d f a 6 4 $ = - < w.a.N.N.7.f.y.",
"# # 9 g j b m b m m J J m r i d m m J J J m J b b z t v v f m b b b m b d 5 2 d s s f s d d d d s 6 4 - - $ = * * w.t.K.N.u. .w.",
"# # # : g b m b J J J J m s i f m m m J m J L H S D | G b v b M d f f d d a a d f f s d d d d d 5 4 % - $ $ = $ , w.t.K.N.7.c q.",
"# + # # : g m J J m J J J J d j m J J J n K D ) _ _ D H b b s s b d d d d d a d s f m f s s 2 - - $ $ $ - $ $ * : y.a.B.A.:.l } ",
"# # # # # ; g j G J J J G J k G J J L H I ) ] ] ] ] H b b v M x v d d d d d d f f d d a 5 - - = $ = = $ $ = = - < h.t.a.M.Y 1 r ",
"# # 9 # ; ; ; i G G G L L G L L K K D D / ( [ [ ] / G G b n M B n v v d d f d s d a a - - $ = $ = = $ $ . . = = < Z.9.4.t.C < : ",
"9 # 9 # : : 0 : q p G L L L K K D / S ( ` ] ' ' ^ / G J b n T T 7 B v d f a f a > - - $ = = = = $ $ = . . $ = = H z.a.4.3.e : ; ",
"9 9 9 9 : 0 0 y u y V A K K D D S / ( ` ` ` ` ^ D D L J J P B c c B v v s 6 5 - = = = = = = = = $ $ = = $ $ # = | Y.r.&.x : 0 0 ",
": : 0 0 0 w w y h h V V Z Z ! ^ ^ ` ^ ` ` ( ( ~ D K G G J b M v B 7 7 B 6 5 4 $ = = = = = $ = % = = = = $ $ $ > <.k.4._ 1 ; ; ; ",
"0 0 0 w y u u l V Z Z Z Z ! ^ ^ ^ ^ ^ ^ ^ ^ ~ Z D p d f f f d t 8 3 7 B 6 - % % = = = = $ = = = = $ = . $ = = = h.h.Y | w : : ; ",
"0 w w y u u V V / ~ ~ ! ! ^ ~ ^ ^ ~ ! ! ! ! Z V A p r a a > 2 * M 7 , 8 - % % $ = = = = = = = $ $ = = $ = = = & g.| z I p q ; & ",
"u y u u u V V Z ~ ! ! ! ! ! ! ! ~ Z ! Z V V h h h z r 2 > > > - M 3 , 7 6 % $ $ = = = = = = = $ $ $ = = . = ; q y y w 0 0 0 & + ",
"u u l V Z V Z Z ! ! ! ! ! ! ! Z Z Z V V h h A u u y j q 4 4 4 - M 3 - 6 M , - = = = = = = $ = = = = = . = = > q 0 q : & 9 9 ; # ",
"V V V Z / ! Z ! ! ! S ! ! Z Z V V h h h u h y y y y q j r 4 4 4 6 % - - M - - = = = = = = = $ = $ = = $ . = 9 p i 0 # + + # 9 & ",
"Z Z Z S ! S S ! S Z S Z Z V V V h h h y y y y 0 0 0 0 0 j r r 4 - - - - - - = = = = = = = = = = o $ $ $ = = q i q ; @ +   + & 9 ",
"! ! ! S ! ! S S Z Z Z Z V V h h y y y y y y 0 0 0 0 0 0 9 r a = - - - % - $ - = = = = = . = = = = $ $ $ . = a : 0 9 + +   O + + ",
"! S ~ ! S ! Z Z Z Z Z V h u u y y y 0 y 0 0 0 0 0 9 0 0 0 0 g q 4 % - - = - = = = = = = - = = = = = $ = = 4 = + ; 9 ; + O     O ",
"S ! ! ! ! S Z Z V V h h h u 0 y y 0 0 0 0 9 0 0 0 9 0 0 y 0 i q 6 5 4 - = $ = = = 4 = = = = = = = 4 4 4 5 a .   O # 9 @         ",
"! ! ! ! Z S Z V V h h h u y y 0 0 y 0 0 0 0 0 9 9 0 q 0 0 0 i q 5 g g a 5 4 - = = = = = = = = = a a a a g = O   O + 9 9 +       ",
"Z S S Z Z V V h h u h u y y 0 0 0 0 0 0 0 9 0 0 0 0 0 9 9 i j i 5 a g g g g a 4 - 4 = - = = > a 5 g g k a .       + # > ; O     ",
"Z Z Z Z Z h h h u y y y 0 y 0 0 0 9 0 9 0 0 0 0 9 0 9 9 i j G f 6 5 s d d g g g g a a a a a a g g g g g a +     +   + # : + + O ",
"V V V V h y h y y 0 y 0 0 0 0 0 9 0 9 9 9 0 0 9 & ; ; i j j G j s 5 a s g g g g g g d g g a d d d s d g a & + O       # ; ; + O ",
"y h h h y y y y w 0 y 0 0 9 0 0 9 9 0 9 9 0 9 ; 9 ; d j j f f b f a 5 g g g f g a g g g g g g a g s g g i : # + +     + 9 ; + + ",
"y y y y y y y 0 0 0 0 0 0 0 9 0 9 9 9 9 9 ; ; 9 : i j G J f m f f f 5 5 g g a g g a g g a g g a g a a g j : 0 # .     + # : # . ",
"0 y 0 y y 0 y 0 0 0 0 0 9 0 0 0 0 9 9 9 ; 9 9 9 q G G J m b b b d g 4 a a g g a g g g g g g g a g a g g g ; 9 & +     + + 9 + O ",
"0 0 0 0 0 0 0 0 0 0 0 0 9 0 0 0 0 9 ; ; 9 ; 9 q j f J b m f f d s d a r a g d d g g a a a a g g g g g a q & : 9 +     O # q + O ",
"0 0 0 0 0 0 0 0 0 0 0 0 0 0 9 9 9 ; 9 ; 9 9 q G j d d f f f f d d s d a g g a g g g i a g g a a a a g i : & : ; + + + + # > + + "
};
