/* XPM */
static char *Picsart_24_05_20_16_39_37_4221716213281[] = {
/* columns rows colors chars-per-pixel */
"64 64 244 2 ",
"   c #0C002D",
".  c #0A0027",
"X  c #13002E",
"o  c #1A012D",
"O  c #140026",
"+  c #0C0030",
"@  c #130030",
"#  c #1C0033",
"$  c #1F0739",
"%  c #240A2F",
"&  c #220135",
"*  c #2C0337",
"=  c #240B32",
"-  c #2B0C35",
";  c #24013B",
":  c #2A013E",
">  c #2C0D3B",
",  c #250A3B",
"<  c #32033D",
"1  c #320D3B",
"2  c #360736",
"3  c #2E103B",
"4  c #33113E",
"5  c #37113A",
"6  c #41093E",
"7  c #51003B",
"8  c #2C0142",
"9  c #2D0D41",
"0  c #320143",
"q  c #3A0344",
"w  c #330E42",
"e  c #3B0D44",
"r  c #35014A",
"t  c #3C024C",
"y  c #3A0B4A",
"u  c #2D1041",
"i  c #361545",
"p  c #3A1445",
"a  c #3C164A",
"s  c #3C184A",
"d  c #391748",
"f  c #3E0351",
"g  c #3E1851",
"h  c #450D4B",
"j  c #480A46",
"k  c #560946",
"l  c #441345",
"z  c #42164C",
"x  c #4C134B",
"c  c #42184D",
"v  c #4B1747",
"b  c #56154C",
"n  c #440254",
"m  c #4C015A",
"M  c #490857",
"N  c #540B52",
"B  c #5B0C54",
"V  c #52015E",
"C  c #5C075B",
"Z  c #441452",
"A  c #441953",
"S  c #471B59",
"D  c #4B1A5B",
"F  c #4B1557",
"G  c #551759",
"H  c #610957",
"J  c #681A5A",
"K  c #711455",
"L  c #650E4A",
"P  c #4B235B",
"I  c #552856",
"U  c #67295B",
"Y  c #560162",
"T  c #5A0263",
"R  c #5E0169",
"E  c #531862",
"W  c #63046C",
"Q  c #640969",
"!  c #661A62",
"~  c #731C68",
"^  c #5A2665",
"/  c #5C3664",
"(  c #672769",
")  c #67366B",
"_  c #6B3876",
"`  c #7B397B",
"'  c #732C70",
"]  c #764479",
"[  c #6B4672",
"{  c #831B58",
"}  c #93255C",
"|  c #88347B",
" . c #942C72",
".. c #A5336F",
"X. c #85457C",
"o. c #BB5477",
"O. c #C8587A",
"+. c #CA6876",
"@. c #7B3480",
"#. c #7A4885",
"$. c #7B568C",
"%. c #993886",
"&. c #963486",
"*. c #A43687",
"=. c #B73B95",
"-. c #B6368F",
";. c #BD3FA0",
":. c #874686",
">. c #964A8B",
",. c #88548B",
"<. c #975989",
"1. c #994791",
"2. c #8C5795",
"3. c #985998",
"4. c #884F93",
"5. c #A4418A",
"6. c #A84B99",
"7. c #B9469A",
"8. c #A65599",
"9. c #B5559C",
"0. c #986498",
"q. c #8F6896",
"w. c #A5669C",
"e. c #B54CA3",
"r. c #B757A7",
"t. c #9C6BA3",
"y. c #A768A6",
"u. c #B966AA",
"i. c #AA77A8",
"p. c #B176AD",
"a. c #BA6AB4",
"s. c #AC76B5",
"d. c #B778B4",
"f. c #965DA1",
"g. c #C64C9E",
"h. c #CB5390",
"j. c #D36E95",
"k. c #C94AA8",
"l. c #C758A9",
"z. c #D358AC",
"x. c #C85AB4",
"c. c #D759B8",
"v. c #CE4DB4",
"b. c #C766AD",
"n. c #C967B7",
"m. c #D766B8",
"M. c #C47BBC",
"N. c #C674BA",
"B. c #DC75BE",
"V. c #D56BA9",
"C. c #E46CBD",
"Z. c #EA6BBF",
"A. c #E163B7",
"S. c #E171BE",
"D. c #E46BA0",
"F. c #E17493",
"G. c #DD5DC1",
"H. c #E25CC3",
"J. c #D56CC3",
"K. c #DD6BCB",
"L. c #DA67C5",
"P. c #CB79C3",
"I. c #DD74CE",
"U. c #DA76C5",
"Y. c #DE7AD0",
"T. c #EB6CC3",
"R. c #E468C8",
"E. c #E372C5",
"W. c #E869D4",
"Q. c #E17BD3",
"!. c #E777D6",
"~. c #BC83BA",
"^. c #B888B8",
"/. c #BD93BE",
"(. c #AC85B4",
"). c #F18B9D",
"_. c #C386BD",
"`. c #D287B3",
"'. c #F485A7",
"]. c #BD91C5",
"[. c #CA83C4",
"{. c #CA8DC6",
"}. c #C889C8",
"|. c #D28BCB",
" X c #D986CE",
".X c #C592C3",
"XX c #CA97C8",
"oX c #D496CD",
"OX c #DB8CD3",
"+X c #DB86D4",
"@X c #CB9AD6",
"#X c #DA95D4",
"$X c #D89AD5",
"%X c #E788D9",
"&X c #E39BDB",
"*X c #E593D9",
"=X c #ED90D2",
"-X c #CEA8D6",
";X c #D9A4D8",
":X c #DBB4DA",
">X c #D1A2CC",
",X c #E3A4DE",
"<X c #E8A5DE",
"1X c #EBAFDC",
"2X c #EC8AE1",
"3X c #EC9BE4",
"4X c #F59AE9",
"5X c #FD9EF3",
"6X c #F78FE9",
"7X c #DCAFE4",
"8X c #EBA4E5",
"9X c #E4ACE2",
"0X c #EDADEA",
"qX c #E8A7E4",
"wX c #F4A5EC",
"eX c #F2ADEC",
"rX c #F7A7E9",
"tX c #ECB3EA",
"yX c #E8B8E6",
"uX c #F2B3EE",
"iX c #F4BBED",
"pX c #FDACF4",
"aX c #FEACFA",
"sX c #FAA7F4",
"dX c #FCB5F5",
"fX c #F6BBF4",
"gX c #FABAF6",
"hX c #FFB4F9",
"jX c #F6B8F6",
"kX c #ECB8F2",
"lX c #E9C5EA",
"zX c #F2C9ED",
"xX c #F6CCF4",
"cX c #F9CDF5",
"vX c #FDC3FA",
"bX c #FDCCFB",
"nX c #F8C5F6",
"mX c #F4D3F3",
"MX c #F9D1F5",
"NX c #FED4FE",
"BX c #FCDCFE",
"VX c #F5D5F9",
"CX c #EDCDF3",
"ZX c #F9E1FC",
/* pixels */
". . .   . . . .   .   O & 2 L } O.+.+.+.<.XX{.w..X.X.Xi.~.~..X.Xi.| X.X.3.{.{.~..X.Xi.] v v x ( /.h ; & # o o # o o O O O O O O ",
"                  O   o = j K ..F.).).j.1XnX,XyXnXiXp.uX{.gXzXiX_.XXbXw.p._.iX,XfX{.fXkX_ b G w.fX#.0 8 ; & & ; - & % o o o o o ",
"                    X o = 7 K } j.'.'.).iXiX$XgXjX;XuX$XtXnXnX9X^.bXbXy.{.uXtX,X|.#XgXgX|.J ( 0XjX].t 8 ; ; # ; ; ; & $ & # # # ",
"+ @ +             @   @ & 6 K } O.'.'.`.iX&XuXgXjX|.jX#XgXfXiX0.zXbXbXyXbXnXnX9Xw.0XgXgX[.[._.uXjXqXF r ; ; ; ; : ; & & & # & o ",
"    + +       X +   X @ & < k { o.D.D.=XeX9XgXjX_.pX[.tXjXfXoXyXcXMXcXMXcXmXxXxX;XtXfXuX>.&X&X,XjXkX^ r 8 ; ; ; ; ; # # o # o # ",
"+   + +             @   # 2 7 K ..D.j.rXOXjXtXkX$XtX;XgXfXfX$X9X>Xi.i.:XMXmXmXMXMXMXiXp.' u.&X#XjXjX:.r 8 8 ; # ; ; # # o o = # ",
"    + @ +           X @ o & l L } h.b.OXgXuX|.oX0X$XgXgXfXfX3.<.) 7 U _.MXmXmXmXmXMXcX_.w.U OXP.jXjX2.r 8 ; # ; ; : ; $ # # o O ",
"    +       + +         o & 5 k { ..u.sXdXoX0X}.gX{.gXgXfXyXyXcXMXlX<.0.MXmXmXmXmXmXMXcXzX<X_.M.fXjXf.r 8 8 ; ; ; 8 ; & # # o X ",
"  +         .       + @ X o 2 j K 9.rXdX[.0X#XpXdX{.fXfXjXXXnXxXMXzXmXzXmXmXmXmXmX:XlXmXMXnX<.&XjXkX$.8 8 8 ; $ ; 8 ; # # $ # # ",
"    +             +   @ @ @ * 6 >.pXgX#X&XjX{.jXqX,XfXfXfX].xXcXzXmXmXmXmXmXmXmXlX:X>XzXMXnX>.fXjXkX@.r r 8 8 $ ; ; ; @ # # # ; ",
"        .         + + + @ # < 3.wX&XpXP.dX,XqXgX$XuXfXfXfX~.xXVXmXmXmXmXmXmXmXmX^.[ U >XMXlX#X0XkXkXg r r 8 ; 8 8 $ 8 # @ X @ # ",
"            +       + @ # w 2.uX}.qXd.8XdXM.jXfX|.uXfXfXfXi.xXMXmXmXmXmXmXmXmXmXmXmX`.v $X;X0X9XhX@Xr 8 r 8 ; 8 8 8 8 # # @ @ @ ",
"                + + @ @ 0 s.jXs.3.wX}.hX*XOXjXgX|.eXfXfXfXi.MXmXmXmXmXmXmXmXmXmXmXmXmXyX>XN.fXqXjX2.r 8 8 8 8 8 # 8 8 8 # $ # o ",
"        + +       + # S .XtXf.M }.P.wXsXP.3XjXgXOX3XiXfXgXp.cXmXmXmXmXmXmXmXzXmXmXmXzXMX`.rXpX#XjX( 8 8 8 8 ; ; $ # 8 ; & # @ o ",
"+   + + + + + + @ # P @X7X:.y :.2Xa.hX%XJ.wXjXgXOXP.gXfXgXi.cXMX:XlXmXmXmXmXmXmXmXzXzX1X[.hX8XqX@Xh ; 8 8 8 ; ; $ ; ; ; & # # # ",
"    + + + + @ @ # P @X}.F 0 E 0Xa.sX5XY.r.hXjXgX Xr.dXfXfXs.xXMXzXXX/.:XmXmXmXmXmXmXzXj.&XdX[.jX' 0 $ 8 8 8 8 $ ; $ 8 : & # o # ",
"+ + + + + + + @ ) 7X2.y # g P.+XP.aX!.Q.r.hXjXjX%Xr.sXgXgXd.xXVXmXmXzXlX:X>XzXMXmXcX8XN.sXeX8X}.h 0 : ; 8 8 $ # ; $ 8 8 # # # # ",
"+ + + + + + @ P -X$.8 $ r s.5Xa.5X6XI.W.e.hXjXhXJ.e.&XdXgXp.cXMXVXmXmXmXmXlXzXmXzXbXa.&XjX}.eX:.0 8 ; 8 8 8 8 ; ; # ; 8 # # ; # ",
"  +   + + + g -X$.8 # 8 s.sXP.I.6XW.W.W.e.hXjXgXm.e.6.hXgXw.cXVXmXmXmXmXmXmXmXxXMX$XM.aXOX0Xd.y.0 : 8 ; 8 8 : ; ; # ; ; # # # # ",
"    + + + $ ].q.; $ 8 4.aX%Xn.6X!.W.W.W.r.hXgXhXr.=.&.wXgX3.cXMXmXmXmXmXmXmXcXbXiXd.3XsXOX|.3Xy.< 0 : y ) #._ _ : ; ; 8 ; & & & ",
"  + + + # $.@X9 @ 8 f.jX2XL.L.!.W.W.W.W.e.hXjXhXe.m.6.3XdXX.iXMXmXmXVXmXMXcXbX8X9.*XhXN.|.>.dXy.j ^ ,.3.iX].gX#.8 ; ; : : P e * ",
"+ + + + 9 ].P # r f.sX2XL.x.I.K.K.E.W.K.r.jXjXhXl.c.J.3XdX` U >XMXMXMXNXbX#X3.u. XpXM.&Xu.u.dXd.y.eX{.gX{.tX#.q : ; : 8 h }.( @.",
"+ + + @ ^ ~.$ ; $.sX2XJ.J.r.u. X X|.M.M.d.eXfXhXm.e.n.4XpXb. .k w.{.#XB.6.6.n.Q.pXM.8X3.u.u.$X,XdX X,X_.9X#.t 0 : 0 Z r ,.oX' 9.",
"+ + + + 2.2.; _ sXI.K.L.&.C N b ) bXNXNXvX7XjXgX!.*.r.sX2XV.S.5.7 k U.r.c.E.!.aXy.rXy.*XvX&X<X*X9.b.u.&X^ 0 0 8 0 _ #XE #X&.b.| ",
"+ + + + s.#.G 3XY.K.L.%.N h h z z ] xXBXbX;XfXhXx.m.J.aXx.E.T.E.g...=.G.K.Q.sXa.eXoX_.vXM.=X=X5.C.U.b.H N n < 0 0 XX#Xu.r.>.n.K ",
"+ + + @ t.f.+XQ.K.K.r.C x z z z z l (.BXBXXXfXhXb.I.aX Xm.T.T.T.E.=.R.W.Y.aXM.sX#X|.hXb.g.b.7.l.m.v. . .r.a.M : D uX_.=X%.V.%.K ",
"+ + + $ _ P.!.K.R.L.~ h z z c z z z c lXBX^.dXa.N.4XsX*.z.T.T.T.=.c.W.K.5X8.M.>.<XgXb.V.E.Z.g.=.z.z.c.B.8.G 0 t y.*X6.z.z.m.*.l.",
"+ +   @ _ 6XK.G.H.x.N z z z z z z c z q.NXyXd.r.4X2X%.r.z.k.T.T.v.W.R.6X|.>.P.3XrXN.z.Z.Z.A.m.Z.T.E.x.| N q 8 @.3X*.l.z.z.Z.k.k.",
"+ + @ 9 $XQ.H.W.L.&.j x Z s z z c c z I nX$Xa.8X X+XU.r.z.E.T.=.k.R.Q.wX0.gXU.B.z.C.Z.Z.c.C.Z.E.m.| B q < < G 0XS.m.g.T.Z.Z.Z.A.",
"+ + @ P 3XL.v.H.G.~ h z z Z z c c c c z ,.^.0.[.0XpX+Xa.n.E.m.-.;.R.4X>.tXNXb.E.m.h.7.m.b.*. .*.4X' q 0 8 0 3.hXC.Z.k.Z.Z.Z.Z.z.",
"+ + @ #.Y.e.G.G.J.C x z s z z z z z z c I lXNXXX0XjXa.b.%.OX6.b.c.!.sX,XNX1Xr.U.C.S.b.b.=XgXJ.!.2X( 0 8 8 r 3.sXE.Z.z.T.Z.C.S.*.",
"+ + @ y.J.-.G.G.r.V x g c z z Z z z z l P :XBXBX/.0XfX#X$X' `.pXn.2X&XyX/.nXrX>.u.8.<XNXgXr.L.2X}.( 0 8 < G 3.4XC.Z.Z.Z.Z.C.9.k ",
"+ @ : }.e.&.H.H.r.! x c z c z c z p 1 p c .XBXZXBX:X$XyXM.;XiX0Xn.8.G ^.i.bXp.zXNXBXNX8Xb.L.J.5Xa.E 8 8 c ;X>.b.l.-.-.Z.S.r.j * ",
"+ @ : }.~ *.H.H.x.6.h z c z c z c z a p 5 q.BXZXBXZXyXoX^./..XfX:.! {.oX~.^.nXBXZXZXXX8.m.R.Q.5X@.f 8 8 t.NX0Xb.m.C.C.g.l.J < ; ",
"+   * s.B 5.c.c.x.a.v z c c z c z c c l 5 / ZXZXBXZXZXBXMX/.<.i.b ;XkX[ l i.-XlX-Xt.l | m.L.4XP.r 8 ; A CXBXNXoXV.B.S.l.P.n 8 : ",
"    o _ n 1.c.c.r.r.q p a z z z z z z z c c mXZXZXZXZXZXBXBXq.l _ / c c p 1 - 2 1 5 h B n.!.wX^ 0 8 a ].BXZXZXBX1Xr.8.>.` 0 8 ; ",
"  X X 9 < &.x.k.e.6.r 9 s s s c z Z c z a p ].VXZXZXZXmXlXq.l z z c z z d 4 1 > p p p h a.+X' r r 8 ^ VXBXZXZXZXBXNXbXvXG 0 : # ",
"    X @ & ( x.k.r.6.: , 5 p c s c z z c c s c (.BXVXq.5 1 p s c c c z c c a w a a a l e E G n f t 8 a 7XBXZXVXmXNX>X^.NX] 8 8 8 ",
"        X q e.x.e.1.* - 3 p d s z z z s c s d d [ / 4 4 d a z z z z c z c / ] c c z c z F h n f r r y c -XZXZXVXnX^.-XNXyXc : ; ",
"+       X # J r.1.>.* = - 4 d s s z z z l c l c d p 4 4 c s z z z z z z z ,.] c z z z Z z Z h t t g Z d s /.VXZXyXs..Xi.VX#.: ; ",
"        X & ! 5.1.f.* & % = 4 s c A z c z z a c a p w a z z c z z z x z b b v l z z z c z Z F r y Z Z c e w a q.-XbX/.yX^.a 8 : ",
"    + X X , :.N ' y., = = = - d d s a z z z z a a w a a a z z z z z j k k U x z z Z z z A Z Z F z A A c s a w a l 4.CXkXD 8 : : ",
"X @ + + @ g s : ^ s.- = % = = 4 d a s a z s a c a e s s c z c z c v j J L L x c Z z s c c s g y Z Z A z A Z Z f r q @.^ 0 8 8 8 ",
"X   + @ , , # # : #.> = = % % - 1 s a z s a z a s a a a a z z z v I 7 7 K J x z c Z s s g w w Z Z A A A S F D n f f f f f r r 0 ",
"X   + @ @ @ X @ @ , - % = = % = = i p a s a a a z a a z s v 6 v l v v j v v z z c c z z s w s Z A A S A F F V V m m n m n n n f ",
"X X + + +   + X   o , = = = % = % - i d s z a z a a a a s 5 v 6 6 v l l z v c c c c z s a a g A S S S D E G Y Y V V m m m m m n ",
"X   @   +     @ @ X - = % $ = = = = - i a s a a z a s s d 5 b 6 2 6 6 5 p p p s a i a s a g Z S S F D F M Y T Y Y Y Y V Y m m m ",
"X X @   X + + @ +   = = % % % = = = = > i s z a p s c 5 5 5 6 2 2 6 5 5 2 - 4 1 w w a z Z F F S F D D E m Y T T Y Y Y Y Y Y Y Y ",
"  X   @ X X       X $ = = = = = % = $ % 3 i s s s s i > 2 6 6 - 5 v 1 1 - 4 3 1 w w g Z S S D D D D E M m V Y Y Y Y R W Q Q T T ",
"O @ @     X @ @   X $ = = - = = = = % % = 3 d s d 3 - - 2 b 5 - - 6 - - 3 3 9 > i g A S S D D D D E E n m m m Y V V V W Q Q Q Q ",
"X X @ @   X   X X X # u , = - = % = % % % = , 3 - = = = - - - = - 2 3 3 3 3 i > & 9 S D D D D E D S M n n n n m m m V Y R W Q W ",
"X   X @ X X X X X X X 3 d i 3 = = % = $ = = % = = = = = % % % = % % - > 3 > 9 ; # # g S D D D S D f r f t q n n n n m V Y W W W ",
"X X X X + @ @ @ @ @ @ > d d i u , - = = = = = = = = = = = = = = - % 5 3 u , & # # # & a S S D F y 8 0 0 8 0 r r r n n m Y Y W W ",
"  X X X @ @ + @ @ @ @ , i d d s i 9 - = = = % % = = = = = = = - - 3 3 i # ; # # # # # # a S S w ; , ; 8 8 8 0 0 0 r f n m m W Q ",
"@ @   X @ @ @ X @ @ X , i a s d i s 3 - = = = & = = = = = 3 3 i i > 3 = # # # # # o o # & : : & & & ; ; ; ; : : 0 0 0 t n m C Q ",
"@ X X X + @ @ @ + X @ 3 u i a a i d i 3 - = = = - = 3 3 i d d i 4 9 i # # @ # @ o # # # # # # & # # # & ; ; ; 8 : 0 < q n V C H ",
"@ @ X X @ @ @ @ X X X u d d d a a a a a i u i i i i i i i a a i > d g 8 + X X o o @ @ # # @ # # # # # # # ; ; ; ; : 8 0 h M C H ",
"@ @ X X @ @ @ + X X o u d d a d a a a i d a i a d a a i d a i w w a a g # X X X X X @ @ # @ @ # # ; # # & # & ; ; ; : 0 t M C H ",
"@ @ @ @ @ @ @ @ @ X o 9 i a a a i g i g a i p a d d a a d a w 1 a s a g 9 @ @     X o @ X @ # # # # # # ; # ; & ; ; : 0 j j B H ",
"$ @ @ @ # @ @ @ @ # # u a i a i i g i i i a a i p a a a a 9 w i c s Z Z g # @ @ @ X X @ @ @ @ # @ # # # ; # ; # & # ; 0 0 j B B ",
"# @ # # # # @ # @ # # u i a a i d d i i g i i i d a i d d , p a s Z s Z g a # + @ @ o @ o X @ o # @ # # # # # # # & & 8 < j b B ",
"# # # # # # # # # # # u i i i i i d i i i i i d i a i i i u a a s s z z Z g 9 # @ X @ @ o @ o # @ o # @ @ # # # # # # & < j b B ",
"# # # # # # # # # # @ > d d g i d i i i i i i g i i i i i i d a s z z z g A g # # X @ o @ @ @ @ @ o @ o @ @ o @ o # # # > q x b ",
"# # $ # # # # # # # # , i d g i d i i d i i i i d i i i i i a a a s s z g g g u @   X X X   @ @ X X o X X X X X o o o # * 2 j k "
};
