/* XPM */
static char *Picsart_24_05_20_16_41_38_3411716213647[] = {
/* columns rows colors chars-per-pixel */
"64 63 235 2 ",
"   c #0C0036",
".  c #0E003C",
"X  c #12003D",
"o  c #1B003C",
"O  c #170036",
"+  c #260C33",
"@  c #2A0D36",
"#  c #25003D",
"$  c #2A003D",
"%  c #2C0D3A",
"&  c #27093D",
"*  c #320A35",
"=  c #34023C",
"-  c #3C023D",
";  c #320C3B",
":  c #3A0B3A",
">  c #2E103C",
",  c #33113E",
"<  c #49053A",
"1  c #4A123F",
"2  c #150241",
"3  c #1D0142",
"4  c #250141",
"5  c #2B0044",
"6  c #2E0148",
"7  c #2B0B47",
"8  c #330245",
"9  c #3C0343",
"0  c #330D43",
"q  c #3C0C42",
"w  c #33014B",
"e  c #3A014D",
"r  c #3B0C4C",
"t  c #340A4A",
"y  c #361444",
"u  c #3A1546",
"i  c #3C164A",
"p  c #3C1848",
"a  c #3D0151",
"s  c #3D0A54",
"d  c #370051",
"f  c #3E1351",
"g  c #440D4B",
"h  c #470748",
"j  c #580B49",
"k  c #431345",
"l  c #43164C",
"z  c #4A144E",
"x  c #43184E",
"c  c #4D1647",
"v  c #53154A",
"b  c #430155",
"n  c #460259",
"m  c #4B005B",
"M  c #480D56",
"N  c #51015E",
"B  c #560B58",
"V  c #431552",
"C  c #4B1454",
"Z  c #441951",
"A  c #491755",
"S  c #561457",
"D  c #6A1758",
"F  c #6B0C4E",
"G  c #4B2357",
"H  c #5B2A58",
"J  c #69275C",
"K  c #550162",
"L  c #5B0266",
"P  c #5D016A",
"I  c #5B0C63",
"U  c #551969",
"Y  c #62016D",
"T  c #660B6B",
"R  c #6C0174",
"E  c #670772",
"W  c #720278",
"Q  c #7C027B",
"!  c #740877",
"~  c #74186D",
"^  c #542667",
"/  c #5B3165",
"(  c #572F6B",
")  c #6A296B",
"_  c #76226C",
"`  c #693568",
"'  c #772773",
"]  c #753679",
"[  c #6C357A",
"{  c #6B417D",
"}  c #794579",
"|  c #881357",
" . c #880A7F",
".. c #810F6F",
"X. c #892A7A",
"o. c #8D2C70",
"O. c #A42A70",
"+. c #814A7A",
"@. c #7B1481",
"#. c #7A4B87",
"$. c #870684",
"%. c #8C1A8C",
"&. c #95178A",
"*. c #8C2987",
"=. c #993887",
"-. c #93358A",
";. c #B73A9E",
":. c #AC3693",
">. c #BA3AA3",
",. c #A21D9D",
"<. c #C63EA5",
"1. c #884887",
"2. c #865A8B",
"3. c #8B5693",
"4. c #995798",
"5. c #964F91",
"6. c #A64998",
"7. c #B54499",
"8. c #A6599A",
"9. c #B4569D",
"0. c #A7488C",
"q. c #9A6599",
"w. c #926F99",
"e. c #A5669D",
"r. c #985BA2",
"t. c #B948A4",
"y. c #A75BA5",
"u. c #B658A7",
"i. c #AB49A0",
"p. c #9D6BA6",
"a. c #AB67A7",
"s. c #B768AB",
"d. c #AB77A9",
"f. c #B375AE",
"g. c #BA69B3",
"h. c #AA77B5",
"j. c #BC7BB6",
"k. c #B878B7",
"l. c #A36FB1",
"z. c #C5489D",
"x. c #C748AA",
"c. c #C654A8",
"v. c #D357AC",
"b. c #D14DB7",
"n. c #C55DB3",
"m. c #CA55B3",
"M. c #DC56BC",
"N. c #D658B9",
"B. c #CC4AB3",
"V. c #CC6BBE",
"C. c #C965B8",
"Z. c #D766BB",
"A. c #C579BB",
"S. c #D871BE",
"D. c #C763AF",
"F. c #E367BC",
"G. c #E257BE",
"H. c #DC5DC3",
"J. c #E25DC4",
"K. c #E45FCA",
"L. c #C86CC0",
"P. c #DB63C5",
"I. c #D86AC6",
"U. c #CB7BC4",
"Y. c #DD74CC",
"T. c #D577C8",
"R. c #DB77D1",
"E. c #E46DC3",
"W. c #EB6CC4",
"Q. c #E564CC",
"!. c #E963CC",
"~. c #E36BCC",
"^. c #EC6CC8",
"/. c #E464C3",
"(. c #E473C8",
"). c #EA65D3",
"_. c #E66DD3",
"`. c #EA6BD5",
"'. c #ED69D8",
"]. c #E473D4",
"[. c #E37CD6",
"{. c #F17BDB",
"}. c #BB87B9",
"|. c #B38CB5",
" X c #C58ABE",
".X c #B985C5",
"XX c #C988C5",
"oX c #D58ACC",
"OX c #C896C6",
"+X c #D396CD",
"@X c #DD89D4",
"#X c #DA9AD6",
"$X c #E687DA",
"%X c #E499DB",
"&X c #F090DA",
"*X c #C9A3CC",
"=X c #D8A6D8",
"-X c #DCB4DC",
";X c #CDA3D0",
":X c #E3A8DC",
">X c #E4B5DF",
",X c #EC8CE1",
"<X c #E998E2",
"1X c #F497E8",
"2X c #FF9CF2",
"3X c #F38CE2",
"4X c #DCA7E6",
"5X c #EAA7E7",
"6X c #F6A5EC",
"7X c #E8B5E7",
"8X c #F3B3ED",
"9X c #F2B9EB",
"0X c #FCACF5",
"qX c #FFACFC",
"wX c #FAA7F5",
"eX c #EBB4F3",
"rX c #F5B3F3",
"tX c #FBB4F6",
"yX c #F5BCF4",
"uX c #FABAF6",
"iX c #FEB6F9",
"pX c #F7BAF9",
"aX c #EAC4E8",
"sX c #F1C8EE",
"dX c #F4CCF3",
"fX c #F9CDF5",
"gX c #FDCDFA",
"hX c #F9C3F6",
"jX c #F5D4F4",
"kX c #F9D2F6",
"lX c #FDD3FC",
"zX c #FCDBFD",
"xX c #F5D9F8",
"cX c #ECC6F1",
"vX c #FAE1FC",
/* pixels */
"              .     { =XoXj.=X=X=X#X:Xa.A.o.a.` o.4.8.oX:X8.#Xa.#X4.) 1.#XA.=X=XG X .   X   . .       .     .         .   .     ",
"X X X   . .   . O o h.pX X#XpXyXsXuXiXf.d.kXgXd.f.q.5.9XuXs.8Xf.pX+XA.A.8X XhXcX#.O X . o . . . . . .   .   . . . . .   .     . ",
". . . . .   . . X 7 4XyXg.<XuXyXyXyX9X5.7XlXfXsX7X9X}.9XuXj.5XXXtXoXs.g.5XXXpXpXl.O X . 2 X X . . . X . . . 2   . . . . . . . . ",
". 2 . . 2 . . 2 O ( eXpXC.<XtXsX9XuX:X+XgXfXaXfXjXfXfXfX9X:X:X#Xj.s.8.XX$X@XpXhX}.# X 2 X X X . . . . . . . . 2 2 . . . 2 . . . ",
". 2 . . . 2 . . . #.5XrXV.,XuXyXyXuX X9X>X=Xq.=XfXjXjXjXkXkXkXhX XA.a.A.U.%XiXhXXXo X . X . . 2 2 X 2 . . . 2 . 2 . 2 . . . 2 . ",
"2 . 2 . . . . 2 . #.pX@XL.,X8X9XyXhXf.5.H H 1 q.7XjXjXjXjXjXkXlXuXj.uXXXs.1X5XpX.X# o 2 2 2 2 2 2 2 . 2 2 . 2   . . . 2 . . . . ",
". . . . . . 2 . o .XiXg.I.$X6XeXuX9X9.8XsXsX-X} *XkXjXjXjXjXkXxXkXfXgX:X8.wXj.eXh.$ 7 3 2 2 . 2 X 2 . . . 2 2 2 . 2 . . . . 2 . ",
"2 2 2 2 . 2 . . ^ eXpX6.I.[.wX5XhX9Xf.9XjXkXjXsXaXjXjXjXjXjX;X XaXfXfX7Xa.0XXX5Xl.5 4 2 2 2 2 . . X . . . .   2 . . . . .   2 . ",
"2 X 2 X . X 2 t #XpXtX6.I.].wX%XuX9X X8XfXaXsXjXjXjXjXjXjXjXOXw.d. XfX;Xj.5X#X4Xr.4 X X 2 . . 2 . 2 2 . X   X . . .   X . .   X ",
"X 2 2 X X X 4 3.eX5X0X6.~.].2XXXuXuX@X:XfXkXjXjXjXjXjXjXjXjXaX*X+.` sX X#X<XiX#X#.3 X . 2 . 2 . 2 . . . X X . X . . X   X . X . ",
"X 2 2 X X o [ eX4X6XwX6._._.,XU.iXuX<X+XfXjXjXjXxXxXjXjXjXjXjXjXkX XfXj.rX#XpXXXZ o X X . 2 X 2 . 2 . 2 . 2 . X . . . X X X . X ",
"2 X 2 2 o ( 4XpXU.0X,X;._.'.].R.rXiXtXj.kXkXjXjXxXjXjX>XaXjXjXsXjXfXsXXX5X+XpXh.t o X 2 X 2 . X 2 . 2 . 2 . X X . 2 . X X X X   ",
"X X 2 o ^ 4XhXeX.XqX].t.).'._.[.5XiXtXa.jXxXjXjXjXjXjXjXjXjXjXsXjXkX+X8XoXpXpX3.t o 2 X X X X 2 . . X X X X X X X X X X X X X X ",
"X O o ( 4XpX.X) <X,X].B.Q.'.'.[.%XiXtXj.-XjXxXjXjXjXjXjXjXjXjXjXkX:XA.tX#XtXpX1.5 4 7 X X 2 X X . X X X O X X o o o X X O X X O ",
"X X #.4XpXh.s ) 2X]._.K.Q.'.'.].T.iXuX#X XjXjXjXjXjXjXjXjXjXjXfXfXA.%XoX5XiX<X5.5 3 3 X X X X o 3 4 o o 4 f o o 4 o o O 4 o o 2 ",
"# [ 4XeXl.w w k.[._.).).H.'.'._.V.tXuX:Xd.fXjXaX*XaXaXaXjXjXjXfXA.9.6Xu.5XtXA.y.5 3 3 2 o 3 o 5 [ 4.9 ^ U.p.M [ .X5 o # #.r o O ",
"x eXpXh.7 $ ] ,X_.'.'.).:.`.'.`.g.qXpXrXf.gXgXjXjXjX-X-XjXjXfXsX9.[.wXC.5X0X-.y.6 3 3 o o 5 B y.T.*.s.$X9.X.D.T.] 8 ^ $ 4.' $ # ",
"3.yXh.t # 8 L.R.'.'.'.'.;.H.)._.m.1XtXpXA.hXfXjXjXjXjXfXjXjXfX#XS.3X1XL.<X5X6.y.5 4 5 4 C a.R.n.m.v.N.7.c.D.D.' ~ k.r.= u.-.' s.",
"#XeXA # 6 r.R.H.K.).'.).H.>.K._.L.T.iXtXA.8.sXfXjXjXkXkXfXfX6X9.Y.2X3XL.$X1XC.k.9 ^ l.] g.Y.^.W.v.N.~.^.F.x.:.n.L.1.e h D.c.C.Z.",
"eX3.5 4 ) R.P.x.).).).K.H.B.H.Q.H.L.iXtXA.D J +XdXfXsX>X#Xs.9.7.Y.2X,XI.[.1XL.R.S OXk.A.Y.W.W.F.G.v.N.W.v.E.Z.u.' h $ ' F.F.c.v.",
"#Xr 4 U ,XI.H.H.).).).b.H.!.B.~.I.V.iXtXS.c.o.j J ` c D I.Y.H.H.Y.qX3XI.Y.,XI.U.p.lXpXg.S.^.^.^.^.W.E.Z.M.c.B h = $ = 5.(.F.F.v.",
".X8 a U.I.H.H.).)._.Q.:.P.I.C.=.V.V.iXtXC.:.F.9.D 1 < _ ]._.N.P.[.qX,XI.Y.].@Xa.-XzXlX Xc.v.F.^.E.E.^.^.(.D.-.1.#.J ] 9.F.W.v.v.",
"4.9 l.[.P.<.).).Q.Q.n.-.g.%X8XrXs.A.uXtXC.N.N.F.F.O.o.o.P.~.N._.,XqX1XL._.P.%X XzXvXzX9X9.S.Z.Z.Z.(.(.(.I.C.y.r.1.X.oX0.F.F.z.v.",
"] 5.,XP.H.H.'.K.Q.Z._ j z ` }.hX8XXXuX0Xm.W.G.N.^.E.E.:.I.x.x._.<XiX,XI.~.C.XXfXvXvXvXzX:Xu.u._ B ' -.] S h = h k 1.:Xe.S.F.v.F.",
"r.iXY.P.>.!.).Q.I._ j g k k q c } 8XiX1Xt.~.J.B.F.F.W.z.c.{.B.].1XiX1XZ.I.C.1.sXvXvXvXzXlXuX+X) $ # $ $ $ $ # = : |.gX+Xs.S.7.0.",
"U.wXY.b.b.!.).Q.=.C g l l k k g ] uXiXA.m.~.!.x.x.F.^.F.Z.~.N.R.wXiX<XV.t.u.S =XvXvXvXsX=XhX7Xq # # # o o O O & ` dXxXzX8XA.9.o.",
"6X$XQ.B.K.).Q.P.D g l k l k k z }.rX5Xs.C.~.~.x.:.7.v.W.Z.z.B.Y.0XiX,XT.-._ v } xXvXzX=XXXhXgXG + # # o o o o & *XvXxXjXlXfX:X X",
"0XI.P.B.K.K.K.m.M k l i k l l 3.pX8X8.A.tXt.I.N.S.0.D.S.I.c.t.(.iXiXR.V.' v z p w.zXzX;Xd.XXlXp.- = & # # # # 7 cXvXvXxXlX>Xq.9X",
"iXI.c.M.K.K.K.7.j i k l k Z q.eX8Xq.< : ` oXn.n.%Xe.oX@X&XS.n.1XiXuXu.u.v z z l x } xX XOXf.:XJ g q = $ # # # 0 *XzXzXxXlX+Xd.hX",
"qXL.x.!.!.J./.=.h i u p p 1.k.l.] C k : : k _ s.#Xd.fX#X6XD.$X0XiX%X6.) C z Z x , , / ;XhX:Xo.F j j 9 = $ $ # i G *XzXxXlXOX-Xq.",
"qXI.t./.M.M.Z.-.9 u u l l x l z l l k i u q < ` =X7Xe.e.8.oX6Xa.rXa.] z Z z Z z x p ,  XfX0.O.| F F h < $ 5 t Z f G 2.-XcX=XdX}.",
"%X$Xt.J.B.G.H.X.- y u l p p x i x l i i i i r u w.zXvX=X8.9.oXf.s.) v z z Z x x x x x 2.7Xo.O.O.| F j c 9 t Z Z Z p y 0 > |.zXdX",
"1.wXc./.x.M.N.=.: * , u i x i x p l l i i i l i p H 2.*XlXoXj.f.] Z z l Z x Z Z x l x A } v o.O.O.F F j h C x x Z Z i t 0 u 2.p.",
"e y.t.G.<.M.v.6.< : ; , u p i i i p i i i p p i p u u u |.cX2.q.v Z z l z x x z x x x l Z z j D | o.F F C Z x x Z Z Z i t $ $ + ",
"8 h X.J.<.J.x.v.< % @ @ , u p i i p i i x i i p y % @ @ @ H l z Z x x x l l l x l x x x Z z z v v D J S A z Z Z Z Z Z f 5 $ # $ ",
"5 8 T m.;.G.x.N.S = * @ % , y p i i i i i i i i y ; ; 0 y i l l x x x x l l l l l x l x z l x x z h v z C Z x Z Z Z x i 5 5 5 4 ",
"8 9 m X.v.<.b.N.=.< @ @ @ @ > > i u p i i i i i y ; y u l i l i i i i i x x x x x x x x x Z x Z l q k l x x x x Z Z Z r 8 $ 5 5 ",
"e e j X.m.v.G.G.C.j * @ @ + + @ , y u p i i i i y u i i i i i i i l i i l i u u u u x l x i x x u i x Z x x x x x Z C 8 8 5 5 5 ",
"a b L 7.&.v.G.b.Z...- @ @ @ @ @ % @ y u u i i i i u u i k i i i i i x l u ; ; ; ; , 0 u u u x i i i l z x l x x Z V g 8 e 8 8 8 ",
"b K ~ ~ ..v.G.B.Z.=.- @ @ @ @ @ @ @ % > y u u i i i i i i i i l u l p l : : @ @ @ @ % % % y x x i x l Z x x x x C g b b e e e e ",
"N N L T ~ z.G.<.M.m.h ; @ @ @ @ @ @ > @ @ > y p p i i i i i i i i u y ; 1 * * @ @ @ @ > % y i Z x x Z f x x Z Z M m m m m n b b ",
"L L Y Y !  .b.;.G.N.X.: ; @ > > @ @ @ @ > + @ > u p i u i i i i l , * * c * * @ @ @ @ @ 0 s g C Z Z x Z Z C C U K L K K N N m n ",
"Y Y R R Q  .;.;.x.H.u.h ; % @ & @ @ @ + + + + @ @ , y p i i i i : : * * c 1 * @ @ @ @ : I *.I S A Z Z Z Z C I T T Y Y Y L K K N ",
"Y R R W Q  .$.:.$.B.H.*.h @ % @ > @ @ @ + + + + + + @ , u i u ; : k * @ 1 1 * @ @ @ % g *.%.%.@.I M M A A B T R E R Y Y Y P K K ",
"R W W W Q Q  . .$.&.N.u.S : ; > > + > + + + + + + + + @ @ > @ + : k @ + * 1 * @ @ > 8 I %.,.,.$.*.R P B I I ! W W R R Y Y Y P K ",
"R R R R R W Q Q Q Q $.n.6.g ; & @ > + > > + + + + + + + + @ + + * , @ @ + + + @ @ % g @.%.$.$.$.$.@.! T I E E W R R Y Y Y P P K ",
"L Y Y Y Y R R R R R ! ! 6.' q @ > + + + + + + + + + + + + + + + @ @ + + + * + + @ 9 T ! %.! @.W W E E E E E Y Y P P P L L K K K ",
"N N K K K K L L P P Y P E E f y > 7 > > > > + + + + + + + + + + @ + + @ + + + * @ C T E E E E P Y Y P Y P K P K K K K N K N m m ",
"N m N m m m N N N m m K N N M q % & > % > + @ + + + + + + + + + + + > , y y u r u V L P K K K N N K N N m N m m m m m n m n n n ",
"b b n m n n b b b n n n n n b M y y % % @ & @ @ + + + + + + + + > y p p p i i i f f N m n n n m n m n n n n m n n n n n n b b b ",
"a e e a e b a a b e a b a b a g f 0 0 0 @ @ @ + + + + + + + 7 y p i i i p i Z i x V M a b b b b b b a a b b a b b a a a e b e e ",
"e e e e e e e e 9 e d e e e d s f 0 0 > > > & @ + + + + + > y p i i i i i i i l x V d a a a a d d d d a d a d e d a a a e a a e ",
"e e w w w e w w w e w w w e e e r t 0 ; y y i y y y y y y p f i i i i i i i i i i V M e s d d d e e w w w e w e e w t d e e w w ",
"M e w w w w 8 w w w 8 w w w w 8 r f u ; > y i i p p i i p i p p i i i i i i x i i x f s e e d e d w e w w w e w w e d d e e w w ",
"d w 8 6 8 6 5 8 8 w w 6 w w 8 8 5 Z i u y y i i i y p i i i i f u i i i i i i i i i i V s 8 w w 6 w 6 w 6 6 6 5 6 w m n w 6 6 6 ",
"w 6 6 w 6 6 6 8 6 8 w 8 6 6 6 w 6 r Z x y 0 y i i i i i y i i y i i i i i i i i f i i Z V r w 6 w w w w w 6 6 6 6 e U M e 6 6 6 ",
"w w 6 w w d w w w w d d 6 d d d w r V Z i u % i f 7 f p 7 p f p i u i i i i p i i p i p f f s s s d d s d s s d d s s s s d d d ",
"5 5 5 6 6 5 5 5 5 6 5 6 5 6 5 5 6 6 V f f u 0 y p p p p p y p p i y y i y p i i i i i f p f f t w 8 7 6 6 6 6 5 6 w 5 6 6 6 6 5 ",
"5 5 5 4 5 4 4 5 5 5 5 5 4 5 7 5 5 4 f V f i i y p p p p p p 7 p i y y i y y i i p i i u f f i f 8 5 5 4 4 5 5 5 5 5 5 5 5 5 5 5 ",
"5 4 4 4 5 5 5 5 5 5 4 4 5 4 4 5 5 5 t V f i i i p p f 7 p p p p i y y p i i y i i y i p p u u y f 0 4 5 5 5 5 5 5 5 5 5 6 6 6 6 ",
"5 8 t 6 6 7 8 6 w 6 w t 6 6 5 t 7 w t V f i f p p 7 p p p p y y y y 7 p y 7 p p p y p y y > & y i i t e w t w d 7 5 w w 7 6 5 6 ",
"5 $ 5 4 5 4 5 5 4 5 6 6 5 6 5 5 5 5 6 8 f f i f f p p p p 7 y p y p p p i i p 7 y y y y > + y u i i i s 6 8 5 5 5 5 5 5 4 5 4 5 ",
"# $ # 4 # # 5 # # 4 $ # # 5 $ 4 4 5 7 3 7 f f p p y p f y p p y y y p y 7 y p p y y y y & @ 0 u i u i f s t 6 4 4 $ 4 4 # # 4 # "
};
