/* XPM */
static char *_e2531624c8d48d384ecbf3c7256f1d5yQ6i1ERwCK16jU8E[] = {
/* columns rows colors chars-per-pixel */
"64 64 203 2 ",
"   c #FFFFD3",
".  c #FDFDE9",
"X  c #FCFDF0",
"o  c #FFFFCF",
"O  c #FEFEE5",
"+  c #FFFFD7",
"@  c #FCFEF2",
"#  c #FFFFCD",
"$  c #FDFDEC",
"%  c #F3F4F5",
"&  c #FFFEC8",
"*  c #EEF0E4",
"=  c #FFFFCB",
"-  c #FFFFD5",
";  c #E2E5D7",
":  c #E6EADB",
">  c #FEFDDF",
",  c #FFFFE5",
"<  c #FFFFD2",
"1  c #FFFFE8",
"2  c #FFFD66",
"3  c #CACECA",
"4  c #FDFEF5",
"5  c #ECEEE1",
"6  c #CED2C4",
"7  c #FEFDD9",
"8  c #F2F2F4",
"9  c #F4F6EA",
"0  c #F2F5E9",
"q  c #FFFFE1",
"w  c #F0F2E6",
"e  c #FEFABB",
"r  c #CCD0C2",
"t  c #EEEFEF",
"y  c #E4E7DA",
"u  c #FFFCC1",
"i  c #DCDFD0",
"p  c #C8CBBD",
"a  c #FFFFDD",
"s  c #FFFF9F",
"d  c #D9DBCB",
"f  c gray92",
"g  c #FFFFFB",
"h  c #C7CAC7",
"j  c #FFFCBE",
"k  c #FEF9B8",
"l  c #E8EADE",
"z  c #FFFF7E",
"x  c #FEFDDD",
"c  c #D6D8D6",
"v  c #FCFCE8",
"b  c #BEBFBD",
"n  c #FFFED0",
"m  c #FFFFB5",
"M  c #E0E2D1",
"N  c #D5D8CA",
"B  c #D2D5C7",
"V  c #FEFDD4",
"C  c #FFFFBF",
"Z  c #DADCDA",
"A  c #FFFEC4",
"S  c #C3C7B8",
"D  c #D2D4D2",
"F  c #FFFFBA",
"G  c #F8FBEC",
"H  c #DEE1D3",
"J  c #C6C9BB",
"K  c #FFFFBE",
"L  c #F6F9E9",
"P  c #FFFFD9",
"I  c #FFFF99",
"U  c #E1E4D4",
"Y  c #F3F7E6",
"T  c #D8DCCF",
"R  c #F4F2C2",
"E  c #E9EDDE",
"W  c #FEFE85",
"Q  c #C9CDBF",
"!  c #FFFDC6",
"~  c #C5CAC2",
"^  c #F9F6C2",
"/  c #FFFFAF",
"(  c #D5D8C7",
")  c #E8E9E7",
"_  c #EDF2E2",
"`  c #CED3C1",
"'  c #E9E9C4",
"]  c #C5C6C4",
"[  c #C2C3C1",
"{  c #E3E3E2",
"}  c #FAFBF3",
"|  c #FEF6B0",
" . c #DEE1CF",
".. c #AEB2AF",
"X. c #FFFF8E",
"o. c #F0F5E4",
"O. c #B2B6B1",
"+. c #FFFFF9",
"@. c #E5E6E5",
"#. c #F9F866",
"$. c #FFFFAA",
"%. c #C0C4B5",
"&. c #D8DA92",
"*. c #DBDECC",
"=. c #D9DC80",
"-. c #FFFD6B",
";. c #C1C6BD",
":. c #E5E5BE",
">. c #DEE0DE",
",. c #B8B9B8",
"<. c #EAED5A",
"1. c #F4F65E",
"2. c #C3C8BF",
"3. c #CECFCD",
"4. c #FEF9B5",
"5. c #F8F879",
"6. c #D2DD5A",
"7. c #E6E969",
"8. c #EDEED7",
"9. c #ABAFAC",
"0. c #FDFCD0",
"q. c #F5F3BD",
"w. c #F4F4DB",
"e. c #D2D765",
"r. c #EDED72",
"t. c #F5F670",
"y. c #F1F2EB",
"u. c #F0EFBB",
"i. c #EFE7AB",
"p. c #F3ECB2",
"a. c #F5F4C7",
"s. c #E9EAAD",
"d. c #DFE1D6",
"f. c #F4F567",
"g. c #E6E77A",
"h. c #E0E27D",
"j. c #FDFDE2",
"k. c #F6F6F0",
"l. c #C5C8A7",
"z. c #CDD0B1",
"x. c #C9CEC6",
"c. c #E6EA4E",
"v. c #C4CF66",
"b. c #D8DAB8",
"n. c #F8F9B2",
"m. c #FEF3AC",
"M. c #F9F7C8",
"N. c #FAFACC",
"B. c #F0EFC4",
"V. c #CCCE7A",
"C. c #E5E8D5",
"Z. c #E0E170",
"A. c #ECEB96",
"S. c #D3DA70",
"D. c #CACFA2",
"F. c #EDE2A2",
"G. c #F6F6D1",
"H. c #EFF163",
"J. c #E2E48A",
"K. c #D1D275",
"L. c #E0E24A",
"P. c #FFFE7B",
"I. c #F3F3A3",
"U. c #BCC1B4",
"Y. c #B9BDB0",
"T. c #F2F28B",
"R. c #E2E2B1",
"E. c #C5C89A",
"W. c #D8DAA3",
"Q. c #F9F8BE",
"!. c #F9FAA0",
"~. c #DCE778",
"^. c #FEFDCC",
"/. c #DEE1A8",
"(. c #D1D582",
"). c #CBD944",
"_. c #A9ADA5",
"`. c #EEEFCF",
"'. c #F1F2AD",
"]. c #FAFAD8",
"[. c #FBFB91",
"{. c #E9DE97",
"}. c #E2E360",
"|. c #BDC38F",
" X c #D2D6A3",
".X c #FDF7B5",
"XX c #E0E2C9",
"oX c #CCCFBA",
"OX c #D7E371",
"+X c #9BB811",
"@X c #BBCE4B",
"#X c #FAFA99",
"$X c #F8ECA3",
"%X c #CCCF8D",
"&X c #BDC75A",
"*X c #EBEA83",
"=X c #F5F5B2",
"-X c #B7C168",
";X c #C0C97A",
":X c #F0F24F",
">X c #6A714D",
",X c #879345",
"<X c #AAC522",
/* pixels */
"[.[.[.#X#Xs s s s A.!.$.s I I I I I I s T.!.$.'.].j.w., , 1 1 1 1 , , , , , , , q a a.=XK K C C C K K F F m m m / / / $.$.$.$.$.",
"T.*XA.I I s s s s #Xs s I I X.X.X.I I s T.!.$.I.G.1 w.j., , 1 1 , , , q , q , , q P 0.u.C C C C C K =X=XF m m m m / / / $.$.$.$.",
"e.e.K.A.s s s s s s I I I X.X.W W X.X.X.I s s !.a.$ . 1 1 , 1 1 , , , q q q q q q P   R Q.C C C C K e k F m m m m / / / / $.$.$.",
"}.7.e.=.#XI.I.I.!.I I I X.X.W W W W W W X.I s !.u.1 1 1 1 1 1 1 , , , q , a a a a +   N.u.C C C C K K F F F F m n.=Xn./ / / / / ",
"7.Z.6.V.B.L } L `.'.I X.X.W W W r.5.z z W X.I I '.O 1 1 1 1 , , , , , , q a P + - < < < R Q.C C C K K F F m s.' 8.w.w.B.n./ / / ",
"7.7.=.8.g g g +.4 8.I.X.X.W W z 5.P.P.P.z W X.[.'.j., 1 , 1 , q , , , , q a P   < n n - G.q.C C C K K F F R.XX9 +.g g } `.n./ / ",
"~.Z.R.g g +.g +.X * R.X.W W z z z P.P.z z z W [.s.8.8.M  .*.*. .i M C.8.w.].7 -     - P 7 u.C K C K F F =Xb.: Y 4 +.+.+.G u.m m ",
"h.=.B.g +.g +.+.G l b.T.z z z z z z z P.z 5.J. Xl.p ~ x.x.x.3 3 3 x.x.x.x.B d XX`.].P a q a.j K K F F m s.*.; _ X 4 9 4 4 `.4.m ",
"6.e.' +.+.+.+.4 w M b.T.z z 5.5.z z z 5.&.l.S x.x.3 3 h ~ ~ h h h ] ~ h 3 3.3 x.Q Q XXw.q G.Q.K F m m m s.d M : L @ 4 4 } `.n.m ",
"6.6.&.9 @ } @ L y  ./.W z P.P.5.z 5.&.l.2.3 h h h D Z >.{ @.@.>.D D D c D h h 3 3.3 ~ p XXG.q.F F m m m '.( M U E Y G L 9 ' / / ",
"6.6.S.XXw w * : M ( J.5.5.P.P.P.g.E.S 3 h 3 c { t ) ] b h 8 8 [ b h [ b >.t @.Z D 3 3 3 ~ S R.F F m m m =Xb.*.i M ; y y M s.$.$.",
").).6.%Xd i d B 6 *.' ' %X5.5.=.l.x.h 3 Z >.Z ) 8 D [ { b f 8 b ) { >.>.,.@.) ] c ) >.h 3 3 S b.e m n.R.8.C.B N *.*.d d /.!.s s ",
").).S.:.d.J J J 6 } k.D l.r.%XS 3 h c >.[ [ 3.b Z h >.g [ @.8 b @.,.b Z D D { [ h c @.f c h 3 ~ z.=Xn.z.d.} y.Q p p J r :.!.s s ",
").(.8.k.k.l d.d.* k.T r l.|.2.h 3 ) Z ,.c c { { ,.b ) k.3 Z 8 b @.b ] D D c { c Z O.[ 3.f @.3.3 x.z.s.z.r l 4 l T N T 5 k.' I.I ",
"@XC.y.y.y.y.y.y.y.>.Q p _.;.h D t % b c 3 ,.] { ..[ Z D c 3.8 b f ] 2.>.[ f >.c D ,.t b @.% t c 3 x.l.l.r B 5 y.w * * y.* l :.!.",
"@XL +.+.+.+.+.+.g w 2._.2.h c t 8 8 [ Z b ] @.b ] 3 3 O.{ ] 8 b t t t c 3.% Z D @.f h D 8 8 8 8 Z 3 x.O.Y.6 N k.k.k.} } } 4 Y I.",
"@X8.9 0 y.9 9 y.y.d.O.b 2.D 8 8 8 8 ] Z f Z b c D c 3.] f b t b ) b b >.] 8 c c } >.b 8 % 8 8 8 8 Z 3 h O.U.N 4 +.+.4 } } k.8.A.",
"<X X;  .oXd d r ( p U.~ ..@.8 8 8 % ] Z c b { 8 ] { ) { y.b f [ @.] c D h { c c 3.Z [ f % 8 8 8 8 % 3 ;.b Y.Y.i H i d *.i d W.#X",
"+X/.o. .` M d oX( p U.~ ..@.% 8 8 % h Z ] >.8 t [ ) ,.,.>.[ { [ @.] f [ c 3.c c b b D 3.8 8 8 8 8 % D O.;.U.S i  . . .M M d R.[.",
"+X|.N B d d d *.N 6 %.;...@.8 8 8 % h Z h { % @.[ { h c 3.h Z b c ] 8 h D ,.] Z ] [ c [ @.8 8 8 8 % D O.;.Y.r N  . . . .*.y G.T.",
"+X;XU *.U E C.N T T U.;...@.8 8 8 % h b ,.{ % >.O.,.Z { O.,.>.[ ,.D % { b b ] ,.,.{ b ,.3.% 8 8 8 % D O.;.Y.r B M  .d N B w w.T.",
"+X|.; M o.o.U i d.T U.;...@.8 8 8 % >.] D t 8 t @.@.8 8 f f 8 t t 8 8 8 t 8 t @.f 8 f ) f 8 8 8 8 % D O.2.Y.6 ` M N * l r * w.T.",
">X_.y : L : T l d.6 %.2.9.c @.@.) ) f f f f f f f f f ) f f f f f t t t t t t t t t t t t t t f t t 3 O.2.U.S B i H G 0 N T XX=.",
">XY.: U y U H H H J %.2..._.9._._.9.9.........O.....9.9...9...O.O.O...9.9.9.9.9.9...O.O.....9.9...O._.,.~ Q J M d ; L o.H i _.>X",
",X XE E 5 U 5 Y Y T Y.U.x.Q Q r x.r Q J J S 2.~ ~ ~ ~ ~ ~ ~ ~ ~ ~ ~ ;.;.;.;.;.;.;.2.2.2.;.;.;.;.S J J x.;.Q p ; i T Y o.; y z.,X",
"+Xb.5 w * l L L Y i S Y.E.h.h.g.g.*Xg.Z.Z.S./.:.:.:.:.:.R.:.' ' ' :.:.:.:.:.:.' ' ' ' :.:.:.R.(.h.h.h.E.S 6 Q ; 5 i y 5 y : b.h.",
"+Xb.d.5 * : L Y o.T p 6 &.#.-.-.-.-.-.2 -.r.^ # = = & & = = # < + - <   < o # o <   < o # = u *Xt.t.t.E.S B B U 5 0 T T l y b.*X",
"v.( d.l * y Y Y _ d p 6 &.f.-.-.-.-.-.-.2 *X^.M.^.# = # # # o   + - < < o = = ^.^.# # ^.^.# u J.t.t.r.D.p 6 Q i ; 5 w l 0 H C.A.",
"J.M ; * * ; o.o._ i S 6 &.-.-.-.#.<.#.2 #.A.& q.^.= # n < < < < < < o o o # = ! ! ! = & R # A A.t.t.r.W.p J Q E L l 5 9 0 i 0 s.",
"=. .E 0 0 l d.H T S %.B &.2 -.-.2 #.2 -.f.=X& q.& ! = o < < < = = = = #   -   # ^.& & & ^ ^.! A.r.t.r. XJ %.B E G L y 0 0 H : s.",
"/.o.y 5 0 0 y.w 5 Q 6 J %X#.2 2 2 2 2 2 r.N.N.R & = = # < o o & & = # o   + P +   # & ! ^ ^.o '.r.t.r.D.J %.` : 9 Y y 0 9 5 d  X",
"`.G _ i w 0 0 * H r %.%.z.r.2 2 2 2 2 #.T.M.u.^ = = ^.& = ! A ! = = # # < - + +   o & ! R ^.o q.r.7.7.E.r S Q U o._ y Y 0 * y &.",
"o.L _ N w 0 9 ; U 6 U.S z.r.2 2 2 2 2 #.I.R u.M.= = = ! A u A & # n n o n o o o o # & ^.R ^.o Q.g.7.7. X( S J U _ : l 9 l * l &.",
"o.o.y N 0 0 9 H E r Y.p ` r.2 2 1.#.2 t.q.u.u.! = = = = = ^.# # n o n < < < o # = = = ^.R a.n ^ g.f.7.D.r S U.i E H 5 y i H E W.",
"_ _ H i 9 9 9 H E B %.r ( g.2 2 <.#.2 T.N.u.u.! & = = = ^.o <   < n < - + + + - o # # n B.B.^.^ g.f.7.E.r J U.Q B H y i _ i 5 W.",
"E : B y 9 9 w : i p Q r d g.2 -.2 2 #.'.].a.N.= & A A = n < - - - n < - P a a a + < < n a.B.0.M.g.f.7.l.N p Q ; E * T U o.i l W.",
"d N U w w 0 y.0 5 6 6 Q ` K.<.#.2 2 t.M.G.G.+   n A F K = <     -   < - + P P + P -   < a.B.N.N.h.f.Z.l.Q p p ; w * l ( E ; 5 b.",
": 5 w 0 w * w w * 6 B 6 l.K.e.e.#.2 T.0.B.0.- < o & u u A = # o <           < < + -     R B.N.N.J.H.h.` r 6 p ; w 9 9 d.y 5 y b.",
"* * w w ; E : H E r B B D.~.~.S.H.#.I.n B.n   < # ! j A ! = # o < - + + +   < <   -     R B.N.N.J.H.&.T 6 B r ; w 0 0 9 9 * B : ",
"* * w l l L Y *.U r B B D.~.g.S.e.r.M.V G.      # ! j u & n < <   + P a a P -   - - - < M.R M.^.J.H.&.T ` ` Q ; l * ; 5 y * ( _ ",
"5 * w y 0 L L : d r B 6 D.OXOXOXS.V.G.V V -     o & u j A # <   - + P + + +     - <   < < a.a.= A.7.&.B Q p T 0 5 : T 9 y : d o.",
": 5 5 l X L L E B r B N D.~.~.~.~.(.W.u.V -   < o = ! A u & # <   -     - - <     n n <   a.a.# A.e.;XJ p r i _ L y H H * : i Y ",
"d E l 5 @ G G U N S J B D.OXOXOX~.J.(.W.0.  < o < < ^.! ! & # n n n o <   -       n <   - M.R ^.&.v.v.z.Q r i 5 G l E * 9 ; T Y ",
"d E * : @ X w r B B r 6 D.6.6.S.v.h.J./.o o # n < < = u j e A = & A A ! = # n n o o < < < a.q.Q.(.v.-XoXr r i E L : 5 0 0 l 6 H ",
"d : y ; 0 G H Q l N Q 6 E.6.6.e.v.S.(.s.A A & & & & ! A e e u ! ! u e k e e u & = = = & & ^ q.q.V.&X-XoXr r i E L U _ w 0 w y H ",
"y U T l ; y N H _ N S r E.@X).6.v.v.v.(..Xj u u u j u & ! ! ! ! & & u e 4.| 4.j u A u u A ! ! # /.&X;XoX6 p ; _ o.H * w w w * 5 ",
": ; d.w E y E ; * T %.6 E.@X@X&Xv.v.v.K.$Xk k e e j u ! ! & & ! A & ^.! e 4.4.k e j e j u & ! = u.&X-Xp B J r E 5 d.w * * * 5 E ",
"5 5 : l l * 0 ; y Q J 6 E.).).&XV.(.&.{.$X.Xk k 4.e e j e u u j u ! = = ! u j k k k .Xk e j j u e g.V.S 6 6 %.6 i l l ; d.y 5 l ",
"; l 0 G E y 0 * d.S r Q D.L.L.K.i.p.p..Xe e e k k e .X.X4.| | | 4.j A ! ! u j e j e k e .X.X4..X| *X(.p p ` p y E * H : Y U ; C.",
"; @ X X 5 ; * y H J J Q %Xc.L.{.m.k k k e e j j e e k 4.| | m.m.m.| e e k k k e j j j e k k .X| | A.(.` S r p y E l N * G : M U ",
"9 4 @ X y i H 5 w N J S S.:XZ.$Xm.m.| m.| .Xk k k .X.Xk | | | | m.$Xm.m.| m.| .Xk k e e .Xk .X.X| $X=.z.J r J U l ; B Y Y i M ( ",
"l G 9 9 i d d.X o.B r |.L.}.V.{.{.{.F.F.F.F.i.i.i.i.i.i.i.i.i.F.F.{.F.F.F.i.i.p.p.p.p.p.p.p.p.p.p.i.=.&.J r S M ; U 6 y ; *.B U ",
"d d ( N B T * @ o.B p v.c.e.p.^ ^ ^ Q.Q.Q.^ ^ ^ ^ R ^ M.M.^ ^ q.^ q.q.q.q.q.q.q.R R R B.R B.R R R R F.K.l.J %.i  .; i N i r U Y ",
"( N *.d d N 9 X o.B D.L.<.{.0.V V V 0.0.0.0.0.< V V V V 0.V V 0.0.0.0.^.0.0.V   V - V + + - V V V V a.=.E.S %.*.*.M U M ` ( o.Y ",
"_ : 6 N d ( L G _ ( V.c.h.B.7 7 7 7 7 7 7 P 7 7 x 7 7 7 7 7 7 7 7 0.V V V V V P x x x x 7 7 7 7 7 7 x s.V.%.%. . .M M  .Q : _ o.",
"8.8.z.z.z.b.8.C.C. XL.L.R.x x q > x > > q q > x > x x x x x ].7 7 7 7 x 7 7 7 x x > > > x > x 7 7 7 x ].&.|.%. . .M  . .r E _ o.",
"=.Z.6.}.}.Z.h.h.Z.}.c.K.G.j.j., O O j.j.j.j.j.q j.j.> > > > x > x x > x x x x x x x x x > > x x x 7 7 7 B.;X-XV.V.V.V.V.V.&.=.=.",
"t.f.1.#.5.5.5.t.f.<.e.' O j.j.O O v O O w.w.j.O O j.j.j.O O O j.j.> j.j.> > > > > > x x > j.x x x x 7 ].].s.6.c.c.c.c.<.<.6.<.H.",
"5.#.1.1.#.t.t.H.}.S.' v . v . 1 v 8.v 1 j.v O O O O O O O O O O O j.O j.j.j.j.j.q j.j.O O j.j.j.j.> x x 7 ].W.6.<.c.L.H.H.<.f.f.",
"H.1.1.1.1.1.1.7.J.`.$ $ X $ $ . . v v . $ $ . . v . . . . v . v O O v O j.j.j.j.O O O O O O O O 1 O j.j.> x ].R.S.c.<.H.H.f.f.f.",
"<.1.1.:X:XL.e.R.L @ @ X X X $ $ $ $ $ $ $ X $ $ $ $ $ $ $ $ $ . v . . v . v v v O v v . v O O v . O j.j.j.j.O j.' &.Z.<.H.1.1.1.",
":X:Xc.}.=./.w.@ 4 4 4 @ X X X X X X X X X X X X X X @ X X X X X $ $ v $ $ $ v v . v v . v v . . . v . v v v v v j.w.:.&.=.}.<.<.",
"e.=.s.w.} 4 } 4 4 4 } } @ 4 @ @ 4 4 } @ X X @ X X X @ X X @ @ 4 X X $ X X $ X $ $ $ v $ v v $ $ $ v . v . $ . v v v v Y 8.:.W.&.",
"w } 4 +.4 +.} 4 } k.5 k.4 4 4 4 4 4 @ 4 4 4 } } X X X X @ @ @ 4 X @ @ @ @ X @ X X @ X X G X X $ X $ $ v v $ $ v v $ v . v v G L "
};
