/* XPM */
static char *Picsart_24_05_20_19_22_09_2101716222159[] = {
/* columns rows colors chars-per-pixel */
"64 64 244 2 ",
"   c #030100",
".  c #0A0300",
"X  c #0D0A02",
"o  c #0C0C09",
"O  c #120401",
"+  c #130A01",
"@  c #110C0A",
"#  c #2C1D0F",
"$  c #2E241B",
"%  c #2B2623",
"&  c #393431",
"*  c #493629",
"=  c #483C39",
"-  c #553D39",
";  c #533B2B",
":  c #4A341F",
">  c #57422C",
",  c #484839",
"<  c #58483A",
"1  c #5B563D",
"2  c #6A4A36",
"3  c #734D39",
"4  c #744E37",
"5  c #6A563D",
"6  c #74523C",
"7  c #7B543C",
"8  c #76553C",
"9  c #5A4A44",
"0  c #4C5447",
"q  c #545A4A",
"w  c #575845",
"e  c #5C5854",
"r  c #4A4642",
"t  c #624B46",
"y  c #6B5D44",
"u  c #625C4A",
"i  c #675646",
"p  c #745642",
"a  c #7B5641",
"s  c #745C44",
"d  c #7B5C45",
"f  c #745C4C",
"g  c #7C5E4A",
"h  c #71564F",
"j  c #6A5852",
"k  c #745B57",
"l  c #5B6151",
"z  c #6B6249",
"x  c #75634A",
"c  c #7C634B",
"v  c #7C694E",
"b  c #746449",
"n  c #6B6B5A",
"m  c #666558",
"M  c #7C6553",
"N  c #7E6B52",
"B  c #7C6B5C",
"V  c #746759",
"C  c #7E7257",
"Z  c #6C6C63",
"A  c #696763",
"S  c #736D64",
"D  c #7B6D63",
"F  c #756D68",
"G  c #6B756A",
"H  c #747265",
"J  c #7C7364",
"K  c #7D7965",
"L  c #76726B",
"P  c #7C746A",
"I  c #7B796C",
"U  c #797C72",
"Y  c #81583F",
"T  c #835C43",
"R  c #815D48",
"E  c #84644C",
"W  c #8B634A",
"Q  c #846A4D",
"!  c #8B6D4D",
"~  c #886446",
"^  c #916B4E",
"/  c #816552",
"(  c #846C53",
")  c #8B6B53",
"_  c #84695A",
"`  c #916D54",
"'  c #926F59",
"]  c #847156",
"[  c #8D7355",
"{  c #85735B",
"}  c #8C745B",
"|  c #8C785E",
" . c #927356",
".. c #94755B",
"X. c #9B765B",
"o. c #947A5D",
"O. c #9B7C5D",
"+. c #977656",
"@. c #A07C5E",
"#. c #846C65",
"$. c #846968",
"%. c #847464",
"&. c #8A7663",
"*. c #837A65",
"=. c #8C7B64",
"-. c #837669",
";. c #847B6B",
":. c #8A7C6A",
">. c #8C756A",
",. c #947D63",
"<. c #9B7D62",
"1. c #937C6C",
"2. c #927769",
"3. c #8A7C72",
"4. c #957D76",
"5. c #A17C61",
"6. c #7B8173",
"7. c #9B805E",
"8. c #8C826B",
"9. c #8D856B",
"0. c #948166",
"q. c #9C8265",
"w. c #94836B",
"e. c #9C846B",
"r. c #96896E",
"t. c #9B896E",
"y. c #9F8866",
"u. c #8D8474",
"i. c #8C8A76",
"p. c #8D867A",
"a. c #898977",
"s. c #938474",
"d. c #9A8574",
"f. c #948A73",
"g. c #9C8C73",
"h. c #9A837B",
"j. c #948C7C",
"k. c #9B8C7C",
"l. c #938479",
"z. c #9D9176",
"x. c #94927E",
"c. c #9C927B",
"v. c #959077",
"b. c #A28265",
"n. c #A2856C",
"m. c #A38A6D",
"M. c #A8896A",
"N. c #A58C73",
"B. c #AA8D74",
"V. c #A18D7A",
"C. c #AA8E78",
"Z. c #A08677",
"A. c #A39176",
"S. c #AA9275",
"D. c #A4947B",
"F. c #AB947B",
"G. c #A7997E",
"H. c #AB997E",
"J. c #B1947C",
"K. c #B29A7D",
"L. c #B09175",
"P. c #AF8F72",
"I. c #948D81",
"U. c #9C8D81",
"Y. c #988985",
"T. c #969281",
"R. c #9B9383",
"E. c #9D9A84",
"W. c #9C988B",
"Q. c #999F92",
"!. c #898D84",
"~. c #A38C83",
"^. c #A39482",
"/. c #AA9683",
"(. c #A49A84",
"). c #AC9B83",
"_. c #A39589",
"`. c #A9978A",
"'. c #A59B8B",
"]. c #AB9C8C",
"[. c #B29680",
"{. c #B39C84",
"}. c #B99D85",
"|. c #B29D8A",
" X c #BA9F89",
".X c #A49D92",
"XX c #AC9D93",
"oX c #B19F90",
"OX c #ADA185",
"+X c #ADA28C",
"@X c #A7A28E",
"#X c #B3A186",
"$X c #B4A38B",
"%X c #BAA48C",
"&X c #B5AA8D",
"*X c #BBA98D",
"=X c #BBA687",
"-X c #A5A294",
";X c #ABA293",
":X c #ACA59A",
">X c #ADA99D",
",X c #A8A797",
"<X c #B3A493",
"1X c #BAA692",
"2X c #B5AA93",
"3X c #BCAB94",
"4X c #B4AB9B",
"5X c #BCAD9B",
"6X c #B6A79A",
"7X c #BCB194",
"8X c #BDB49C",
"9X c #B7B098",
"0X c #AEABA0",
"qX c #B4ADA2",
"wX c #BAAEA3",
"eX c #B6A7A4",
"rX c #A9B4A8",
"tX c #B5B1A4",
"yX c #BCB3A3",
"uX c #BBB5AA",
"iX c #B8B6AA",
"pX c #BBBCB2",
"aX c #B8B9B3",
"sX c #9AA499",
"dX c #C0AA8E",
"fX c #C1AC95",
"gX c #C3AE9B",
"hX c #C0A791",
"jX c #C1B295",
"kX c #C4B39B",
"lX c #C7B89E",
"zX c #C3B5A3",
"xX c #C4BBA4",
"cX c #C9BAA2",
"vX c #C5BDAC",
"bX c #C9BDA9",
"nX c #C6B6A6",
"mX c #C4BDB2",
"MX c #BEC1BA",
"NX c #CAC1AC",
"BX c #C7C1AB",
"VX c #C8C3B5",
"CX c #D0C6AD",
"ZX c #CFC09F",
/* pixels */
"          + # > s [ 7.q.q.m.N.F.{.|.|.).|.oX6X1X5X1X5X3X1X].XXX . 6X+X).1X3X*X&X3X3X1XoX|.[.|.|.{.F.N.n.y.7.7.v > # + .         ",
"        # 5 ] o.7.7.y.m.N.A.C.A./.{.{.{.).{.|.%XfX3XgX5X5X6XqX+ . ;X3X3X3X7X3X3X*X%X).|./.|.|.).).C.N.N.m.M.y.0.7.o.z $ .       ",
"    . * ] [ [ [ Q [ o.7.o.q.q.q.e.C.{.3X1XgXgXhX1XgXcXnXzXgX5X+ . 4X3XfXlXlXlXjXhXfXkXjX%X3X{.N.e.q.q.o.7.+.+.! ! [ [ [ * X     ",
"    * M ! ! ! +.O.q.b.M.S.m.N.F.K.#X%X*XhXfXlXlXlXcXcXlXjX8XyX+ . 4X5XjXjXcXcXlXlXlXkXfX3X%X%X}.K.S.S.S.P.M.M.7.7.+.! ! ] *     ",
". # c E ~ Q ! O.7.7.M.m.M.H.K.K.K.H.).).*XjX7XkXkXkXfXkXjX8X4X+ . :X3XfXkXkXjXkXjXkXfXgX*X[.K.H.H.K.K.L.S.M.M.7.7.+.! ! E N $ . ",
"O < c ~ ! ! ! ! o.7.7.7.m.y.m.H.#X3X%X*X*X3XfXjXlXjXfXkXjX5XqX+   yX5X3XjXkXkXkXkXgX7X3X1X&X&X*X#XF.g.y.y.7.7.7.+.! ^ ! ! c 2 + ",
"# f d E ~ Q ! ! [  .| 7.y.r.z.).$X2X5XkXxXcXlXkXcXcXcXcXkX5XwX+ . uXzX5XkXnXcXkXxXzXbXnXxX8X3X2X&XG.g.g.y.7.| [ [ Q Q ! W / f # ",
": s d E Q Q v ] [ v N =.w.c.(.(.@X;X2X4X8XxXBXvXbXbXbXzXzXyXyX+ . uXyXzXzXcXbXbXbXbXbXxXyX5X>X+X;X'.(.g.9.{ C v ] ] Q ( E c c ; ",
"2 d d d ) ( v b b z z n 8.i.v.a.i.j.x.,X2XtXBXBXNXCXNXxXxXxXuXX . tXuXbXxXBXNXNXNXVXBX9X9X@Xx.i.a.6.x.a.K V y z b v v Q Q x 8 5 ",
"s c 8 d ( c b y y z 1 u w w , , , , n f.x.E.9XBXVXCXNXBXbXVXBXX . >XBXNXBXBXNXCXCXVX9XT.x.a.m , , , q 1 w u w y z z b b Q 8 8 c ",
"/ ( d x c y 5 5 5 1 1 1 l z m u n n K a.x.E.9XBXNXNXBXBXBXBXBXX   0XiXNXBXBXBXBXBXxX4XE.x.a.C n n l m u u 1 1 1 5 5 5 y c s c Q ",
"/ / d x { b y b z z C i.v.x.E.x.v.i.j.T.E.E.>X8XBXBX8X8X8XxXiXX   rXxXBX8X7X8XZXBX8X&XE.E.x.x.i.v.v.E.c.v.9.C z z z y z { s c E ",
"E c d s x b { C ] =.r.f.v.c.G.E.v.f.j.c.G.E.&X7XlX8X7X&X7X8XtXX X -X8X8X9X&X7XlX8X7X&XG.x.v.f.v.v.E.OXc.c.f.r.=.C N C b v y 8 c ",
"c c s s v b { 9.g.z.A.z.c.G.E.G.c.f.:.9.v.c.OX7XlX7X&X&X7X7X,XX X x.OX9X7X&X&X7XlX9XH.G.z.9.8.r.c.E.@Xc.D.z.A.A.r.0.] b v s 8 c ",
"c g 5 s x | ,.r.z.D.OX+X@X9X8X9X@XG.0.C 6.7.G.&X7XjXjX7X7XOXj.X   v.v.&X7X7X7X7X7X&XA.9.] C 9.z.'.2X7X9X+X+X(.A.A.t.0.{ b s 5 b ",
"g s x N C ,.g.g.g.D.@X-XE.T.T.T.v.r.r.[ v b y.K.K.jXZXZXjXD.j.X   a.v.z.jXZXZXlX&XG.7.v b 0.t.z.c.E.x.T.R.@X;Xz.g.r.r.=.N Q b 5 ",
"c b Q ( { 0.t.0.w.j.a.a.U m l G *.8.0.0.( x ..m.K.dXdXdXdXz.j.O   u.z.y.dXdXdXdXH.m.} v ( e.1.:.J n e n U 6.a.j.9.8.r.,.( ] N s ",
"s x v ] =.w.n.&.%.n U rX!.0 0 G i.=.0.q.} ( ] 0.n.M.L.K.K.A._.O . u.G.A.K.K.P.M.m.o.( ( } w.=.:.j.n 0 q sXrXU n { { t.0.| ( v s ",
"c N } | =.q.<.N V J rXrXG 0 0 q R.:.r.F.1.( [  .` ` @.P.K.%X+X+ . 6XOX=XK.M.@.^ ) ) ) ( 0.F.1.g.-Xq q q 6.rX,XH b N 0.0.0.] { Q ",
"} } 9.| =.,.,.( &.p.Q.sXG l 0 q @X+XN.1X[.} ) / T T ` M.K.K.;X+ . <X=XK.K.M.^ Y R ) / } {.).D.<X,Xq , l G sXQ.u.J c 1.0.| 0.| ] ",
"t.A.z.t.0.t.n._ >.h.E.,XT.Z n a.yXzXD. XD.{ Q E 7 Y W 5.J. X5X+ . 5X1X XJ.@.^ 4 7 E / } A.).D.8XBX6.n H Q.-XW.h.%.} g.y.9.z.z.z.",
"0.A.OXOXD.g.Z.2.' >.U.'.0X;X;X4X<X].].1XN.} c d 7 Y W @.B. XoX+ . 4X1X}.P.X.~ Y 8 E Q ..N.3X].].4X2X.X:X>XXX~.>._ ,.d.t.z.OXG.z.",
"z.OX2X&X).N.A.V.1.4.l.h.R._._.R.^.].<X).w.) E R 7 Y T 5.L.%XoXO . ;X1X XP.X.T 8 7 R / [ w.$X1X].R.^._._.Y.h.s.w.d.V.D.z.OX&X&XG.",
"H.7XlX7X&XV.r.~./.V.h.V.^.^._.].<X5X1XV.,.} ) R 7 7 W 5.P.%XnXO . ;X5X}.P.X.T 3 a R )  .,.D.1X4X<X).~.^.~.~.h.~.`.V.f.z.7X9XlX&X",
"t.H.OX7X7X).d.d.`.|.`.`.].;X4X5XwX3X).F.n.2.) E a 3 T X.L.hXnXO . XXlX}.P.X.T 3 a / ` X.N.F.).3X5X5X4X<X]._.].]./.1.g.].7X3XOXH.",
"A.#X&XOX{.D.D.V.).oX<X5XyXuXyXyX1X`././.N.o.W W d 7 T X.B.}.nXO . 4XlXL.M.^ T 3 a W ` 2.N./.).).3X8XzXyXyX5X6X|._.g.V.H.OX#X$XOX",
"m.A.N.F.H.). X).C.`.<XzXnXnXnXgXD.F.#X).F.<.' ) a 7 T R P.[.gX+ . yXfX}.5.W T 3 T ) ' <.F.[.#XF.).gXzXnXxX5X|.].A./.#X).).F.A.F.",
",.m.N.H.{.{.F.F.{.1XgX5XgXgX X[.A.).%X[.F.1. .W 3 7 Y ^ 5.[.6X+ . yX3XJ.5.T Y 3 a / ' e./.{.%X/.Z.|.fXkX5X5XgXhX{.F.[.).{.F.N.e.",
"o.<.N.S.F.S.H.%X3XgXfXhXhXhX[.B.F.{.%X%XK.n.) R 4 4 4 W @.P.6X+ O eXhXP.5.T 3 3 6 d } d.{.#X1X[.F.B.[.1XhXfXhXfXfX$XH.S.S.S.N.o.",
")  .<.N.A.{.$X%X#X#X X X}.J.B.B.F.%XkXfX Xn.R 6 2 4 4 Y X.B.6X+ . nXoXC.' T 3 3 6 6 E n.%XfXlX XF.B.J.J.}. X X X#X%X%X{.A.m.<. .",
") ) O.b.[.#XK.=X%X%X%X{.[.B.C.J. XhXlXhXF.) 6 2 2 2 2 7 X.C.eX+ . mX6XC.^ 3 3 2 2 3 p } {.3XcXhX[.J.C.C.[.{.%X%X{.#X#X#XF.q...! ",
"E ) o.<.F.K.{.H.K.{.%XK.[.Z.J.}.1XkXlX%Xd.d p p 4 3 2 7 ,.[.nX+ . mXgX[.' 3 3 3 p 6 6 d Z.3XnXgXhX}.C.B.J.K.%X}.K.{.K.J.N.q...Q ",
"R ` X.<.m.S.K.S.F.K.[.[.C.F.J.hXhXkXkX/._ p p / E R 6 g <.].vX+ . vXxX).,.8 s g g g p 2 ] {.gXgXhX X[.C.C.[.[./.L.C.H.S.b.q...! ",
"W ) <.<.m.S.S.A.N.F.F.K.F.[.[.dXfXkX%X1.p p g g / M c ( ,._.yXX . yX8XH.,.g g / / / g p p Z.gXgXhXhX[.[.[.C.C.F.C.N.P.S.b.7.o.! ",
") ' o...b.n.m.n.n.N.L.C.L.[.#XdXfXfX[.&.h f M 2 : ; j _ &.k.;XX . ;X;Xg.| M h ; * t M s p &.1XgXhXhX}.[.[.C.C.C.n.n.b.n.b. . .) ",
"` 2.X...b.q.b.b.b.M.B.C.F.[.{.%XgXhX/.%.g p f h i 9 ; 2 B :.I.O   I.k.&.M < < < i i f p f =.|.hXhXhX[.[.C.B.C.5.q.b.q.b.b. .....",
"' ..<...q.q.<.5.<.n.N.B.F.[.{.hXfX3X$Xg.{ h h M B V < < y J p.X . I.a.C i > t J M f j f %.k.$X3XfX%X{.J.C.N.5.B.5.5.O.n.O..... .",
"`  .X.<.<.q.O.<.<.5.n.5.S.[.%X%XfX*X$XD.f.&._ V V B k i e ;.0Xo   rX>X3.i i V J V V %.>.d.^.$X3XhX1X XJ.B.n.B.5.<.O.<.M.<.<.O...",
"} ..,.q.b.e.1.<.5.5.n.B.N.[.%X3X3X2X^.D.k.s.4.s.3.s.I.>XtXpXaXo   pXMXiXqX:Xj.u.u.s.1.s.k.V.(.1X3X1X}.K.N.n.5.n.b.<.7.n.q.q.o. .",
"( ..o.q.N.N.e.<.e.5.n.Z.N.[.%XfX2X+Xk.k.U.s.s.R._..X>XpXpXMXMXo   MXMXpXmXpX:XXXW.U.l.l.V.^.~.].5X3X#X[.N.N.M.5.b.<.q.m.m.q...` ",
"Q } 7.y.A.S.b.q.<.1.n.N.B.[.&X3X5X].^.R.c.j.U..X:X-X0XpXaXiXaXo   aXaXaXaXpX0XXX:X'.I.j.R.^.^.$X8X3X#X{.B.n.5.e.q.e.m.S.A.y.o.[ ",
") [ 0.q.A.S.A.m.n.t.N.N.C. X%X3X1X^._.c.k.j.T.-X0X0X-XrXiXtXaXo   aXiXiXaXtX:X0X:XXXI.j.k.k._.(.6X3X1X).C.N.Z.n.e.m.S.S.m.y.o.) ",
"( ] 7.y.N.S.S.m.n.n.N.N.C.|.%X3X(.(._.j.j.I.W..X0XXX.X4XuXuXiXo   iXiXiXuX:X.XXX>X-XR.I.j.R.'.(.].1X<X{.C.N.n.n.n.N.S.F.y.y.o.! ",
"v ) o.q.m.S.S.N.Z.5.n.N.F.{.&X|./.c.E.j.j.T.W.Q..X.X_.XXyXnXeX+ . qXtXzXwXXX_..X.XW.R.R.j.j.E.c.(.+X1X).C.n.n.n.n.N.S.S.t.0.7.Q ",
"( Q ..o.m.m.S.S.n.e.n.N.F.[.#XD.k.g.R.j.j.T.T.W.^.~.h.1.4.`.Y.O . l.~.`.Z.4.Z.~.^.R.I.T.I.j.c.c.c./.$X).A.C.n.e.N.S.S.N.y.y.[ v ",
"( ] | q.y.m.m.A.n.N.n.C.F.$X).z.w.u.j.j.j.T.l.p.2.$._ B $.>.3.O . #.>.2._ _ _ $.>.l.I.I.j.x.j.s.f.z.{.).F.N.n.n.N.N.N.t.q.0.| ! ",
"( } ..,.y.y.y.y.n.n.t.N.).#XD.g.f.f.j.j.l.l.P V h t t h h h - O . * - k k h 9 t j D -.3.a.j.k.s.w.g.).OXK.C.n.n.n.t.y.y.0.0.| [ ",
"N ( =.,.r.q.y.e.n.e.n.F.F.H.G.g.N.k.u.u.-.D 9 < - - - h t - - O O t = - t j - 9 - < t D ;.3.8.k.c.z.).H.).C.d.n.t.n.q.0.q.,.&.( ",
"M B { | 0.0.m.e.e.<.n.A.F.).#Xz.c.f.K :.s.s.k k k >.4.4.$.$.3.O O Y.4.$.$.~.>.$.k k V 4.4.=.*.f.z.D.&XH.D.F.N.e.q.e.r.,.2.| { ( ",
"V B { =.| o.q.0.e.n.N.A.g.).OX(.v.r.8.f.^.~.Y.Y.4.4.h.h.4.~.XXO . eXXX~.h.h.4.4.4.~.Z.^.^.f.&.r.z.(.+XH.N.N.n.d.0.0.q.| | | { B ",
"B %.%.&.{ =.0.2.=.e.g.e.A.&X&XOXz.r.r.c.k.k.^.`.`.XX`.`.`.XXtX+ . mXwXoX`.XX`.XX`.`.^.d.k.A.r.r.z.OX*X$XA.r.g.0.2.=.0.=.| &.%.B ",
"B D %.%.*.=.1.{ &.0.e.1.z.OXOXG.r.r.z.G.A.k.k.g.h.`.oXoX;X6XuXX . eXzXeXoXoXXX^.h.k.g.g.z.G.z.f.r.(.&XOXg.0.e.0.=.} =.=.%.%.%.B ",
"V S D B &.=.1.&.,.:.0.e.A.OXOXg.r.g.G.G.D.D.g.w.4.g.D.(.G.(.'.X   .X'.(.(.(.^.g.w.f.g.D.G.H.A.t.r.D.#XH.z.r.0.=.=.%.&.&.{ _ D V ",
"S D D #.%.&.&.&.=.&.w.r.g.).).D.r.r.A.G.G.D.z.w.w.g.r.w.8.9.u.X . T.i.8.8.u.r.f.r.w.t.G.H.(.A.r.r.G.OXG.g.w.w.&.&.*.&.&.%.J B B ",
"k D D D %.%.%.%.>.&.w.r.z.G.A.z.g.g.g.G.OXG.A.g.w.w.w.8.8.9.p.X   W.9.8.*.w.s.w.8.g.D.G.).D.g.g.t.z.A.D.t.r.9.&.&.&.D %.%.#.S V ",
"j D D $.%.%.-.>.-.:.8.w.r.t.r.z.g.z.A.G.).(.(.F.).A.E.k.v.(.-XX   ,X'.(.D.c.^.D.D.D.H.(.).^.A.N.g.r.r.z.r.0.w.&.:.-.%.%.%.J D j ",
"= F D D D %.>.-.:.:.:.9.w.r.r.w.f.z.A.(.H.).(.(.].$X<X].<XwXqXX X >XyX4X<X].;X<X+X(.(.`.(.).g.g.r.r.r.r.w.8.:.&.:.&.-.-.B D D , ",
"% F P -.-.D -.:.-.-.-.*.*.=.w.=.w.g.k.).+X+XG.].<X4XqXyXwXuXuXo . iXuXyXtXwXwX6X+X].(.$X+X/.k.g.8.=.9.8.:.:.:.*.-.:.-.J J J S % ",
". r S D D D D -.;.-.J K K *.8.:.*.8.d.^.|.<X].].+X2X4X6XqXqX0Xo   iX4X4XqXqX4X:X;X'.].<X<X/.f.w.=.:.8.K K K J *.;.;.J D D F e @ ",
"  % A F F D D P P K J J C K K :.:.-.s.j.^.(._.'.'.-X;XXX;X:XXXo   >X:X:X;XXX;XXX@X(._._.^.s.:.-.8.;.*.K H B H J P P H D F S %   ",
"    & Z F D P P K L S S H H H K ;.J ;.s.k.~.^.^.R._.'.'.W.'..Xo . Q.'.'.'.'._._.R.^.^.U.f.u.*.*.;.H B H L L S P P -.L L S ,     ",
"      = Z L P L P L S G H Z H Z P K 8.u.:.s.k.U.k.k.j.j.R.Y.I..   Y.I.Y.U.I.U.U.k.R.k.s.:.u.:.K I H H Z G G G L L L L Z = .     ",
"        % e F L L L G Z Z Z Z H H J I 3.3.;.3.s.u.p.l.j.p.Y.!.o . !.!.l.p.j.p.u.s.u.3.:.3.8.L H H Z Z Z A A L L U F e &         ",
"          o % r e m A A A m A n n Z D J P J J -.-.P P ;.-.I L .   3.I -.P ;.P ;.;.-.J J L H B Z Z A A A A A A e r % @           "
};
