/* XPM */
static char *fa04e35db86f40f2bbba3c84344fe0d5It27YtrekeFhNLzI[] = {
/* columns rows colors chars-per-pixel */
"64 64 114 2 ",
"   c None",
".  c #010907",
"X  c #000D0A",
"o  c #01110D",
"O  c #001711",
"+  c #001C14",
"@  c #081814",
"#  c #091E19",
"$  c #002017",
"%  c #01241B",
"&  c #0D221C",
"*  c #00281D",
"=  c #0F2620",
"-  c #002E21",
";  c #0B2B23",
":  c #003526",
">  c #093025",
",  c #003728",
"<  c #0A352A",
"1  c #013C2C",
"2  c #09392C",
"3  c #143227",
"4  c #13352C",
"5  c #083F30",
"6  c #123C31",
"7  c #193D33",
"8  c #3D2F25",
"9  c #5E2E26",
"0  c #01412F",
"q  c #034432",
"w  c #0B4535",
"e  c #044936",
"r  c #094837",
"t  c #034E39",
"y  c #0B4D3B",
"u  c #184337",
"i  c #1D4339",
"p  c #104B3B",
"a  c #04533D",
"s  c #0E523F",
"d  c #2D4637",
"f  c #49483D",
"g  c #065640",
"h  c #0D5541",
"j  c #0B5B45",
"k  c #0E5F48",
"l  c #115542",
"z  c #135B47",
"x  c #195846",
"c  c #145E4A",
"v  c #1B5E4B",
"b  c #214B40",
"n  c #27574A",
"m  c #26594B",
"M  c #28584B",
"N  c #0E6049",
"B  c #13634D",
"V  c #19644F",
"C  c #156750",
"Z  c #196550",
"A  c #166952",
"S  c #1A6B55",
"D  c #1D6F58",
"F  c #1D725B",
"G  c #226452",
"H  c #256F5A",
"J  c #22755E",
"K  c #237760",
"L  c #237962",
"P  c #237961",
"I  c #257A63",
"U  c #267B64",
"Y  c #257C64",
"T  c #267D65",
"R  c #277D66",
"E  c #277E66",
"W  c #257B64",
"Q  c #287F67",
"!  c #297F67",
"~  c #2A7E67",
"^  c #287F67",
"/  c #327160",
"(  c #357362",
")  c #784B43",
"_  c #A32320",
"`  c #A62623",
"'  c #C94D4A",
"]  c #298068",
"[  c #2A8068",
"{  c #2A8069",
"}  c #2B8169",
"|  c #2C826A",
" . c #2D836B",
".. c #2F846D",
"X. c #2F856D",
"o. c #30856E",
"O. c #31866F",
"+. c #32866F",
"@. c #338770",
"#. c #338870",
"$. c #358971",
"%. c #358972",
"&. c #368A72",
"*. c #3B8973",
"=. c #3E8B76",
"-. c #388C75",
";. c #398C75",
":. c #3B8C75",
">. c #398C76",
",. c #3D8E78",
"<. c #42937D",
"1. c #43947D",
"2. c #459680",
"3. c #479781",
/* pixels */
"                                                                                                                                ",
"                                                                                                                                ",
"                                                                                                                                ",
"                                                                                                                                ",
"                                                                                                                                ",
"                                                                                                                                ",
"                                                                                                                                ",
"                                                                                                                                ",
"                                                                                                                                ",
"                                                                                                                                ",
"                                                                                                                                ",
"                                                                                                                                ",
"                                                                                                                                ",
"                                                                                                                                ",
"                                                                                                                                ",
"                                                                                                                                ",
"                                                                                                                                ",
"                                                                                                                                ",
"                                                                                                                                ",
"                                                                                                                                ",
"                                                                                                                                ",
"                                                                                                                                ",
"                                                                                                                                ",
"                                                                                                                                ",
"                                                                                                                                ",
"                                                                                                                                ",
"                                                                                                                                ",
"                                                                                                                                ",
"                                                                                                                                ",
"                                                                                                                                ",
"                                                              , , , , , , , , , ,                                               ",
"                                                          , , l V V V V V V V V V y , ,                                         ",
"                                                        r y y S } O.O.O.O.O.| Q Q B y y                                         ",
"                                                      , z Q Q Q O.3.3.3.3.3.$.Q Q Q Q I r ,                                     ",
"                                                    1 Z J Q Q Q } X.X.>.3.3.<.>.} Q O.,.K z ,                                   ",
"                                                    0 J J S S K Q Q Q X.>.>.>.$.Q Q #.3.>.J l 1                                 ",
"                                                    r D B a a S Q Q Q Q E K J J J U O.1.1.>.J r 1                               ",
"                                                , y D k g a a S Q Q Q Q K y q q q S } | | $.>.J l ,                             ",
"                                                , e B g k C a k B B P Q J q f ) 9 d z B B J @.} l ,                             ",
"                                                1 e k k S J a a a a S P J q ) ' ` 8 q k a N F F z r                             ",
"                                              , e B E E E J a a a a a C J q 9 ` _ 8 s P k a a a A S ,                           ",
"                                              , e g C P F N a B B a a g B B d 8 8 3 s E F B a a j j ,                           ",
"                                            1 0 q t g J A a B F F a a a g A h 0 0 0 s S S B a a a t ,                           ",
"                                          , 1 a 1 0 g J A k E Q F a a a a a a a a a a a a a a a a e ,                           ",
"                                          , 1 a 1 , e J P J E Q F a a a a q 1 q a q 1 1 t e 1 1 1 1                             ",
"                                          , 1 a 1 - * l D Q Q F B a a t q * - q B 1 $ * h s : % *                               ",
"                                          , 1 a 1 % X - z E J N a a t 0 * o + w Q 4 . o G v * X                                 ",
"                                          , 1 a 1 % X - z K j a a a 0 * X . X 3 =.7 . o / m X                                   ",
"                                          , 1 a e , $ + 2 h a B c q * o . . . @ i & = n b 4                                     ",
"                                          , q k k y : o $ 1 a B c 1 + X . . # & . o u *.4 o                                     ",
"                                          , y Q Q V : o $ 1 a 0 1 a 1 $ . . M ( o % s I r ,                                     ",
"                                        , l D Q c 2 + % r B q * $ 1 e q , - v H - : s I r ,                                     ",
"                                        , w x V y , * : s S h w < , , 1 e q h c h q r B e 1                                     ",
"                                        , + O , e a t 1 e k E Q S , O + , t q r K s , 1 t q ,                                   ",
"                                      , , + . o - q a t B P E Q D t , : , t q 0 g q y D j q ,                                   ",
"                                    * % , : $ . * , q q B I A B h a e y z a h c A B S I s 1 ,                                   ",
"                                , : + o * 0 1 # 2 q , : p V t 1 1 a a B I B D E J J J S 5 : ,                                   ",
"                            , , , + . . X * r J J C e + o # , , 1 a a B E I E J j g t 1 + $ ,                                   ",
"                          , $ + + $ % % % - 1 s s r 1 * % * , % * 0 0 e s s s y q 0 : + $ *                                     ",
"                          , > ; $ * * * * * * * , q y y e 1 , $ + * , e y y 2 * * * $ + *                                       ",
"                          , S S t + . . . . . . 1 B Q Q A t , , * . 0 B Q Q 6 . . . + ,                                         ",
"                            r r 1 - * * * * * * $ % ; ; % + O O + * , e y y 2 * * * *                                           ",
"                              , , , , , , , , , $ + + + + + + + % , , , , , , , , ,                                             ",
"                                                , , , , , , , , , , , ,                                                         "
};
