/* XPM */
static char *ef039564422d4da384f02ee0c4c3fa13CMUQPDnz6Fcl98P2[] = {
/* columns rows colors chars-per-pixel */
"64 64 109 2 ",
"   c None",
".  c #010907",
"X  c #000C09",
"o  c #01120D",
"O  c #011711",
"+  c #001B14",
"@  c #081814",
"#  c #091F19",
"$  c #002017",
"%  c #01241A",
"&  c #00281D",
"*  c #002D21",
"=  c #0B2B23",
"-  c #122B24",
";  c #142F28",
":  c #003526",
">  c #093025",
",  c #003728",
"<  c #023C2C",
"1  c #08392B",
"2  c #083F30",
"3  c #133D32",
"4  c #1B3E34",
"5  c #3D2F25",
"6  c #263226",
"7  c #293327",
"8  c #3A3227",
"9  c #3F3B2F",
"0  c #203E31",
"q  c #652A23",
"w  c #6A3B33",
"e  c #01412F",
"r  c #044432",
"t  c #0A4132",
"y  c #024936",
"u  c #094937",
"i  c #044E39",
"p  c #0B4C3A",
"a  c #1C4137",
"s  c #1E453A",
"d  c #114B3C",
"f  c #04533D",
"g  c #0D523F",
"h  c #354034",
"j  c #075640",
"k  c #0C5641",
"l  c #0B5B44",
"z  c #0E5E48",
"x  c #115643",
"c  c #1D5546",
"v  c #125B47",
"b  c #155D4A",
"n  c #235444",
"m  c #235A4B",
"M  c #2A5F51",
"N  c #0F604A",
"B  c #13634D",
"V  c #19644F",
"C  c #156650",
"Z  c #1A6550",
"A  c #166952",
"S  c #1B6B55",
"D  c #1C6F58",
"F  c #1E725B",
"G  c #2A6252",
"H  c #22755E",
"J  c #2F715F",
"K  c #237760",
"L  c #257A63",
"P  c #257C64",
"I  c #267C64",
"U  c #267C65",
"Y  c #267D65",
"T  c #277D66",
"R  c #277E66",
"E  c #257B63",
"W  c #287F67",
"Q  c #287F67",
"!  c #2E7F69",
"~  c #367B68",
"^  c #79544B",
"/  c #9C2824",
"(  c #A42421",
")  c #B63835",
"_  c #C85955",
"`  c #298068",
"'  c #2A8068",
"]  c #2E806A",
"[  c #2C826A",
"{  c #2D836B",
"}  c #2E846C",
"|  c #2F846D",
" . c #2F856D",
".. c #30816B",
"X. c #30856E",
"o. c #31856E",
"O. c #31866E",
"+. c #31866F",
"@. c #32876F",
"#. c #368972",
"$. c #398C75",
"%. c #3C8E78",
"&. c #3E907A",
"*. c #3F917A",
"=. c #428E79",
"-. c #42937D",
";. c #43947D",
":. c #45957F",
">. c #479781",
/* pixels */
"                                                                                                                                ",
"                                                                                                                                ",
"                                                                                                                                ",
"                                                                                                                                ",
"                                                                                                                                ",
"                                                                                                                                ",
"                                                                                                                                ",
"                                                                                                                                ",
"                                                                                                                                ",
"                                                                                                                                ",
"                                                                                                                                ",
"                                                                                                                                ",
"                                                                                                                                ",
"                                                                                                                                ",
"                                                                                                                                ",
"                                                                                                                                ",
"                                                                                                                                ",
"                                                                                                                                ",
"                                                                                                                                ",
"                                                                                                                                ",
"                                                                                                                                ",
"                                                                                                                                ",
"                                                                                                                                ",
"                                                                                                                                ",
"                                                                                                                                ",
"                                                                                                                                ",
"                                                                                                                                ",
"                                                                                                                                ",
"                                                                                                                                ",
"                                                                                                                                ",
"                                                                  , , , , , , , , , ,                                           ",
"                                                            , , u V V V V V V V V V x , ,                                       ",
"                                                            p p b W | +.+.+.+.| W W S p p u                                     ",
"                                                          r E W W W *.>.>.>.>.*.' W W W W b ,                                   ",
"                                                      , x F R W W W { | +.-.>.:.*.+.W ' $...Z <                                 ",
"                                                      , v E D S F W W W ' #.$.$.$.| W ' *.*.! b u                               ",
"                                                      < b F f f N W W W W W E H H H E ' %.;.*.| b <                             ",
"                                                    < S C l f f N W W W W W b r r r v W { { +.*.! Z ,                           ",
"                                                    < v l j A l l B B F W W x 0 ^ w 9 x B B D +.{ S ,                           ",
"                                                  < r l z B R B f f f N H R x h _ ) q < g l l D F S u                           ",
"                                                , e j F R R R B f f f f l H x 7 / ( q < S A f f f z E p ,                       ",
"                                                , e f N F K B l l D l f f N B n 8 5 6 < S K A j f j B r ,                       ",
"                                                < r y f A H f z D W z f f f B B r e e r B D A j f f f < ,                       ",
"                                              , y y < y A H l D W W z f f f f f f f f f f f f f f f f < ,                       ",
"                                              , y y , < b R F E W W z f f f y < < y y < < y i e < < <                           ",
"                                              , y y , & t Z R W K S l f f y : & , k p $ $ t v < & % ,                           ",
"                                              , y y : o $ r E K S f f f y , + o * Z c . . 3 H 1 + .                             ",
"                                              , y y : o $ r E C j f f y , O X X X G M . . s ~ # X                               ",
"                                              , y i r & $ & x g l S i : + X . . . ; ; X s n a @                                 ",
"                                              , f z l < $ o , y l S u * o X . o - @ X # J m o                                   ",
"                                              , S W H r $ o , y y , y r : o . - =.4 + < S b ,                                   ",
"                                            u S K S u $ $ : V p : O , r y < : t { d * < S b ,                                   ",
"                                          & 1 V S v < $ * p E V t + $ , y f r u E g , < B k ,                                   ",
"                                        , + O , y f i < y z R W S < O + < i r u K g < < i r ,                                   ",
"                                      , , + X o * r f i B K R W D i , : < i r e l r p D l r ,                                   ",
"                                    & % , : $ . & < r r B E A B l f y p v f k b A B S E f < ,                                   ",
"                                , : + o & e < # 1 r < : d V i < < f f B E B D R H H H S 2 : ,                                   ",
"                            , , , + X . X & u H H C y + o # < < < f f B R E R H l l i < + $ ,                                   ",
"                          , $ + + $ % % % * < g g u < & % & , % & e e u g g g p r e : + $ &                                     ",
"                          , > = + & & & & & & & < r p p r < , $ + & < r p p 1 & & & $ + &                                       ",
"                          , S D i + . . . . . . < B W W A i < , & . e B W W 3 . . . + ,                                         ",
"                            u u < * & & & & & & $ % = = % + O O + & < r p p 1 & & & &                                           ",
"                              , , , , , , , , , $ + + + + + + + % , , , , , , , , ,                                             ",
"                                                , , , , , , , , , , , ,                                                         "
};
