/* XPM */
static char *e05fb46ea91f42fbf71f1ed4a4b129f9tF9ZzkG8sBucP0ph[] = {
/* columns rows colors chars-per-pixel */
"64 64 105 2 ",
"   c None",
".  c #010907",
"X  c #000D0A",
"o  c #00140F",
"O  c #011711",
"+  c #081713",
"@  c #001B14",
"#  c #002017",
"$  c #01241A",
"%  c #0B201B",
"&  c #00291E",
"*  c #012D21",
"=  c #0B2B22",
"-  c #122C25",
";  c #003526",
":  c #083527",
">  c #003728",
",  c #013B2B",
"<  c #0D3A2D",
"1  c #183326",
"2  c #0F3C30",
"3  c #1B3E34",
"4  c #493228",
"5  c #732822",
"6  c #03402F",
"7  c #044432",
"8  c #0C4233",
"9  c #024A36",
"0  c #0A4937",
"q  c #044D39",
"w  c #0C4C3B",
"e  c #124336",
"r  c #144A3B",
"t  c #1C4A3E",
"y  c #04533D",
"u  c #0D513E",
"i  c #644239",
"p  c #174F40",
"a  c #075740",
"s  c #0C5541",
"d  c #0A5A43",
"f  c #125542",
"g  c #1F5240",
"h  c #135A46",
"j  c #155E4A",
"k  c #195D4A",
"l  c #234E43",
"z  c #0F604A",
"x  c #12634C",
"c  c #18634E",
"v  c #146750",
"b  c #196651",
"n  c #166952",
"m  c #1A6C55",
"M  c #1E6F58",
"N  c #1E725B",
"B  c #22745E",
"V  c #237760",
"C  c #247660",
"Z  c #287761",
"A  c #227860",
"S  c #237961",
"D  c #247961",
"F  c #247A62",
"G  c #247A63",
"H  c #257A63",
"J  c #257B63",
"K  c #257B64",
"L  c #257C64",
"P  c #267C64",
"I  c #277D65",
"U  c #277E66",
"Y  c #257B63",
"T  c #287862",
"R  c #2E7964",
"E  c #287F67",
"W  c #287F67",
"Q  c #367564",
"!  c #564C41",
"~  c #8E5C54",
"^  c #A34944",
"/  c #298068",
"(  c #2B816A",
")  c #2C826A",
"_  c #2D836B",
"`  c #2E836C",
"'  c #32816B",
"]  c #32836C",
"[  c #37816D",
"{  c #30856E",
"}  c #31866F",
"|  c #32876F",
" . c #328770",
".. c #368A73",
"X. c #378A73",
"o. c #388C75",
"O. c #398C75",
"+. c #3B8E77",
"@. c #3D8F78",
"#. c #3D8F79",
"$. c #3F917A",
"%. c #428E79",
"&. c #43947D",
"*. c #44957E",
"=. c #479781",
/* pixels */
"                                                                                                                                ",
"                                                                                                                                ",
"                                                                                                                                ",
"                                                                                                                                ",
"                                                                                                                                ",
"                                                                                                                                ",
"                                                                                                                                ",
"                                                                                                                                ",
"                                                                                                                                ",
"                                                                                                                                ",
"                                                                                                                                ",
"                                                                                                                                ",
"                                                                                                                                ",
"                                                                                                                                ",
"                                                                                                                                ",
"                                                                                                                                ",
"                                                                                                                                ",
"                                                                                                                                ",
"                                                                                                                                ",
"                                                      7 7 7 7 7 7 7 7 7 7                                                       ",
"                                                > > , m B B B B B B B B M 7 > >                                                 ",
"                                              ; f j c D { O.O.O.O.O._ E D b j h ,                                               ",
"                                            7 w M E E E { @.@.&.=.=..._ E E _ T u 7                                             ",
"                                          ; w E E E E E E E E +.=.=.=.O.E E O.$.( u >                                           ",
"                                          ; w E n z x S E E E ` { { { _ E E O.&.@.Z h ;                                         ",
"                                          w h m d y d B E E E E E E E E E E  .O.O...B u 7                                       ",
"                                        > h m y a a a N S D U E U B B B V U K S S ..O.D 0 ;                                     ",
"                                        > q d y m n y d d x U E M 7 7 7 0 B n d d B ( D 0 ;                                     ",
"                                      , 7 d n n S m y y y a v B b > ! i 4 g c x y z n n j u                                     ",
"                                      , q v S E S n y d a y y n b 7 ~ ^ 5 1 j B d y y y m h ;                                   ",
"                                      , q y x E x y d N v y y y x D r < : ; j U U x y y y 9 ;                                   ",
"                                    7 9 7 9 z E z d N K n y y y d x q 9 9 9 s x x d y y y 7 ;                                   ",
"                                  > 7 q , 7 d E n m E E n y y y y 9 9 q y 9 9 q y q 9 9 9 7 >                                   ",
"                                  > 7 q , > w E E E E E n y y y 9 > > 7 q , > , y 6 > > > ;                                     ",
"                                  > 7 q , $ $ 0 M E D x s y y 7 ; o * u b $ o = M w & o                                         ",
"                                  > 7 q , @ O > b V n a y q 9 ; @ . @ p R % . = ' r @ .                                         ",
"                                  > 7 q , $ @ > k c q y y y , @ . . . 3 Q % . - %.3 .                                           ",
"                                  > 7 y q 9 6 > $ * , q x m , @ . . . + % X . - %.3 .                                           ",
"                                  > u m m m h > O @ , q s s 9 ; @ . . - l + O < ] r $                                           ",
"                                  > h E E B h & @ & 0 9 , ; 9 7 ; @ O t [ = $ 0 D u >                                           ",
"                                  > h E E h * X $ w B 7 $ o ; 9 y q , f C 7 ; 0 D u >                                           ",
"                                  > : < w q 7 > > 7 x c k r , * * 6 7 q f c 0 , u q 7 ;                                         ",
"                                  > # X $ , 9 y 7 q v S E B 7 & $ > q 7 , x w , u y 9 ;                                         ",
"                                  > $ X . $ , y y x D U U N y 7 , , q 9 , y 7 w D x 9 ;                                         ",
"                                    * $ X $ , y 7 7 w B m d 6 7 q q b x y m N B U S h ;                                         ",
"                                      * X O * 7 7 > $ e w 7 > 9 d x S N v n m n c j f >                                         ",
"                                      * o X O > 7 > o o # * ; 7 d B B B M y 9 7 > > >                                           ",
"                                        ; @ O > , > ; ; # O ; , , 6 6 6 , , $ @ ;                                               ",
"                                        > 8 2 @ w s 7 , * & 7 s j j * @ @ @ # $                                                 ",
"                                        > h f o r f , * & ; 9 x M M = o o o $ ;                                                 ",
"                                          ; > > O . . . . o ; > > > > > > >                                                     ",
"                                                & & & & & & ; > > > > > ;                                                       ",
"                                                  ; > > > > > > > > ; > ;                                                       ",
"                                                    ; ; ; > > > > ;                                                             ",
"                                                    ;   ; > > > ;                                                               ",
"                                                          ; ; ;                                                                 ",
"                                                > >         ;       > ;                                                         ",
"                                                                    > ;                                                         ",
"                                                          >                                                                     ",
"                                                          >                                                                     ",
"                                                                                                                                ",
"                                              ; ;     >                                                                         ",
"                                              ; ;                                                                               ",
"                                                                                                                                "
};
