/* XPM */
static char *daa94319551b4a07b8a9fbc45260ca0emJMSwLG3xwDQbKGT[] = {
/* columns rows colors chars-per-pixel */
"64 64 98 2 ",
"   c None",
".  c #010907",
"X  c #000C09",
"o  c #00110D",
"O  c #001711",
"+  c #001C14",
"@  c #002017",
"#  c #00231A",
"$  c #08241D",
"%  c #00291E",
"&  c #012E22",
"*  c #003526",
"=  c #003728",
"-  c #0F352B",
";  c #013B2B",
":  c #0B3A2D",
">  c #0E3E31",
",  c #353025",
"<  c #62332B",
"1  c #01422F",
"2  c #034432",
"3  c #084433",
"4  c #024936",
"5  c #0A4937",
"6  c #044E3A",
"7  c #184136",
"8  c #1A473A",
"9  c #144D3E",
"0  c #04533D",
"q  c #0D513E",
"w  c #314335",
"e  c #384438",
"r  c #075640",
"t  c #0D5541",
"y  c #0B5A44",
"u  c #0E5F49",
"i  c #125542",
"p  c #145A47",
"a  c #155E4A",
"s  c #235A4B",
"d  c #0F604A",
"f  c #14644E",
"g  c #1A634F",
"h  c #146650",
"j  c #196550",
"k  c #176A53",
"l  c #1C6C56",
"z  c #1C6D57",
"x  c #1E6D57",
"c  c #1A6A54",
"v  c #1B6F58",
"b  c #1C7059",
"n  c #1C7159",
"m  c #1E725B",
"M  c #1E735B",
"N  c #1F745C",
"B  c #1F745D",
"V  c #226251",
"C  c #296252",
"Z  c #296454",
"A  c #21765E",
"S  c #21765F",
"D  c #23765F",
"F  c #25755F",
"G  c #2F705E",
"H  c #2D7662",
"J  c #227860",
"K  c #237961",
"L  c #237962",
"P  c #247961",
"I  c #247A62",
"U  c #247A63",
"Y  c #257A63",
"T  c #257B63",
"R  c #257B64",
"E  c #257C64",
"W  c #267C64",
"Q  c #267D65",
"!  c #277D66",
"~  c #287F67",
"^  c #2A7E67",
"/  c #297F68",
"(  c #515347",
")  c #7D5148",
"_  c #83322C",
"`  c #A65953",
"'  c #2A8069",
"]  c #2B826A",
"[  c #2C816A",
"{  c #2C826A",
"}  c #2F856D",
"|  c #36826D",
" . c #398570",
".. c #338870",
"X. c #358972",
"o. c #398973",
"O. c #3B8873",
"+. c #41927C",
/* pixels */
"                                                                                                                                ",
"                                                                                                                                ",
"                                                                                                                                ",
"                                                                                                                                ",
"                                                                                                                                ",
"                                                                                                                                ",
"                                                                                                                                ",
"                                                                                                                                ",
"                                                                                                                                ",
"                                                                                                                                ",
"                                                                                                                                ",
"                                                                                                                                ",
"                                                                                                                                ",
"                                                                                                                                ",
"                                                                                                                                ",
"                                                                                                                                ",
"                                                                                                                                ",
"                                                                                                                                ",
"                                                                                                                                ",
"                                                                                                                                ",
"                                                                                                                                ",
"                                                                                                                                ",
"                                                                                                                                ",
"                                                                                                                                ",
"                                                                                                                                ",
"                                                                                                                                ",
"                                                                                                                                ",
"                                                                                                                                ",
"                                                                                                                                ",
"                                                                                                                                ",
"                                                                                                                                ",
"                                                                                                                                ",
"                                                                                                                                ",
"                                                                                                                                ",
"                                                                                                                                ",
"                                                                                                                                ",
"                                                                                                                                ",
"                                                                                                                                ",
"                                                                                                                                ",
"                                                                                                                                ",
"                                                                                                                                ",
"                                                                                                                                ",
"                                                                                                                                ",
"                                                        ; ; ; ; ; ; ; ; ; ;                                                     ",
"                                                = = = = i z z z z z z z z z t = = =                                             ",
"                                                q i i i c ~ ~ ~ [ X.X.X...' c p g p q                                           ",
"                                              ; f K Q K S S S R } +.o. .| F U [ o.~ f 3 3 3                                     ",
"                                            ; 6 0 h U u y y y M / ' i 3 3 3 g S y y f S S p =                                   ",
"                                          1 q k k M K y 0 0 0 u c ~ 5 e ) < w p k y y f f f p ;                                 ",
"                                        = 2 y N U U v y y y 0 0 y N t ( ` _ , 5 U k y 0 0 d c ;                                 ",
"                                        = 2 0 0 M c 0 0 k S 0 0 0 0 N p = = = 5 U ~ c 0 0 0 6 ;                                 ",
"                                      ; 4 2 2 0 M c r k K S 0 0 0 0 y r 4 4 4 6 u d y 0 0 0 6 ;                                 ",
"                                      ; 6 2 ; 4 z N h K ~ S 0 0 0 0 4 4 4 0 6 4 4 6 6 4 4 4 2 ;                                 ",
"                                      ; 6 2 = = g Q ~ ~ Q N 0 0 0 0 ; = ; 6 2 = = 4 4 = = = =                                   ",
"                                      ; 6 2 % o * p ~ ~ c y 0 0 4 ; + @ ; k > o o i p = + O                                     ",
"                                      ; 6 2 % . % q Q c y 0 0 4 ; @ X o & H 7 . . s V @ @ @                                     ",
"                                    = ; 2 ; # o & q M d y y y 4 & o o o $ G 8 O o C Z + & =                                     ",
"                                = = = * O o + * 2 0 y M K K K u 2 * * ; 4 3 4 2 * g z 4 ; = =                                   ",
"                              = = @ + O X + : g k f 6 : - : q 4 2 4 4 t c j c f 4 y r ; # % =                                   ",
"                            % % % + O O O % 3 c c a 2 @ O + = & * 4 4 t c c c f 6 4 ; % + @ =                                   ",
"                          = O . X % = = = = = = = = = = = = = + O = = = = = = = = = # X % =                                     ",
"                          = 9 9 ; @ O O O O O O ; t c c t 2 ; & @ O ; t c c : O O O + %                                         ",
"                          = i t 2 % + + + + + + & : 9 9 > & @ @ @ + ; q p p : + + + @ =                                         ",
"                            = = = = = = = = = = O . . . . . . . O = = = = = = = = = =                                           "
};
