/* XPM */
static char *_e3dedc232bb4997903308becdfe9fdcrY32qyh5r0CsIQjS[] = {
/* columns rows colors chars-per-pixel */
"64 64 108 2 ",
"   c None",
".  c #010907",
"X  c #000C0A",
"o  c #00120D",
"O  c #011711",
"+  c #001C14",
"@  c #081F19",
"#  c #012017",
"$  c #01241B",
"%  c #0B241E",
"&  c #00291D",
"*  c #012D21",
"=  c #0B2C23",
"-  c #102A23",
";  c #003526",
":  c #0B3026",
">  c #003728",
",  c #013C2C",
"<  c #0C3A2C",
"1  c #113427",
"2  c #093F31",
"3  c #502D24",
"4  c #6C2C24",
"5  c #02412F",
"6  c #024432",
"7  c #084635",
"8  c #034936",
"9  c #0A4937",
"0  c #034E3A",
"q  c #0B4C3A",
"w  c #134134",
"e  c #1F4233",
"r  c #164539",
"t  c #1B4B3E",
"y  c #04533D",
"u  c #0E523F",
"i  c #71433B",
"p  c #065640",
"a  c #0D5642",
"s  c #0B5A44",
"d  c #0E5F48",
"f  c #115643",
"g  c #125946",
"h  c #145E4A",
"j  c #195E4B",
"k  c #0F604A",
"l  c #12634C",
"z  c #19634E",
"x  c #156750",
"c  c #1A6651",
"v  c #166952",
"b  c #1B6B55",
"n  c #1D6F59",
"m  c #1E735B",
"M  c #206D57",
"N  c #296C5A",
"B  c #21745D",
"V  c #237760",
"C  c #257761",
"Z  c #227860",
"A  c #237860",
"S  c #227861",
"D  c #237961",
"F  c #247962",
"G  c #257962",
"H  c #247A62",
"J  c #257A63",
"K  c #257B63",
"L  c #257C64",
"P  c #267C64",
"I  c #267C65",
"U  c #267D65",
"Y  c #277D65",
"T  c #277D66",
"R  c #257A63",
"E  c #287F67",
"W  c #297F67",
"Q  c #287F67",
"!  c #297F68",
"~  c #2E7E68",
"^  c #357E6A",
"/  c #65564B",
"(  c #964842",
")  c #81564E",
"_  c #298068",
"`  c #2B826A",
"'  c #2F826B",
"]  c #2E836C",
"[  c #2E846C",
"{  c #30816B",
"}  c #31846D",
"|  c #31866E",
" . c #31866F",
".. c #398771",
"X. c #338870",
"o. c #348871",
"O. c #358971",
"+. c #358972",
"@. c #368A73",
"#. c #388B74",
"$. c #398C75",
"%. c #3C8F78",
"&. c #3F917A",
"*. c #40917B",
"=. c #41927C",
"-. c #45957F",
";. c #469680",
":. c #479781",
/* pixels */
"                                                                                                                                ",
"                                                                                                                                ",
"                                                                                                                                ",
"                                                                                                                                ",
"                                                                                                                                ",
"                                                                                                                                ",
"                                                                                                                                ",
"                                                                                                                                ",
"                                                                                                                                ",
"                                                                                                                                ",
"                                                                                                                                ",
"                                                                                                                                ",
"                                                                                                                                ",
"                                                                                                                                ",
"                                                                                                                                ",
"                                                                                                                                ",
"                                                                                                                                ",
"                                                                                                                                ",
"                                                                                                                                ",
"                                                                                                                                ",
"                                                                                                                                ",
"                                                                                                                                ",
"                                                                                                                                ",
"                                                                                                                                ",
"                                                                                                                                ",
"                                                                                                                                ",
"                                                                                                                                ",
"                                                                                                                                ",
"                                                                                                                                ",
"                                                                                                                                ",
"                                                                                                                                ",
"                                                                                                                                ",
"                                                                                                                                ",
"                                                                                                                                ",
"                                                      ; > > > > > > > > >                                                       ",
"                                                    , f f f f f f f f f f 6                                                     ",
"                                                , 5 7 B _ _ _ _ _ _ E E V q 5 ,                                                 ",
"                                              ; z B B U o.=.=.=.=.=.] E U B B c ,                                               ",
"                                            q h B E E E [ o.o.*.:.:.%. .E E  .{ z q                                             ",
"                                          ; q E B m B U E E E o.&.&.&.o.E E $.=. .j 7                                           ",
"                                          ; q E l y s B E E E ! _ _ _ E E E $.:.-. .z >                                         ",
"                                        ; f z l p y p B E E E E E E E E E E [ X.X.#.~ z 7                                       ",
"                                        > a l y d d p v b m U E B z z z c J B b b ' o.J 9 ;                                     ",
"                                        , 8 y y m b y y y s D U c > < < < M l y y b U D q ,                                     ",
"                                      , 8 l m m J b y y y y d m c > ) ( 4 e z b y p d d c g ;                                   ",
"                                      , 0 k m E m l y l s y y l z f / i 3 1 h D x p y y l a ;                                   ",
"                                    , , 8 y k E k y d D v y y y d B q , , , h B B k y y y 6 ;                                   ",
"                                  > 6 8 , 8 k E k k J U v y y y y p y 0 0 0 y p p y y y y 6 ;                                   ",
"                                  > 6 0 , , a E m m E E v y y y 0 6 6 8 y 6 6 8 y 8 6 6 6 5                                     ",
"                                  > 6 0 , ; 2 n J E U B l y y 0 6 & ; 8 a ; & , s 6 ; & ;                                       ",
"                                  > 6 0 , + O > c E D s y y y 5 & . & f B @ . % C u $ .                                         ",
"                                  > 6 0 , + O > c m d y y 0 5 & o . o t ^ % . - ..r o                                           ",
"                                  > > > > * * 5 g h y k l s , + X + $ r N w % : N w &                                           ",
"                                  ; # o * 6 y y 5 6 s B E B , + + > 8 6 , n f , , 8 8 ;                                         ",
"                                ; > # . o & 6 y 0 d V U E B 0 , ; > 8 6 , y 7 7 n d 8 ;                                         ",
"                              ; ; $ # $ * & & 6 6 q h J m l 8 6 6 6 l s 8 l z z U m a ; >                                       ",
"                            ; ; * o + ; 8 : = 6 , > ; j g 8 , 8 y y m n d D J B B B g * ; ;                                     ",
"                          ; > & X . . O ; g B B s > X O & , > 8 y y m U J U v p p 8 * o * ;                                     ",
"                        * + + + $ $ $ & ; 7 u u 7 > $ $ * ; + ; 5 5 q u u u 8 5 5 & + $ *                                       ",
"                      ; ; = $ $ & & & & & & * , 9 q q 6 , ; + $ * , q q 9 * & & & + $ ;                                         ",
"                      ; 9 J k > . . . . . . # y m E D s 6 > > + # y m E B @ . . . $ >                                           ",
"                          q 6 > & & & & & & $ # = = = $ + O O $ * , q q 9 * & & & *                                             ",
"                          > ; ; ; ; > > > > * + + + + + + + + * > > > > ; ; ; ; ;                                               ",
"      ; > > ;     >                   > > > > > > > > > > > > > > > > > >             > > ;                                     "
};
