/* XPM */
static char *cce18a3a1c494cdcc5cd39c7131de5a6BJy8ol3SgbyiL03H[] = {
/* columns rows colors chars-per-pixel */
"64 64 197 2 ",
"   c None",
".  c #010907",
"X  c #000C09",
"o  c #000E0B",
"O  c #010E0B",
"+  c #000F0B",
"@  c #010F0B",
"#  c #01110D",
"$  c #01120D",
"%  c #00140F",
"&  c #001711",
"*  c #051713",
"=  c #001812",
"-  c #001A13",
";  c #011B14",
":  c #051B15",
">  c #001D15",
",  c #011D15",
"<  c #011E16",
"1  c #001F16",
"2  c #002017",
"3  c #002018",
"4  c #002118",
"5  c #012118",
"6  c #002119",
"7  c #002219",
"8  c #00241A",
"9  c #00251B",
"0  c #03241B",
"q  c #00271C",
"w  c #05241C",
"e  c #06251C",
"r  c #07271E",
"t  c #0A261F",
"y  c #00281D",
"u  c #00291D",
"i  c #00291E",
"p  c #01291E",
"a  c #002A1E",
"s  c #002B1F",
"d  c #012B1F",
"f  c #002C20",
"g  c #002E21",
"h  c #002E22",
"j  c #002F22",
"k  c #0D2D25",
"l  c #003023",
"z  c #003124",
"x  c #033125",
"c  c #003224",
"v  c #003225",
"b  c #003325",
"n  c #023225",
"m  c #003527",
"M  c #003627",
"N  c #003727",
"B  c #003628",
"V  c #003728",
"C  c #023628",
"Z  c #003828",
"A  c #013829",
"S  c #00392A",
"D  c #01392A",
"F  c #003A2A",
"G  c #013A2A",
"H  c #003B2A",
"J  c #003B2B",
"K  c #013B2B",
"L  c #003C2B",
"P  c #003C2C",
"I  c #013C2C",
"U  c #003D2C",
"Y  c #013E2D",
"T  c #013F2E",
"R  c #043F2F",
"E  c #083C2E",
"W  c #01412F",
"Q  c #01422F",
"!  c #05402F",
"~  c #014130",
"^  c #014230",
"/  c #014331",
"(  c #034230",
")  c #054130",
"_  c #064233",
"`  c #024532",
"'  c #034532",
"]  c #024533",
"[  c #024633",
"{  c #054433",
"}  c #044533",
"|  c #074534",
" . c #044734",
".. c #044735",
"X. c #064635",
"o. c #074735",
"O. c #084635",
"+. c #094736",
"@. c #024834",
"#. c #024835",
"$. c #024A36",
"%. c #044936",
"&. c #084836",
"*. c #084937",
"=. c #0A4937",
"-. c #034C38",
";. c #034D39",
":. c #034E39",
">. c #034F3A",
",. c #064D39",
"<. c #094938",
"1. c #094A38",
"2. c #0B4B39",
"3. c #0D4B3A",
"4. c #084D3A",
"5. c #094E3B",
"6. c #0C4D3B",
"7. c #03503B",
"8. c #04533D",
"9. c #06533E",
"0. c #05543E",
"q. c #05553F",
"w. c #06553F",
"e. c #06563F",
"r. c #09523E",
"t. c #0E503E",
"y. c #0F523F",
"u. c #075740",
"i. c #075741",
"p. c #095540",
"a. c #095741",
"s. c #0A5641",
"d. c #085842",
"f. c #095942",
"g. c #095943",
"h. c #0A5B44",
"j. c #0D5E47",
"k. c #0F5F49",
"l. c #105643",
"z. c #115743",
"x. c #115744",
"c. c #155D49",
"v. c #11634C",
"b. c #12624C",
"n. c #17614C",
"m. c #15624C",
"M. c #13664F",
"N. c #14664F",
"B. c #15664F",
"V. c #19644F",
"C. c #146750",
"Z. c #156750",
"A. c #1A6450",
"S. c #1E6753",
"D. c #166952",
"F. c #176A53",
"G. c #1B6853",
"H. c #186B54",
"J. c #1A6A54",
"K. c #196C55",
"L. c #1A6E57",
"P. c #1C6D57",
"I. c #1B6F58",
"U. c #1B7058",
"Y. c #1D715A",
"T. c #1F725B",
"R. c #1F745C",
"E. c #206855",
"W. c #206B56",
"Q. c #206C57",
"!. c #236E5A",
"~. c #276F5B",
"^. c #20705A",
"/. c #20715B",
"(. c #21745D",
"). c #22745E",
"_. c #21765F",
"`. c #23765F",
"'. c #2C735F",
"]. c #257761",
"[. c #2F7764",
"{. c #227860",
"}. c #237860",
"|. c #237861",
" X c #247A63",
".X c #257B64",
"XX c #257C64",
"oX c #2F7864",
"OX c #287F67",
"+X c #2A7E67",
"@X c #2C7C66",
"#X c #298068",
"$X c #30856E",
"%X c #31866E",
"&X c #378B74",
"*X c #398A74",
"=X c #3D8F78",
/* pixels */
"                                                                                                                                ",
"                                                                                                                                ",
"                                                                                                                                ",
"                                                                                                                                ",
"                                                                                                                                ",
"                                                                                                                                ",
"                                                                                                                                ",
"                                                                                                                                ",
"                                                                                                                                ",
"                                                                                                                                ",
"                                                                                                                                ",
"                                                                                                                                ",
"                                                                                                                                ",
"                                                                                                                                ",
"                                                                                                                                ",
"                                                                                                                                ",
"                                                                                                                                ",
"                                                                                                                                ",
"                                                                                                                                ",
"                                                                                                                                ",
"                                                                                                                                ",
"                                                                                                                                ",
"                                                                                                                                ",
"                                                                                                                                ",
"                                                                                                                                ",
"                                                                                                                                ",
"                                                                                                                                ",
"                                                                                                                                ",
"                                                                                                                                ",
"                                                                                                                                ",
"                                                                                                                                ",
"                                                                                                                                ",
"                                                                                                                                ",
"                                                                                                                                ",
"                                                                                                                                ",
"                                                                                                                                ",
"                                                                                                                                ",
"                                                                                                                                ",
"                                                                                                                                ",
"                                                                                                                                ",
"                                                                                                                                ",
"                                                                                                                                ",
"                                                                                                                                ",
"                                                                                                                                ",
"                                                                                                                                ",
"                                                                                                                                ",
"                                                                                                                                ",
"                                                                                                                                ",
"                                                                m m m m m m m m m                                               ",
"                                                              O.&.&.&.&.&.&.&.&.&.)                                             ",
"                                                      m V V V V.OXOXOXOXOXOXOXOXOXy.V V V m                                     ",
"                                                    R n.G.G.G.`.OXOXOX%X=X=X=X&X#X/.!.[.Q.l.m m                                 ",
"                                                  Y o.B.`..XI.L.L.L. X%X*XoX'.~.A.`.OX@XY.n.y.y.1.                              ",
"                                              V Z ~ 8.0.D.R.0.0.0.8.Y.XX`.O.Z V V n.L.0.0.B.XXXXl.Z V                           ",
"                                        m m m V ` :.u.U.D.g.8.D.H.8.g.h.j.P.y.V V R x.`.`.D.h.h.8.$.V                           ",
"                                      Z ~ ` Z 2 u V %.v.j.u.C.`.|.D.g.:.o.l.5.Q V Y 5.c.`.H.7.` ` Q V                           ",
"                                    j v ~ ` v . + 9 o.s.u.s.S.E.E./.s.` L L ,.s.o.r.r.O.H.C.:.Z v l V                           ",
"                                V V 6 + $ $ + . 9 3.`.|.M.o.: * r ! Z ~ :.:.C.|.`.|.|.`.k.0.:.Z 2 = V                           ",
"                          m V u = = 2 9 9 9 9 9 v ) y.y.&.Y q 9 u V 6 u Q Q 1.y.y.y.y.y.{ Q Z < 6 u V                           ",
"                          V O.E < + = u u u u u u u u Z o.6.6.{ Y V < 9 V V j j Y &.6.1.v u 6 + = j V                           ",
"                    V V V V G.L.:.; . . . . . . . . $ ` D.OXOXv.$.V V V V V < ; :.L.OX].t . . . . % V     m                     ",
"                    V ~ ` Z O.&.Y j u u u u u u u u q 6 r k k r < & & & & & 6 j Y &.6.1.v u u u u u   m Y $.Z                   ",
"                      Q ~ V V V V V V V V V V V V V v 6 < < < < < < < < < < u V V V V V V V V V V V   m Y ` Z                   ",
"                      m V V V V V V V V V V V V V V V V V V V V V V V V V V V V V V V V V V V V     V V V V V                   "
};
