/* XPM */
static char *_cd8b070d77c489797767df63ea8cfabFSyprm3oNpAJEZ6i[] = {
/* columns rows colors chars-per-pixel */
"64 64 98 2 ",
"   c None",
".  c #010907",
"X  c #000B08",
"o  c #01120D",
"O  c #011711",
"+  c #001C14",
"@  c #002017",
"#  c #01241A",
"$  c #00281D",
"%  c #012E21",
"&  c #0C2C23",
"*  c #013426",
"=  c #003728",
"-  c #0C372B",
";  c #013C2C",
":  c #103A2C",
">  c #5B2B23",
",  c #49362B",
"<  c #6C3E36",
"1  c #01412F",
"2  c #034432",
"3  c #0A4434",
"4  c #024936",
"5  c #0A4937",
"6  c #034D39",
"7  c #0B4C3A",
"8  c #1E4C3C",
"9  c #04533D",
"0  c #0E523F",
"q  c #075740",
"w  c #085540",
"e  c #0A5A44",
"r  c #0E5F49",
"t  c #125643",
"y  c #115A46",
"u  c #145E4A",
"i  c #195D4A",
"p  c #0F604A",
"a  c #14644E",
"s  c #12634C",
"d  c #18604C",
"f  c #1E614F",
"g  c #19644F",
"h  c #176650",
"j  c #1C6652",
"k  c #156851",
"l  c #166852",
"z  c #166952",
"x  c #176A53",
"c  c #196A54",
"v  c #186B54",
"b  c #1C6A54",
"n  c #1D6B55",
"m  c #1A6E56",
"M  c #1E6D57",
"N  c #1C6E57",
"B  c #1B6F58",
"V  c #1C7159",
"C  c #1D715A",
"Z  c #1D725B",
"A  c #1F725B",
"S  c #1E735C",
"D  c #1F735C",
"F  c #1F745C",
"G  c #1F745D",
"H  c #206855",
"J  c #206E58",
"K  c #21745D",
"L  c #22745E",
"P  c #20765E",
"I  c #21765F",
"U  c #23765F",
"Y  c #227760",
"T  c #237760",
"R  c #227860",
"E  c #227861",
"W  c #237961",
"Q  c #247A63",
"!  c #257A63",
"~  c #257B63",
"^  c #257C64",
"/  c #267C64",
"(  c #267D65",
")  c #277E66",
"_  c #2B7A64",
"`  c #287F67",
"'  c #695047",
"]  c #90403A",
"[  c #8E5C54",
"{  c #2A8169",
"}  c #2D836B",
"|  c #30826C",
" . c #32866F",
".. c #33866F",
"X. c #398570",
"o. c #358972",
"O. c #3A8D76",
"+. c #3D8C76",
/* pixels */
"                                                                                                                                ",
"                                                                                                                                ",
"                                                                                                                                ",
"                                                                                                                                ",
"                                                                                                                                ",
"                                                                                                                                ",
"                                                                                                                                ",
"                                                                                                                                ",
"                                                                                                                                ",
"                                                                                                                                ",
"                                                                                                                                ",
"                                                                                                                                ",
"                                                                                                                                ",
"                                                                                                                                ",
"                                                                                                                                ",
"                                                                                                                                ",
"                                                                                                                                ",
"                                                                                                                                ",
"                                                                                                                                ",
"                                                                                                                                ",
"                                                                                                                                ",
"                                                                                                                                ",
"                                                                                                                                ",
"                                                                                                                                ",
"                                                                                                                                ",
"                                                                                                                                ",
"                                                                                                                                ",
"                                                                                                                                ",
"                                                                                                                                ",
"                                                                                                                                ",
"                                                                                                                                ",
"                                                                                                                                ",
"                                                                                                                                ",
"                                                                                                                                ",
"                                                                                                                                ",
"                                                                                                                                ",
"                                                                                                                                ",
"                                                                                                                                ",
"                                                                                                                                ",
"                                                                                                                                ",
"                                                                                                                                ",
"                                                                                                                                ",
"                                                                                                                                ",
"                                                            ; = = ; = = ; = = =                                                 ",
"                                                    = = = 2 b M M M M M M M M d = = = =                                         ",
"                                                  5 t t t u ^ ` ` ` ..o.o.o.} I y i i t 3                                       ",
"                                                = 0 T ^ ! I I I R ` O.+.X.X._ I ^ ..| S 0 2 2                                   ",
"                                              = 4 9 r T v e e e s ` { j 3 3 2 7 ! z e e M I b ;                                 ",
"                                            ; 2 s v m ! z 9 9 9 e s R u : ' < , t d s 9 p s a d 7                               ",
"                                          * ; 9 z R ^ I s 9 r q 9 9 v d 8 [ ] > * g V r 9 9 e B 0 =                             ",
"                                          * ; 9 9 s R e 9 e ^ s 9 9 9 s I 2 = = = g ` ^ r 9 9 9 2 =                             ",
"                                        = 2 2 ; 6 s R e s S ^ s 9 9 9 e r 6 4 4 4 e p r q 9 9 9 2 =                             ",
"                                        = 2 4 = 2 y ! z V ` ` s 9 9 9 6 4 4 6 9 4 4 6 9 4 4 4 4 1                               ",
"                                        = 4 4 = * 7 ! ^ ` ` ^ s 9 9 9 2 * * 4 6 * * 1 9 ; * * *                                 ",
"                                      ; 4 9 4 = + # 5 I ` R r 9 9 9 2 $ O % y i O o - V 3 $ o                                   ",
"                                    1 4 9 ; $ @ @ % 4 s G ! z z s 9 ; % # ; 0 7 * # 3 ! 0 * @ *                                 ",
"                                  % = 2 2 @ X o * 7 e 9 u H H J h 6 1 ; 1 w 7 5 e 7 t G e 2 * % * =                             ",
"                            = = * + o o o X O * d T G e = O O * ; = 4 6 9 V T I R T v e 9 2 % o # =                             ",
"                        = = @ + + @ # # # # $ = 5 0 7 2 * # # * % + = 1 2 7 0 0 0 0 5 1 1 * + # $                               ",
"                      * ; 7 % O X @ $ $ $ $ $ $ $ * 2 5 7 5 1 = % O # * 2 5 7 3 $ $ $ $ $ @ + *                                 ",
"                      * 5 ! p = . . . . . . . . . # e I ` I 9 1 = = o $ e I ` f o . . . . + *                                   ",
"                          7 2 = $ $ $ $ $ $ $ $ $ # @ & & & @ + O O # * 2 5 7 3 $ $ $ $ $ %                                     ",
"                          = * = = = = = = = = = = % + + + + + + + + * = = = = = = = * * *                                       ",
"                                = = = = = = = = = = = = = = = = = = = = = = = = =                                               "
};
