/* XPM */
static char *_31d3f10c21343f1e11fdfb42d823fc15NbSM1SPPint1VZo[] = {
/* columns rows colors chars-per-pixel */
"64 64 255 2 ",
"   c #19130F",
".  c #1C1814",
"X  c #290E14",
"o  c #370D13",
"O  c #271817",
"+  c #33191A",
"@  c #340F0C",
"#  c #2A211D",
"$  c #3C231F",
"%  c #381E22",
"&  c #231620",
"*  c #2D2422",
"=  c #2C2827",
"-  c #332A25",
";  c #362826",
":  c #3D332C",
">  c #36332A",
",  c #3D3732",
"<  c #3E2F34",
"1  c #5A080E",
"2  c #460D13",
"3  c #560D11",
"4  c #5B1211",
"5  c #4B110F",
"6  c #660A14",
"7  c #671417",
"8  c #4D281D",
"9  c #701A24",
"0  c #452727",
"q  c #542C29",
"w  c #45372D",
"e  c #5B3C2D",
"r  c #56372A",
"t  c #473935",
"y  c #563B33",
"u  c #623629",
"i  c #663D36",
"p  c #763030",
"a  c #4B453A",
"s  c #5B4334",
"d  c #5B443A",
"f  c #554639",
"g  c #50422E",
"h  c #64432C",
"j  c #6A492C",
"k  c #644334",
"l  c #664934",
"z  c #6B4B34",
"x  c #644B3B",
"c  c #6C4C3C",
"v  c #684437",
"b  c #724C34",
"n  c #734C3A",
"m  c #784C3A",
"M  c #6B523D",
"N  c #74523C",
"B  c #7B543C",
"V  c #785739",
"C  c #71502F",
"Z  c #584B45",
"A  c #5A5649",
"S  c #524F52",
"D  c #6B4C42",
"F  c #664945",
"G  c #695648",
"H  c #745443",
"J  c #7A5442",
"K  c #7C5B43",
"L  c #745B4D",
"P  c #7C5C4A",
"I  c #755848",
"U  c #6B5C53",
"Y  c #685855",
"T  c #745D56",
"R  c #714A48",
"E  c #5D6255",
"W  c #7C634B",
"Q  c #77654D",
"!  c #6C6659",
"~  c #75645C",
"^  c #79645C",
"/  c #7A6756",
"(  c #716953",
")  c #655862",
"_  c #6B6965",
"`  c #736C64",
"'  c #7B6B64",
"]  c #766965",
"[  c #7C7365",
"{  c #777369",
"}  c #777776",
"|  c #6D7072",
" . c #595D60",
".. c #5A3940",
"X. c #C6283E",
"o. c #80563D",
"O. c #82623C",
"+. c #B52F44",
"@. c #8C354D",
"#. c #825C44",
"$. c #835A49",
"%. c #8E5657",
"&. c #846345",
"*. c #84634B",
"=. c #8A644B",
"-. c #8C6B4C",
";. c #876948",
":. c #8F724D",
">. c #836B54",
",. c #8B6B53",
"<. c #856856",
"1. c #936C55",
"2. c #8B745C",
"3. c #897358",
"4. c #95755B",
"5. c #9B7B5C",
"6. c #967659",
"7. c #92704E",
"8. c #995961",
"9. c #A25664",
"0. c #A44F66",
"q. c #866866",
"w. c #9C666A",
"e. c #837364",
"r. c #8A7564",
"t. c #8D7A65",
"y. c #847A6B",
"u. c #8B7C6B",
"i. c #877767",
"p. c #947C64",
"a. c #9B7D63",
"s. c #957B69",
"d. c #967D75",
"f. c #837A75",
"g. c #A47A68",
"h. c #A87073",
"j. c #A45A5A",
"k. c #7D8378",
"l. c #8E8269",
"z. c #9D8266",
"x. c #95836B",
"c. c #9C846B",
"v. c #98876C",
"b. c #8D8474",
"n. c #898676",
"m. c #948573",
"M. c #958A73",
"N. c #9B8B74",
"B. c #948C7C",
"V. c #9C8C7B",
"C. c #988476",
"Z. c #9C927B",
"A. c #9B9379",
"S. c #A2846C",
"D. c #A38A6D",
"F. c #A58567",
"G. c #A58C73",
"H. c #AA8C75",
"J. c #A78B79",
"K. c #AC9275",
"L. c #A3947C",
"P. c #AC947C",
"I. c #AC9A7D",
"U. c #A3987C",
"Y. c #B2947C",
"T. c #B39A7D",
"R. c #B49679",
"E. c #B09076",
"W. c #9F825D",
"Q. c #797782",
"!. c #A7758D",
"~. c #7E818E",
"^. c #898B85",
"/. c #988E81",
"(. c #9B9383",
"). c #9B9787",
"_. c #8C9096",
"`. c #A48D84",
"'. c #A49583",
"]. c #A49B83",
"[. c #AB9B83",
"{. c #A59C8B",
"}. c #AB9C8B",
"|. c #A89588",
" X c #B39682",
".X c #B49C83",
"XX c #B89C89",
"oX c #A99C93",
"OX c #B39492",
"+X c #ACA28C",
"@X c #AAA288",
"#X c #B4A185",
"$X c #B4A48B",
"%X c #BBA48C",
"&X c #BBA98E",
"*X c #B6A588",
"=X c #ACA393",
"-X c #A9A599",
";X c #B3A492",
":X c #BCA592",
">X c #B5AB94",
",X c #BCAB93",
"<X c #B4AC9A",
"1X c #BBAC9B",
"2X c #B5A49B",
"3X c #BDB39B",
"4X c #BAB298",
"5X c #9898A8",
"6X c #9998B2",
"7X c #AF97B2",
"8X c #9BA5B3",
"9X c #B8ADA3",
"0X c #BCB5A3",
"qX c #B8B5A9",
"wX c #BABBB2",
"eX c #A9ACB2",
"rX c #9DA399",
"tX c #C0A88E",
"yX c #C2AC94",
"uX c #C3AC99",
"iX c #C3B39B",
"pX c #C9B39B",
"aX c #C4B599",
"sX c #C1ABA3",
"dX c #C4BAA3",
"fX c #CABAA4",
"gX c #C6B8A6",
"hX c #C6BFB3",
"jX c #C2949E",
"kX c #CAC1AE",
"lX c #CAC3B4",
"zX c #9CA7C4",
"xX c #9EB0C4",
"cX c #A3ABC7",
"vX c #AAB4C9",
"bX c #A9B9D6",
"nX c #B5B2CB",
"mX c #ACC1DD",
"MX c #B7C8DB",
"NX c #B3C2CD",
"BX c #AEC8E4",
"VX c #B1CBE6",
"CX c #B3CEE9",
"ZX c #B4C7E3",
"AX c #B5D2EC",
"SX c #BAD3EC",
"DX c #BBD8F1",
"FX c #C5CCD2",
"GX c #C4DDF4",
"HX c #C2D8EA",
"JX c #C7E4F7",
"KX c #D6E6F1",
"LX c #EBF6FD",
"PX c #F7FBFE",
"IX c #E3EDF2",
/* pixels */
"O     . O . .   . > , a w g l l l j b V V O.:.:.&.;.6.W.:.:.6.5.a.F.K..XXX%XyXyXuXiXpXyXuXyXyXyXyX%X&XyXyXyX%X.XK.F.D.z.e.m.w.9.",
"O O . .     .   = > , a a d l h h j V C V &.:.7.:.;.-.:.5.W.D.K.R.Y.K.Y..X%XXX[.P.P.$XyXiXiXyX&X&XyXyX#XT.P.H.D.z.F.F.v.x.`.w.9.",
"O O O O .     . = - , Z f x l h h b C C V &.;.;.;.:.7.5.5.:.6.5.a.S.S.S.c.H..X%X%X:X$X[.$X,XiXfXiX,X$X&X%X%X*XT.K.K.D.v.M.|.w.9.",
"O O O #   . . * * > a f F x l h j j j C V V V &.-.:.-.:.6.5.F.F.K.K.G.P.T..X%XyX:XyXpXpXfXfXfXfXiXiXyX&X%X%X.XK.K.K.D.v.M.J.h.9.",
"O O # . . . O = > t a Z D l j j j h b b V C o.;.;.&.-.-.5.5.F.F.D.K.K.K.K.T.XX%XyXyXiXiXiXiXiXiXiX4X$X*X&X%X.X#XT.K.D.v.M.C.h.9.",
"O O # . # * * - - t a f k h z h h h N N b C &.&.&.-.7.-.7.5.F.a.z.D.D.P.#X&X$X$X&X,X,XiXiXiXiXiXiX,X,X,X,X$X$X*X[.A.l.l.b.u.w.9.",
"O O * O - = * # * : w f s l l h h z V b z V &.&.;.,.:.,.:.2.4.z.c.N.N.L.$X:X1X3XfXfXgXiXdXfXfXiXiXiX3X4X;X<X{.).b.y.[ [ y.i.8.9.",
"+ O O O - = # # # : t f x s l h h z N N V B K &.*.,.>.>.3.>./ t.x.L.'.+X=X=X<X1XgXgXkXdXfXgXfXdXdX3X3X<X+X=Xb.` A a Z U [ r.8.9.",
"% # O * > * # - - w t w x s s h l l N N B K J K J ,.W / / Q G U e.b.(.n.n./.).=X<X0XkXkXkXkXkXdXgXgX0X=Xn.( a a > a A ( [ r.8.9.",
"; ; # * * * - # ; w w f w e s l l N J B J *.K J W >.W L G G G G A A A a a Z ! B.(.).0XhXlXlXkXgXkXkX0X{.B.! A A ! ( ( [ [ s.w.9.",
"+ + * * O ; * - : : t f s r e l N K V K &.,.*.P W Q G x G G f g f A A Y ! ! [ n.(.).3XkXkXkXkXkXkXkX3X=XB.n.n.+X].A.M.M.m.u.w.9.",
"; + + * * > > t : w t y s e e l N B K J K ,.W P / / G L L L / b.B.B.).(.b.B.B.(.).].>XgXdXdXaXaXdXdX4X+X).(.+X@X].A.U.U.M.t.w.8.",
"% + + + t t , t : : y y e e h z z B #.K *.*.P N / G / 3./ 2.N.N.N.Z.].'.(.M.V.Z.(.].$X3XaXaX&X&X4XaX4XA.(.+X<X3X4X@XL.].Z.s.w.8.",
"% + * * t , t w ; w f y e h k z N J #.#.*.*.*.M H Q / t.v.A.L.L.'.|.{.{.Z.M.t.t.N.Z.+X4XaX,X&X&X,X>XA.A.].=X=X<X<X4X@XA.N.s.h.8.",
"+ + + ; Z : : - - w w r s h N n N B K *.*.W K M >.>.l.v.G.L.[.;X+X0X0X0X@X}.l.>.3.l.I.,X,XaXaXaX4XA.A.M.B./.n.! ! [ A.N.M.c.h.8.",
"+ X % t t > > : ; w w r r h n N N K *.*.*.W H >.>.3.x.N.v.A.+X).n.n.n.n.M.N.N.2.W >.v.[.&XaXpXkX$XN.M.m.b.n.A A k.{ ( l.l.s.h.8.",
"+ X ; t , - : : ; w w y e u n N B #.,.,.*.*.Q >.>.2.v.x.x.M.{ _ ^.k._ { [ e.v.v.3.W 3.G.T.T.#XtX[.v.m.u.-X^.| rXE ).( i.l.G.h.8.",
"X + ; t * > : t t t f s r h z N B #.,.,.*.W W >.3.p.c.p.3.! k.wX_.S A ! B.u.x.v.3.>.,.a.a.F.K.T.T.[.J.|.wXn.E Z E ).b.M.N.P.h.%.",
"+ + ; w : , t t a a U d e h v n B *.=.,.,.*.2.2.t.p.v.>.L [ rXwX| _ a A +Xl.s..Xc.>.3.,.&.-.g.H.*X$XgXoXqX-X_ A } <X{.[.#X%X`.%.",
"0 $ + w t t t Z Z f Y F k z z V K #.,.4.p.p.x.x.p.x.c.2.<.C.).rXk.E A ! <X>XP. XP.>.,.*.o.=.6.E..X.X:X}.oX9X9X+X0X=X].>X4X,X Xq.",
"i i r y Z f t Z a Z ! G x v b m #.=.=.4.a.c.I.[.v.x.c.p.<.s.|.oX9X).f.=XgX;X[.:XG.>.*.K B o.1.F.Y.$X:X|.V.C.V.m.m.M.+X3XaX,XOXw.",
"v v v D L f t Z A A ` ! x z b m #.=.1.4.a.c.U.+X$XL.N.G.s.q.d.'.oX-X-X=X{.}.$X,Xc.3.*.K B o.-.F.T.:X$X;X.X`.J.N.L.#X,X>XiX:X`.<.",
"r r v c I D y Z U A ` ~ x n m B #.-.a.S.G.[.4X3X,X[.N.J.J.d.C.`.`.V.V.'.{.;X:X'.p.,.*.K B B 1.F.Y.:X$X$X:X$X:X,X,X4X4X4XaX:XJ.%.",
"u u k N K I x f Y Y ` ~ I c m #.=.-.6.a.D.[.,X,X,X$XN.C.|.|.`.`.|.}.}.;X1X1X$XP.a.4.,.#.B m 1.S.T.yX&X$X*X$X:X,X3X3X4X4X,X:Xw.%.",
"u b J k P K c y Z ! n.~ G c m B #.=.-.1.a.K.$X,X$X$X'.m.V.;X;X;X1X1X9X1X1X:XP.P.S.4.,.*.J m =.g.Y.tXiX$XiX$X:X1XiXdX3X1X$XXX8.p ",
"u n $.e c I H s f Y { ! D c m o.#.=.=.1.F.K..XU.P.[.L.[.[.}.;X1XgXgXgXgX;XP..X.XG.4.1.=.#.m $.6.Y.%XpX$X,XiXiXfXfXfXfX$X$X X%.p ",
"u B ,.P k H H x d Y U U G M J #.#.#.,.1.,.S.D.K.[.#X.XP.P..X:X1XuXiXgX:XJ.L.$X[.H.p.4.*.J B #.1.H.%XuXyX$XiXiXyXpXpXyX&X.XY.%.p ",
"u $.1.P e r D d y f A Y G x N o.#.#.K ;.-.a.z.P.T.P.K..X%XuXfXuXuXuXXXJ.G..X&X$XP.c.,.K N n #.1.S.XXyXiX$XiXiXiXpXyX&X#XP.Y.$.9 ",
"u $.*.P x y r y y t Z Y U D N B #.B B *.1.6.a.S.G.K..XtX%XXXXXXXXX XH.H.J.%XyXuXXXS.*.K n b J $.g. XyX:X,X:XpXpXpXtX#XT.K.H.p 9 ",
"u $.*.P c D r r r w A ! G D n B B B B #.-.1.,.a.G.T.*X#X.X%X:XXXXXH.Y.Y..X%XiXyX X,.J z v v n #.g.Y.iXiXfX$XpXpXyX%X#XR.K.g.p 9 ",
"q J $.H c D r y r w t U U x n V #.B V #.1.=.,.a.G.P.T.#X.XXX%X XT.H.H.XX:XiXfX&Xc.N N H J b b #.S.%XhXgXfX,XyXpXyX%X#XR.R.F.p 9 ",
"u i J v k e e x y d : Z ^ G N K #.B V &.=.-.1.6.S.G.P.T.P. X X.XH.H.P.XX:XiXgX.X>.c I P $.*.N =.S.iXlXgXiX%X%XuXtXtXT.K.R.g.p 7 ",
"i u n n r 8 c D y Z G Z Z D H J K K #.=.=.-.1.5.F.D.K.K.H.P.H.Y.Y. X X%XuXpX:Xc.H H P <.<.>.P ,.G.yXiXiX:X$X%XyXtXtX#XK.R.5.7 7 ",
"i u u J v 8 0 + d Z U Z d G K K K #.&.#.=.,.1.6.5.F.z.H.D.H.Y.H.Y. XXX:XuXuXXX<.H <.<.I k P >.>.s.[.$X$X$X$X:XyXyX%XT.K.R.5.4 6 ",
"i i i n P c H r r d T G L D K K K *.#.=.-.4.6.4.5.F.a.S.S.S.G.H.H. X.XtXuXuX[.t.I P L x d s s L r.C.A.A.].$X&XyXyX%XT.K.T.6.4 7 ",
"R i D v u H 2.H e e e d s D K K #.*.#.=.,.4.4.5.4.F.5.a.a.S.S.G.H. X.X:XyX:X$XJ.3.D L ^ 3.^ f f ^ u.y.Z.4XaX,XiXiX&X.XI.T.1.4 6 ",
"q...i R u H *.c e r r s k c N K #.&.B #.1.4.4.a.5.F.a.5.a.a.S.S.H.Y.XX:X:X,X.X'.C.u.e.~ ^ e.^ ! [ -XqXqX0XdXaXaXaX&X#XT.XX=.4 6 ",
"f.Y q R v P J c e e k k l z N J #.*.K *.1.4.4.a.z.z.F.4.a.a.S.S.H.P.XX,X,X:X'.J.V.d.d.V.C.C.=XwXwXwXhXwXqX0XdX3XiX,X*X#XXX$.4 6 ",
"_.} t q R H n P H i k k l c N J #.*.#.=.-.,.4.4.D.G.D.a.c.c.S.G.H. XXX,X1X$XL.'.V.C.V.|.oXoX9XlXwXwXlXwXqX0X3X3XiX&X#X*XXXm 4 6 ",
"5X_.) 0 v I *.<.I i i k l c N K K &.*.=.>.,.4.z.D.K.H.S.c.S.S.G.H..XXX:X1X+X'.V.V.C.(.oX-X-X9XhXqXqXwXwXqXqX0X3X3X&X#XT.Y.p 1 6 ",
"6X6X_.t 0 v <.q.L i v v v c n J #.#.*.;.-.,.2.z.G.G.K.H.S.S.S.G.P..X:X1X>X(.'.V././.).-X9X-X-XwXqX9XwXqXqXqX9X<X,X&X#XT.E.u 1 6 ",
"6X8X6X) % 0 0 r r F i F D D H H P P P #.>.,.,.z.D.G.P.G.S.S.G.H.K..X:X:X}.'.'.B./.).).-X<X).oX9XwX9XqXqXqX9X<X<X>X*X.XT.H.7 1 6 ",
"zXzXcX5XS % 0 0 q F F F D D H I P P P *.>.>.,.p.z.G.P.H.G.S.S.G.P.[.:X}.'.(.(.B./.(.).).oX'.|.}.sXsX}.;X>X>X=X@X$X$X.XY.g.4 1 6 ",
"zXzXcXcX5Xt 0 q q F F F R I L L I P P P >.3.,.4.c.D.H.H.H.c.S.G.K..X:X[.B.B.(.B./././././.C.i.<.C.J.r.u.C.{.{.{.+X#XI.Y.4.5 1 1 ",
"zXzXcXcXcXQ.0 q q F F R G T T T L L / / >.>.3.4.a.S.G.G.S.G.c.G.P.XX[.V.m.u.B.B.B.B.b.y.' ^ ^ q.q.r.<.^ ^ u.(.].+X#XI.Y.$.5 1 1 ",
"bXbXbXbXvX8XS t q F R R G T T / Q L L / >.>.3.p.p.c.c.G.c.S.c.G.P..XL.Z.V.M.M.b.b.y.~ G y 0 0 y y + X F e.u.M.].+X#XI.P.i 5 3 1 ",
"bXbXbXbXbXvX5XZ t F R R U T T T T T T / / >.>.2.s.c.c.S.c.S.c.G.[.P.$XN.V.V.u.u.y.' F y F G q.q.Y R q.C.2X=XB.A.$X$XI.G.q 5 3 3 ",
"bXbXbXbXbXbXvXQ.< Z Y Y Y T T ~ ' ^ / / / / / 2.t.p.c.c.a.a.D.G.G.[.>XL.Z.C.e.C.|.`.d.q.q.q.q.q.q.d.OXsX0X;X+X].#X*XI.a.5 2 3 3 ",
"bXbXbXbXbXbXbX8X .Z Y T T T T ~ ] ^ ~ ^ ^ / e.r.t.2.s.s.s.c.S.G.N.[.>X@XZ.M.m.V.V./.|.OXOXOX`.|.`.OXsXsX=X+X+X].#X#XP.P @ 2 2 3 ",
"bXbXbXmXmXmXmXbX5XS Y T T ] ~ ~ ^ ^ ^ ] ' ^ e.e.r.t.x.p.2.p.c.c.N.[.>X@XN.N.N.'.V.C.`.|.`.}.;XsX2XgXgX1X}.$X$XU.I.I.J.e @ 2 2 2 ",
"cXbXbXmXBXBXBXmXbX~.Y T T T ~ ~ ] ] ' ' ' ' ' ^ 3.r.t.t.r.p.x.x.N.[.$XZ.v.N.L.[.L.L.V.u.m.'.;X;X;X;X+X+X@X$X>X#XU.U.x.8 @ 2 2 2 ",
"zXbXbXBXBXBXBXBXMXvXQ.) ] ] ~ ] ] ] ' ' ' ' ' ' i.i.i.r.t.r.x.v.N.[.$XL.v.N.I.[.U.L.M.m.M.N.M.M.m.m.A.U.+X$X>X$XI.L.<.@ @ o o 2 ",
"zXcXbXBXVXVXVXBXBXMXvX} _ ] ^ ^ ] ] ' ' ' ' ' ' e.i.e.i.i.r.s.x.N.[.I.U.N.N.N.[.[.L.Z.M.x.x.l.t.t.t.M.@X$X>X$X@X].L.D X @ o o o ",
"zXzXbXZXCXVXVXBXBXBXMX8X_ ] ^ ^ ^ ~ ] ' ' ' ' ' e.e.e.i.i.i.x.x.N.G.N.N.N.N.N.'.[.].L.Z.N.Z.N.M.M.A.@X$X>X,X+X[.L.C.$ X o o o o ",
"cXzXbXBXCXCXVXVXBXVXVXMX8X| ] ^ ~ ~ ~ ] ' ' ' ' [ e.i.i.i.i.u.u.v.N.N.v.N.N.L.[.[.[.[.[.$X}.}.}.=X<X<X>X>X:X+X'.M.U X X X o o o ",
"nXzXcXBXAXAXAXCXVXBXVXVXMX5XY ~ ~ ~ ~ ~ ] ' [ [ ' [ e.i.i.i.u.i.t.u.v.x.x.N.L.[.+X+X].$X;X<X9X9X0X0X0X1X1X>X@X(./.a O X X X o o ",
"nX8XzXbXCXSXAXAXVXBXVXVXCXMX_. .Y U T T T ~ ] ' ' [ ' e.i.e.e.e.e.e.u.u.u.l.B.'.;X;X|.}.=X<X9X9X9X9X9X<X<X;X{.).FXeXS O X X X o ",
"!.nX8XbXZXSXDXAXCXBXVXVXVXSXMX_.Z F G G T ~ ~ ] ` ' ' ' e.[ [ [ [ [ y.u.u.i.m.B.'.|.|.|.oX=X=XoX<X-X-X=X}.+X).FXIXIXnXS . X X X ",
"@.jX7XvXZXSXDXAXAXVXVXVXVXAXSXMX| Z Z G U U U ~ ' ' [ [ [ { ` { { { ` [ i.e.i.m.C.'.'.(.'.'.oXoX{.{.{.].'.).-XIXLXLXIXFX~.S = & ",
"@.h.7XcXZXSXDXDXAXCXVXVXVXCXDXSXMX| t f F G U ~ ] ' { { { { ` ` { ` ` ` e.[ u.b.u.B.V.V./.B.B./.(.V.B.Z.(./.eXKXLXLXLXLXKXFX5X| ",
"+.+.jX7XbXSXDXDXAXVXVXVXVXVXSXDXHXNX .t a Z U ! ] ] { { { { { _ _ _ ` ` { [ [ u.u.u.u.b.b.b.m.B.b.b.b.B.B.^.NXKXIXLXLXPXLXIXKXHX",
"X.+.!.7XnXSXGXGXDXAXAXVXVXVXAXDXJXGXNX .t a Z G U ] ` ` ` ! ` ` { _ _ ` { { [ [ [ [ e.f.y.y.y.f.f.} f.^.^.5XNXHXKXLXLXPXPXLXLXLX",
"X.+.0.7XnXSXGXJXJXDXAXCXVXCXAXSXGXJXJXvX .t t d U ! ~ ~ ! ! ! _ _ _ ` _ ` ` { { { { { } { } } } } } Q._.8X8XxXSXJXKXLXPXPXPXPXPX",
"X.+.0.OXnXZXGXJXJXDXDXAXAXCXCXAXDXJXJXKXFXY t f F G U ! ! ! ! _ _ _ _ _ _ _ _ ` { { _ | | } } | | ^.eXNXbXxXxXMXHXKXLXPXPXPXPXPX"
};
