/* XPM */
static char *_0f83ba4681c4596f13267219b96d5f0xx1149cHkYs9C2gS[] = {
/* columns rows colors chars-per-pixel */
"64 64 256 2 ",
"   c white",
".  c #E8FEA4",
"X  c #FCFEC5",
"o  c #FDFECA",
"O  c #DCFE93",
"+  c #E6FEA1",
"@  c #BCE665",
"#  c #EAFEA6",
"$  c #FEFFCC",
"%  c #FEFECF",
"&  c #D7FA91",
"*  c #C4ED76",
"=  c #E1FE9A",
"-  c #BFE869",
";  c #EBFEAC",
":  c #EFFEB1",
">  c #E8FEBD",
",  c #E9FFC0",
"<  c #EBFFA9",
"1  c #D1F789",
"2  c #CAF27F",
"3  c #C7EF78",
"4  c #F5FEBA",
"5  c #D8FD8B",
"6  c #FCFEC8",
"7  c #EDFEAE",
"8  c #D0F686",
"9  c #DFFE97",
"0  c #D3F88A",
"q  c #D9FD8E",
"w  c #CCF485",
"e  c #D4F98D",
"r  c #F9FEC2",
"t  c #C0EA6D",
"y  c #E4FE9E",
"u  c #D6F98F",
"i  c #F3FEB7",
"p  c #DBFE90",
"a  c #ECFEBB",
"s  c #DBFC97",
"d  c #DAFB95",
"f  c #BAE461",
"g  c #C6F07B",
"h  c #DEFD98",
"j  c #C9F17B",
"k  c #B6E160",
"l  c #E1FE9E",
"z  c #CEF482",
"x  c #EFFEBE",
"c  c #D6FD89",
"v  c #FFFFD3",
"b  c #C0EB72",
"n  c #C7F081",
"m  c #DEFD9C",
"M  c #F9FEC1",
"N  c #AFDB52",
"B  c #90CD55",
"V  c #CDF78C",
"C  c #F3FEC3",
"Z  c #BDE76B",
"A  c #C4EC70",
"S  c #BC8C93",
"D  c #EDFEC3",
"F  c #C2EC7C",
"G  c #C4A9B3",
"H  c #E2FEA1",
"J  c #FFFFE1",
"K  c #B1DD5A",
"L  c #97CE46",
"P  c #A4D246",
"I  c #8CC553",
"U  c #F8F9F5",
"Y  c #CAF287",
"T  c #FEFFD9",
"R  c #BC9DA6",
"E  c #93C83C",
"W  c #8FCB48",
"Q  c #9AD252",
"!  c #BC9098",
"~  c #B7858D",
"^  c #E9FDB8",
"/  c #CCEA93",
"(  c #EAF1DE",
")  c #C0EB76",
"_  c #BAE473",
"`  c #B9E07F",
"'  c #90C94D",
"]  c #99D25B",
"[  c #C0949C",
"{  c #E0FEFC",
"}  c #82BA47",
"|  c #6C9C3F",
" . c #F8FEC0",
".. c #D3FB83",
"X. c #8BCB4E",
"o. c #F7FDC9",
"O. c #D1EF96",
"+. c #E4FEA5",
"@. c #DCF3B0",
"#. c #E4FDB9",
"$. c #C5E589",
"%. c #90C941",
"&. c #78B049",
"*. c #B59098",
"=. c #9CCA60",
"-. c #77AA42",
";. c #AF858E",
":. c #F0FEB3",
">. c #F2FEBF",
",. c #AAD64C",
"<. c #ABD858",
"1. c #FDFDFC",
"2. c #7CC13F",
"3. c #A0D03E",
"4. c #D8EBB2",
"5. c #BFE67D",
"6. c #82C547",
"7. c #E8E5E4",
"8. c #BEA4AA",
"9. c #C9DDA3",
"0. c #C4ED82",
"q. c #C4DD93",
"w. c #BCDA8E",
"e. c #8EBB56",
"r. c #B3DB7C",
"t. c #B0DC6C",
"y. c #C6ED88",
"u. c #8BC348",
"i. c #B9949D",
"p. c #87C04D",
"a. c #B9E48D",
"s. c #B78B95",
"d. c #ABD978",
"f. c #87BC45",
"g. c #D1F991",
"h. c #D1F9F8",
"j. c #D6F29A",
"k. c #D8F996",
"l. c #D4E3AE",
"z. c #A3D350",
"x. c #B8E369",
"c. c #E6F1CF",
"v. c #98CA37",
"b. c #D3E1BC",
"n. c #F7F9F1",
"m. c #80BD4E",
"M. c #C9DDAC",
"N. c #CEF793",
"B. c #AEC97E",
"V. c #E1FBAE",
"C. c #DAE8CB",
"Z. c #CBE59A",
"A. c #CDEE9E",
"S. c #6CA441",
"D. c #A4797E",
"F. c #94CE4F",
"G. c #B08D96",
"H. c #7CB142",
"J. c #8AC140",
"K. c #B07A81",
"L. c #AA8188",
"P. c #789E39",
"I. c #8E7B66",
"U. c #AC7982",
"Y. c #99CF4B",
"T. c #FBFDE2",
"R. c #DEF99D",
"E. c #BAD785",
"W. c #ABD26C",
"Q. c #CCF58D",
"!. c #83C94F",
"~. c #A1CC4C",
"^. c #F6FBEC",
"/. c #A3C476",
"(. c #92C62E",
"). c #ABD969",
"_. c #78BA45",
"`. c #C3EA8D",
"'. c #D6F7A1",
"]. c #EEF3E6",
"[. c #D4C6CB",
"{. c #B7D18F",
"}. c #7CA748",
"|. c #90BB6A",
" X c #98C747",
".X c #85BB39",
"XX c #83B14A",
"oX c #A2D372",
"OX c #81AB44",
"+X c #AF999E",
"@X c #A06F76",
"#X c #B8E4C3",
"$X c #AA9191",
"%X c #718D41",
"&X c #83B654",
"*X c #86A23F",
"=X c #6E9931",
"-X c #BCD2D2",
";X c #9B7D79",
":X c #E8ECBB",
">X c #F3F4C7",
",X c #D3EDA9",
"<X c #F0FAD7",
"1X c #DBF7B1",
"2X c #CDD7B2",
"3X c #DFF7B6",
"4X c #D2FB97",
"5X c #95BD5C",
"6X c #F5FFFF",
"7X c #DED9D5",
"8X c #C3B5B9",
"9X c #C3EE9D",
"0X c #AAB48B",
"qX c #86B066",
"wX c #709C4E",
"eX c #BAE4B0",
"rX c #7CA150",
"tX c #BBB0AC",
"yX c #A69E80",
"uX c #91CC62",
"iX c #CAE9E4",
"pX c #90BE48",
"aX c #BB8189",
"sX c #A08589",
"dX c #966669",
"fX c #AFBFC1",
"gX c #A1A6A7",
"hX c #AFAFB2",
"jX c #7E785B",
"kX c #83945E",
"lX c #958874",
"zX c #F5F6D5",
"xX c #F0FEC9",
"cX c #BEDEA3",
"vX c #75AF33",
"bX c #A6D360",
"nX c #BB97A3",
"mX c #AC8A89",
"MX c #837542",
"NX c #BBE7D9",
"BX c #68833C",
"VX c #95986B",
"CX c #A3969A",
"ZX c #AEC9C9",
"AX c #859643",
"SX c #B6BC86",
"DX c #C4BBA5",
"FX c #C4F4AB",
"GX c #608749",
"HX c #92BD99",
"JX c #6E7958",
"KX c #798769",
"LX c #6F6244",
"PX c #A1FFA4",
"IX c #FFFEC5",
"UX c #E8FECA",
/* pixels */
"l +.R.$.B./.$.H l O.+.+.l m d s h s 0 j e l H m m & k.u z 8 u k.k.u 8 z u k.& m l H l e j 0 s h s d m l +.+.O.l H $./.B.$.R.+.l ",
"& h $.B.E.$.1 h m m H H m s d s s s u z 8 s m d & & 0 0 z 1 & k.k.& 1 z 1 0 & & d m s 8 z u s s s d s m H H m m h 1 $.E.B.$.h & ",
"z e k.B.E.l d s s m j.O.h & u d & d 0 8 8 u s & s d 8 z 2 2 j z z j 2 2 z 8 d s & s u 8 8 0 d & d u & h O.j.m s s d l E.B.k.0 z ",
"z u H Z.{.+.H h m O.E./ m d & & 0 1 2 2 z 1 e k.m d 8 2 j * A A A A * j 2 8 d m k.e 1 z 2 2 1 0 & & d m / E.O.m h H +.{.Z.H u z ",
"d m H w.q.+.H m H / B.k.s s e & & 8 g 3 2 w 1 e k.d 0 A A A - - - - A A A 0 d k.e 1 w 2 3 g 8 & & e s s k.B./ H m H +.q.w.H m d ",
"m l +.j.q.k.s s s k.E.` 0 e 1 & & 1 2 3 3 * g n 1 u 1 A @ @ @ - - @ @ @ A 1 u 1 2 g * 3 3 2 1 & & 1 e 0 ` E.k.s s s k.q.j.+.l m ",
"k.s m l Y 2 e e 0 1 Y 5.8 8 e e & u w g g g ) t * 2 3 t f f f f f f f f t 3 2 * t ) g g g w u & e e 8 8 5.Y 1 0 e e 2 Y l m s k.",
"r.y.& u 1 8 e e e z * j z 0 e e e 1 w w 2 b Z Z * j w * Z @ @ f f @ @ Z 3 w j * - Z b 2 w w 1 e e e 1 z j * z 0 e e 8 1 u & y.r.",
"W.W.0 8 1 z 8 1 8 j A j 1 u e 0 j * 3 w g - @ @ - * j 3 3 A t - - t A 3 3 j 3 - @ @ - g w 3 * j 0 e e 1 j A j 8 1 8 z 1 8 0 d.W.",
"~.XX_ w 8 z * 3 z 2 3 z & & & 8 t - t g b @ @ @ @ - - Z * t - @ @ - t * Z - - @ @ @ @ b g t - t 8 & & & z 3 2 z 3 * z 8 w _ XX~.",
"%. Xk * 2 2 b b z 3 t 3 e & u 1 - @ t t t - f f f f k k Z @ f f f f @ Z k k f f f f - t t t @ - 1 u & e 3 t 3 z b b 2 2 * k  X%.",
"' F.,.k * j t @ Z t - j 0 2 3 j @ @ f x.b b @ k k f K K x.K N K K K K x.K K f k k @ b ) x.@ @ @ j 3 2 0 j - t Z @ t j * k ,.F.' ",
"m.I  Xz.<.k f N K @ Z Z b f k @ k f k x.=.).).k x.=. XL z.<.P z.z.P <.z.L  X=.x.k ).).=.x.k f k @ k f b Z Z @ K N f k <.z. XI m.",
"S.&.p.Y.~.P ,.N K k k K N N N N N <.=.5XrX=.uX&X}.-.J.X.B Q L L Y.L Q B X.J.-.}.&XuX=.rX5X=.<.N N N N N K k k K N ,.P ~.Y.p.&.S.",
"m.m.I ' ~.~.P ,.,.K N P 3.P ,.N z.z.pXOXXXB I I -.f.F.B B B L %.%.L B B B F.f.-.I I B XXOXpXz.z.N ,.P 3.P N K ,.,.P ~.~.' X.m.m.",
"u.X.!.6.%.v.3.,.N K N 3.v.v.3.P ] oX] ] Q ' } F.Q Q ] ] F.X.m.p.p.m.X.F.] ] Q Q F.} ' Q ] ] oX] P 3.v.v.3.N K N ,.3.v.%.6.!.X.u.",
"-.6._.2.2..X(.v.3.P P 3.v.E E W B ] uX] p.H.u.Q Q I I ] Q X._.&.&._.X.Q ] I I Q Q u.H.p.] uX] B W E E v.3.P P 3.v.(..X2.2._.6.-.",
"-.S.| _.2.2.(.(.(.E %.E E %.} } B I H.' } -.rXkX&Xe.BXpXY.W W ' ' W W Y.pXBXe.&XkXrX-.} ' H.I B } } %.E E %.E (.(.(.2.2._.| S.-.",
"u.S.&.6.2.2.vXvX.XX.B W W 6.S.-.I &.&.p.| f.=.I.jXkXjX*XE L L Y.Y.L L E *XjXkXjXI.=.f.| p.&.&.I -.S.6.W W B X..XvXvX2.2.6.&.S.u.",
"p.m.!.!.6.6.6._.p.B I ' W H.| -.F.} B uX&X| XXkXdX@XD.I.P.=X.X X X.XP.P.I.D.@XdXkXXX| &XuXB } F.-.| H.W ' I B p._.6.6.6.!.!.m.e.",
"e.B !.X.X.} u.} -.&.| f.L ' W W L %.W &XGXJXP.OXdXaXS ~ I.P.%XBXBX%XP.I.~ S aXdXOXP.JXGX&XW %.L W W ' L f.| &.-.} u.} X.X.!.B e.",
"5Xp.H.p.XX| P.u.u.f.' L E L %.%.J.E J.| | VXlX*XMXK.S S K.AX*XLXLX*XAXK.S S K.MX*XlXVX| | J.E J.%.%.L E L ' f.u.u.P.| XXp.H.p.5X",
"5.=.e.OX}.rX5X}.OX}.Q Q Y.f.J..X=X=X=XS.} pXlX;XMX@XS ;.S I.qXlXlXqXI.S ;.S @XMX;XlXpX} S.=X=X=X.XJ.f.Y.Q Q }.OX}.5XrX}.OXe.=.5.",
"Q.0.g W.e.` y.` |.qXe.I B wXwX%X%X*XjXAXH.=X%XsXU.U.! L.S L.ZX-X-XZXL.S L.! U.U.sX%X=XH.AXjX*X%X%XwXwXB I e.qX|.` y.` e.W.g 0.Q.",
"w g b ) _ * n 0.5.r.|.qX|.wX|.eXgXlX;X;XKXHX#X-XL.~ ! ;.~ ~ CXh.h.CX~ ~ ;.! ~ L.-X#XHXKX;X;XlXgXeX|.wX|.qX|.r.5.0.n * _ ) b g w ",
") n * * g g 2 1 F ).` `.d./.a.FXNXfXCX+X$XgXiXh.gXU.[ s.! S U.hXhXU.S ! s.[ U.gXh.iXgX$X+XCXfXNXFXa./.d.`.` ).F 1 2 g g * * n ) ",
"0.w 2 2 w w w 8 Q.Y g.4X4X4Xg.N.9X#XNX-XhXG.$XfXZXD.s.! ;.! aXK.K.aX! ;.! s.D.ZXfX$XG.hX-XNX#X9XN.g.4X4X4Xg.Y Q.8 w w w 2 2 w 0.",
"Y 2 3 w 1 V Q.Q.N.g.g.g.V Q.w Y V a.#Xh.h.-XtXG.sXdXU.! ;.;.! aXaX! ;.;.! U.dXsXG.tX-Xh.h.#Xa.V Y w Q.V g.g.g.N.Q.Q.V 1 w 3 2 Y ",
"F b * 2 2 V N.Q.Q.Y V V j * b b * 0.a.eXiX{ h.hX*.S ~ s.s.D.! S S ! D.s.s.~ S *.hXh.{ iXeXa.0.* b b * j V V Y Q.Q.N.V 2 2 * b F ",
"x.Z b g w V Q.Y n F g Y b t Z Z t * Q.a.#X{ { h.fX+Xi.[ *.D.*.! ! *.D.*.[ i.+XfXh.{ { #Xa.Q.* t Z Z t b Y g F n Y Q.g.w g * Z x.",
"<.x.b g 2 n n n * ) b ) Z @ @ - b * Q.A.cX{ { { { iX+X*.s.@XG.i.i.G.@Xs.*.+XiX{ { { { cXA.Q.* b - @ @ Z ) b ) * n n n 2 g b x.<.",
"<.k _ F F ) n 0.) * * _ bX<.Z t b F Y N.`.eX{ 6X6X6X7.sXs.@X;.[ [ ;.@Xs.sX7.6X6X6X{ eX`.N.Y F b t Z <.bX_ * * ) 0.n ) F F _ k <.",
"Z Z x.).t.F Y y.r.` 0.t.bXt.* ) _ ) _ n Y 9XC.1.      8XL.D.S [ [ S D.L.8X      1.C.9XY n _ ) _ ) * t.bXt.0.` r.y.Y F t.).x.Z Z ",
"Y n _ W.r.r.w.{.0Xb.M.w.N.n _ t.t.F ) * n 9X(         7.;.K.~ [ [ ~ K.;.7.      1.( 9Xn 3 ) F t.t._ n N.w.M.b.0X{.w.r.r.W._ n Y ",
"j.O.`.w.{.2XtX+XR [.7X0Xw.q.5.5.y.5.F n 0.Z.].        n.$X~ L.[ [ L.~ $Xn.        ].Z.0.n F 5.y.5.5.q.w.0X7X[.R +XtX2X{.w.`.O.j.",
"M.M.cXb.7.8X8XG G R [.tXC.].4.$.` ` Q./ M.( 1.        ].yX~ mXi.i.mX~ yX].        1.( M./ Q.` ` $.4.].C.tX[.R G G 8X8X7.b.cXM.M.",
"U U U 1.  7.8.8.G R nXG 7.  U C.b.l.A.9.(       ].c.( C.B.mX*.*.*.*.mXB.C.( c.].      ( 9.A.l.b.C.U   7.G nXR G 8.8.7.  1.U U U ",
"            7.G G R nXR 7X    1.].n.^.n.      n.M.Z./ r.oXyXS i.i.S yXoXr./ Z.M.n.      U ^.n.].1.    7XR nXR G G 7.            ",
"              [.G R G.R [.                1.n.( 9./ y.t.d.yX~ [ [ ~ yXd.t.y./ 9.( n.1.                [.R G.R G [.              ",
"            ^.7X8.G i.i.G U             U c.4.l.q.$.d.=.oX0XK.[ [ K.0XoX=.d.$.q.l.4.c.U             U G i.i.G 8.7X^.            ",
"      n.<X<X@.@.DXG R G.8.2X^.1.      U b.@.^ V.j.y.d.=.oXVXD.$X$XD.VXoX=.d.y.j.V.^ @.b.U       1.^.2X8.G.R G DX@.@.<X<Xn.      ",
"  n.<Xc.@.V.R.& Z.8.8.*.R SXA.4.c.( ( b.q.Z./ `.$.` d.d.a.{.q.9.9.q.{.a.d.d.` $.`./ Z.q.b.( ( c.4.A.SXR *.8.8.Z.& R.V.@.c.<Xn.  ",
"( c.4.4.l./ O.'.'.l.b.2X9.9.A.,X1X@.3X@.@.3X#.V.V.'.A.a.A., , , , , , A.a.A.'.V.V.#.3X,X@.3X@.1X,XA.9.9.2Xb.l.'.'.O./ l.4.4.c.( ",
"T.T.T.T.T.xX, , , , D , , , D D , , > ,X/.,X> #.#.1X/.w.#.> > #.#.> > #.w./.1X#.#.> ,X/.,X> , , D D , , , D , > , , xXT.T.T.T.T.",
"J J J J v D D D , , , > , , > , , > > #.1X#.> > > > @.3X, > 4.9.9.4.> , 3X@.> > > > #.1X#.> > , , > , , > , > , D D D v J J J J ",
"J T.zXT o.D xX, > > > D D > ^ ^ ^ > a ^ a x a a x D D D > > ^ > > ^ > > D D D x a a x a ^ a > ^ ^ ^ > D D > > > , xXD o.T zXJ J ",
"J J zXT T T % C C o.x ^ ^ C >.x x a x a ^ x x ^ x a a x x a a a a a a x x a a x ^ x x ^ a x a x x >.C ^ ^ x o.C C % T T T zXJ J ",
"T T T T v v v v v 6 C >.C o 6 o $ o o. .a ^ x >.C o.C C C C x ^ ^ x C C C C o.C >.x ^ a  .o.o $ 6 6 o C >.C 6 % % v v v T T T T ",
"v v v v v % % >X>X% % $ $ $ o o $ $ o 6 6 6 6 $ $ $ 6 6 o 6 6 o.o.6 6 o 6 6 $ $ $ 6 6 6 6 o $ $ o o o $ $ % % >X>X% % % v v v v ",
"% % % % $ $ o.:X:X$ $ $ $ $ o o $ o o 6 o o o o o o o o $ >Xo.% % o.>X$ o o o o o o o o 6 o o $ o o o $ $ $ $ :X:Xo.$ $ % % % % ",
"$ $ o o 6 o $ o $ o o o o o o 6 o o o 6 o o 6 6 6 6 o 6 6 l.:Xo o :Xl.6 6 o 6 6 6 6 o o 6 o o o 6 o o o o o o o o o o 6 o o $ $ ",
"6 6 X X X 6 X X X 6 6 6 6 6 X X X X X X X X X X X X 6 X X X X 6 6 X X X X 6 X X X X X X X X X X X X 6 6 6 6 6 X X X 6 X X X 6 6 ",
"r r  .M  .r r  .r r r r r r M M  . . . . . . . . .M  .r  .M M  . .M M  .r  .M  . . . . . . . . .M M r r r r r r r r r  .M  .r r ",
"4 4 i 4 4 4 4 4 4 4 4 i 4 i i 4 i i i i i i :.i i 4 4 4 4 4 i i i i 4 4 4 4 4 i i i i i i i i i 4 i i 4 i 4 4 4 4 4 4 4 4 i 4 4 ",
": : : : :.: : :.: 7 : 7 7 7 7 : 7 : : : : 7 7 : : : : :.: : :.:.:.:.: :.:.: : : : 7 7 : : : : 7 : 7 7 7 7 : 7 : :.: : :.: : : :.",
"; ; ; ; ; ; < ; < # < < # < < ; < ; ; ; ; ; ; 7 7 ; ; 7 ; ; 7 ; ; 7 ; ; 7 ; ; 7 7 ; ; ; ; ; ; < ; < < # < < # < ; < ; ; ; ; ; ; ",
"< < # . # # + . . . . . . # # # . # ; < < ; ; ; ; < # < # # . # < . # # < # < ; ; ; ; < ; ; # . # # # . . . . . . + # # . # < < ",
"j.H + + + H l y + + y y . + . . # < ; ; ; < # < # . + . + H H H H H H + . + . # < # < ; ; ; < # . . + . + y + + y l H + + + H j.",
"/ R.y l = = h = l y y y + + + . . # < < < # . + + H l l = h h h h h h = l H H + + . # < < < # . . + + + y y y l = h = = l y R./ ",
"= h 9 9 h h h = = = y y y + + . . . # # . . + y l = h h O O O 9 O O O O h h = l y + . . # # . . . + + y y y = = = h 9 9 9 h h = ",
"O O O O O O O 9 h 9 = = y y + . . . . H H y = = h s O p p q q q q q q p p O O h = = y H H . . . . + y y = = 9 9 9 O O O O O O O ",
"q q q q p q p O O O h 9 = l y + + + R./ O.= 9 O O p p q 5 5 5 c c 5 5 5 q p p O O 9 = O./ R.+ + + y l = 9 h O O O p q q q q q q ",
"5 c c 5 5 5 q q q p O O O 9 9 = = h h h s O p p p p 5 c 5 c c 5 5 c c 5 c 5 p p p p O s s 9 = = = 9 h O O O p q q q 5 5 5 c c 5 ",
"..............c c q c c c q q O O O O p q 5 q q 5 c c c ......c c ......c c c 5 q 5 5 q p O O O O q q c c c q c c .............."
};
